%TF.GenerationSoftware,KiCad,Pcbnew,7.0.1*%
%TF.CreationDate,2023-09-29T14:49:09+07:00*%
%TF.ProjectId,STM32F407xxx,53544d33-3246-4343-9037-7878782e6b69,rev?*%
%TF.SameCoordinates,Original*%
%TF.FileFunction,Copper,L2,Bot*%
%TF.FilePolarity,Positive*%
%FSLAX46Y46*%
G04 Gerber Fmt 4.6, Leading zero omitted, Abs format (unit mm)*
G04 Created by KiCad (PCBNEW 7.0.1) date 2023-09-29 14:49:09*
%MOMM*%
%LPD*%
G01*
G04 APERTURE LIST*
G04 Aperture macros list*
%AMRoundRect*
0 Rectangle with rounded corners*
0 $1 Rounding radius*
0 $2 $3 $4 $5 $6 $7 $8 $9 X,Y pos of 4 corners*
0 Add a 4 corners polygon primitive as box body*
4,1,4,$2,$3,$4,$5,$6,$7,$8,$9,$2,$3,0*
0 Add four circle primitives for the rounded corners*
1,1,$1+$1,$2,$3*
1,1,$1+$1,$4,$5*
1,1,$1+$1,$6,$7*
1,1,$1+$1,$8,$9*
0 Add four rect primitives between the rounded corners*
20,1,$1+$1,$2,$3,$4,$5,0*
20,1,$1+$1,$4,$5,$6,$7,0*
20,1,$1+$1,$6,$7,$8,$9,0*
20,1,$1+$1,$8,$9,$2,$3,0*%
%AMFreePoly0*
4,1,6,1.000000,0.000000,0.500000,-0.750000,-0.500000,-0.750000,-0.500000,0.750000,0.500000,0.750000,1.000000,0.000000,1.000000,0.000000,$1*%
%AMFreePoly1*
4,1,6,0.500000,-0.750000,-0.650000,-0.750000,-0.150000,0.000000,-0.650000,0.750000,0.500000,0.750000,0.500000,-0.750000,0.500000,-0.750000,$1*%
G04 Aperture macros list end*
%TA.AperFunction,ComponentPad*%
%ADD10C,1.500000*%
%TD*%
%TA.AperFunction,ComponentPad*%
%ADD11R,1.700000X1.700000*%
%TD*%
%TA.AperFunction,ComponentPad*%
%ADD12O,1.700000X1.700000*%
%TD*%
%TA.AperFunction,SMDPad,CuDef*%
%ADD13FreePoly0,180.000000*%
%TD*%
%TA.AperFunction,SMDPad,CuDef*%
%ADD14FreePoly1,180.000000*%
%TD*%
%TA.AperFunction,SMDPad,CuDef*%
%ADD15FreePoly0,270.000000*%
%TD*%
%TA.AperFunction,SMDPad,CuDef*%
%ADD16FreePoly1,270.000000*%
%TD*%
%TA.AperFunction,SMDPad,CuDef*%
%ADD17RoundRect,0.225000X0.250000X-0.225000X0.250000X0.225000X-0.250000X0.225000X-0.250000X-0.225000X0*%
%TD*%
%TA.AperFunction,SMDPad,CuDef*%
%ADD18FreePoly0,0.000000*%
%TD*%
%TA.AperFunction,SMDPad,CuDef*%
%ADD19FreePoly1,0.000000*%
%TD*%
%TA.AperFunction,SMDPad,CuDef*%
%ADD20RoundRect,0.200000X-0.275000X0.200000X-0.275000X-0.200000X0.275000X-0.200000X0.275000X0.200000X0*%
%TD*%
%TA.AperFunction,SMDPad,CuDef*%
%ADD21FreePoly0,90.000000*%
%TD*%
%TA.AperFunction,SMDPad,CuDef*%
%ADD22FreePoly1,90.000000*%
%TD*%
%TA.AperFunction,SMDPad,CuDef*%
%ADD23RoundRect,0.200000X0.275000X-0.200000X0.275000X0.200000X-0.275000X0.200000X-0.275000X-0.200000X0*%
%TD*%
%TA.AperFunction,ViaPad*%
%ADD24C,0.800000*%
%TD*%
%TA.AperFunction,Conductor*%
%ADD25C,0.600000*%
%TD*%
%TA.AperFunction,Conductor*%
%ADD26C,0.250000*%
%TD*%
G04 APERTURE END LIST*
D10*
%TO.P,Y1,1,1*%
%TO.N,Net-(U1-PD0)*%
X135800000Y-52000000D03*
%TO.P,Y1,2,2*%
%TO.N,Net-(U1-PD1)*%
X135800000Y-56880000D03*
%TD*%
D11*
%TO.P,J4,1,Pin_1*%
%TO.N,VDD*%
X131100000Y-81850000D03*
D12*
%TO.P,J4,2,Pin_2*%
%TO.N,+3V0*%
X131100000Y-79310000D03*
%TD*%
D11*
%TO.P,P1,1,Pin_1*%
%TO.N,GND*%
X120210000Y-72590000D03*
D12*
%TO.P,P1,2,Pin_2*%
X122750000Y-72590000D03*
%TO.P,P1,3,Pin_3*%
%TO.N,VDD*%
X120210000Y-75130000D03*
%TO.P,P1,4,Pin_4*%
X122750000Y-75130000D03*
%TO.P,P1,5,Pin_5*%
%TO.N,GND*%
X120210000Y-77670000D03*
%TO.P,P1,6,Pin_6*%
%TO.N,NRST*%
X122750000Y-77670000D03*
%TO.P,P1,7,Pin_7*%
%TO.N,PC1*%
X120210000Y-80210000D03*
%TO.P,P1,8,Pin_8*%
%TO.N,PC0*%
X122750000Y-80210000D03*
%TO.P,P1,9,Pin_9*%
%TO.N,PC3*%
X120210000Y-82750000D03*
%TO.P,P1,10,Pin_10*%
%TO.N,PC2*%
X122750000Y-82750000D03*
%TO.P,P1,11,Pin_11*%
%TO.N,PA1*%
X120210000Y-85290000D03*
%TO.P,P1,12,Pin_12*%
%TO.N,PA0*%
X122750000Y-85290000D03*
%TO.P,P1,13,Pin_13*%
%TO.N,PA3*%
X120210000Y-87830000D03*
%TO.P,P1,14,Pin_14*%
%TO.N,PA2*%
X122750000Y-87830000D03*
%TO.P,P1,15,Pin_15*%
%TO.N,PA5*%
X120210000Y-90370000D03*
%TO.P,P1,16,Pin_16*%
%TO.N,PA4*%
X122750000Y-90370000D03*
%TO.P,P1,17,Pin_17*%
%TO.N,PA7*%
X120210000Y-92910000D03*
%TO.P,P1,18,Pin_18*%
%TO.N,PA6*%
X122750000Y-92910000D03*
%TO.P,P1,19,Pin_19*%
%TO.N,PC5*%
X120210000Y-95450000D03*
%TO.P,P1,20,Pin_20*%
%TO.N,PC4*%
X122750000Y-95450000D03*
%TO.P,P1,21,Pin_21*%
%TO.N,PB1*%
X120210000Y-97990000D03*
%TO.P,P1,22,Pin_22*%
%TO.N,PB0*%
X122750000Y-97990000D03*
%TO.P,P1,23,Pin_23*%
%TO.N,GND*%
X120210000Y-100530000D03*
%TO.P,P1,24,Pin_24*%
%TO.N,PB2*%
X122750000Y-100530000D03*
%TO.P,P1,25,Pin_25*%
%TO.N,PE7*%
X120210000Y-103070000D03*
%TO.P,P1,26,Pin_26*%
%TO.N,PE8*%
X122750000Y-103070000D03*
%TO.P,P1,27,Pin_27*%
%TO.N,PE9*%
X120210000Y-105610000D03*
%TO.P,P1,28,Pin_28*%
%TO.N,PE10*%
X122750000Y-105610000D03*
%TO.P,P1,29,Pin_29*%
%TO.N,PE11*%
X120210000Y-108150000D03*
%TO.P,P1,30,Pin_30*%
%TO.N,PE12*%
X122750000Y-108150000D03*
%TO.P,P1,31,Pin_31*%
%TO.N,PE13*%
X120210000Y-110690000D03*
%TO.P,P1,32,Pin_32*%
%TO.N,PE14*%
X122750000Y-110690000D03*
%TO.P,P1,33,Pin_33*%
%TO.N,PE15*%
X120210000Y-113230000D03*
%TO.P,P1,34,Pin_34*%
%TO.N,PB10*%
X122750000Y-113230000D03*
%TO.P,P1,35,Pin_35*%
%TO.N,PB11*%
X120210000Y-115770000D03*
%TO.P,P1,36,Pin_36*%
%TO.N,PB12*%
X122750000Y-115770000D03*
%TO.P,P1,37,Pin_37*%
%TO.N,PB13*%
X120210000Y-118310000D03*
%TO.P,P1,38,Pin_38*%
%TO.N,PB14*%
X122750000Y-118310000D03*
%TO.P,P1,39,Pin_39*%
%TO.N,PB15*%
X120210000Y-120850000D03*
%TO.P,P1,40,Pin_40*%
%TO.N,PD8*%
X122750000Y-120850000D03*
%TO.P,P1,41,Pin_41*%
%TO.N,PD9*%
X120210000Y-123390000D03*
%TO.P,P1,42,Pin_42*%
%TO.N,PD10*%
X122750000Y-123390000D03*
%TO.P,P1,43,Pin_43*%
%TO.N,PD11*%
X120210000Y-125930000D03*
%TO.P,P1,44,Pin_44*%
%TO.N,PD12*%
X122750000Y-125930000D03*
%TO.P,P1,45,Pin_45*%
%TO.N,PD13*%
X120210000Y-128470000D03*
%TO.P,P1,46,Pin_46*%
%TO.N,PD14*%
X122750000Y-128470000D03*
%TO.P,P1,47,Pin_47*%
%TO.N,PD15*%
X120210000Y-131010000D03*
%TO.P,P1,48,Pin_48*%
%TO.N,unconnected-(P1-Pin_48-Pad48)*%
X122750000Y-131010000D03*
%TO.P,P1,49,Pin_49*%
%TO.N,GND*%
X120210000Y-133550000D03*
%TO.P,P1,50,Pin_50*%
X122750000Y-133550000D03*
%TD*%
D11*
%TO.P,J3,1,Pin_1*%
%TO.N,Net-(J3-Pin_1)*%
X169275000Y-56000000D03*
D12*
%TO.P,J3,2,Pin_2*%
%TO.N,Net-(J3-Pin_2)*%
X169275000Y-58540000D03*
%TO.P,J3,3,Pin_3*%
%TO.N,Net-(J3-Pin_3)*%
X169275000Y-61080000D03*
%TO.P,J3,4,Pin_4*%
%TO.N,Net-(J3-Pin_4)*%
X169275000Y-63620000D03*
%TD*%
D11*
%TO.P,P2,1,Pin_1*%
%TO.N,GND*%
X171060000Y-72590000D03*
D12*
%TO.P,P2,2,Pin_2*%
X173600000Y-72590000D03*
%TO.P,P2,3,Pin_3*%
%TO.N,+5V*%
X171060000Y-75130000D03*
%TO.P,P2,4,Pin_4*%
X173600000Y-75130000D03*
%TO.P,P2,5,Pin_5*%
%TO.N,+3V0*%
X171060000Y-77670000D03*
%TO.P,P2,6,Pin_6*%
X173600000Y-77670000D03*
%TO.P,P2,7,Pin_7*%
%TO.N,PH0*%
X171060000Y-80210000D03*
%TO.P,P2,8,Pin_8*%
%TO.N,PH1*%
X173600000Y-80210000D03*
%TO.P,P2,9,Pin_9*%
%TO.N,PC14*%
X171060000Y-82750000D03*
%TO.P,P2,10,Pin_10*%
%TO.N,PC15*%
X173600000Y-82750000D03*
%TO.P,P2,11,Pin_11*%
%TO.N,PE6*%
X171060000Y-85290000D03*
%TO.P,P2,12,Pin_12*%
%TO.N,PC13*%
X173600000Y-85290000D03*
%TO.P,P2,13,Pin_13*%
%TO.N,PE4*%
X171060000Y-87830000D03*
%TO.P,P2,14,Pin_14*%
%TO.N,PE5*%
X173600000Y-87830000D03*
%TO.P,P2,15,Pin_15*%
%TO.N,PE2*%
X171060000Y-90370000D03*
%TO.P,P2,16,Pin_16*%
%TO.N,PE3*%
X173600000Y-90370000D03*
%TO.P,P2,17,Pin_17*%
%TO.N,PE0*%
X171060000Y-92910000D03*
%TO.P,P2,18,Pin_18*%
%TO.N,PE1*%
X173600000Y-92910000D03*
%TO.P,P2,19,Pin_19*%
%TO.N,PB8*%
X171060000Y-95450000D03*
%TO.P,P2,20,Pin_20*%
%TO.N,PB9*%
X173600000Y-95450000D03*
%TO.P,P2,21,Pin_21*%
%TO.N,VDD*%
X171060000Y-97990000D03*
%TO.P,P2,22,Pin_22*%
%TO.N,BOOT0*%
X173600000Y-97990000D03*
%TO.P,P2,23,Pin_23*%
%TO.N,PB6*%
X171060000Y-100530000D03*
%TO.P,P2,24,Pin_24*%
%TO.N,PB7*%
X173600000Y-100530000D03*
%TO.P,P2,25,Pin_25*%
%TO.N,PB4*%
X171060000Y-103070000D03*
%TO.P,P2,26,Pin_26*%
%TO.N,PB5*%
X173600000Y-103070000D03*
%TO.P,P2,27,Pin_27*%
%TO.N,PD7*%
X171060000Y-105610000D03*
%TO.P,P2,28,Pin_28*%
%TO.N,PB3*%
X173600000Y-105610000D03*
%TO.P,P2,29,Pin_29*%
%TO.N,PD5*%
X171060000Y-108150000D03*
%TO.P,P2,30,Pin_30*%
%TO.N,PD6*%
X173600000Y-108150000D03*
%TO.P,P2,31,Pin_31*%
%TO.N,PD3*%
X171060000Y-110690000D03*
%TO.P,P2,32,Pin_32*%
%TO.N,PD4*%
X173600000Y-110690000D03*
%TO.P,P2,33,Pin_33*%
%TO.N,PD1*%
X171060000Y-113230000D03*
%TO.P,P2,34,Pin_34*%
%TO.N,PD2*%
X173600000Y-113230000D03*
%TO.P,P2,35,Pin_35*%
%TO.N,PC12*%
X171060000Y-115770000D03*
%TO.P,P2,36,Pin_36*%
%TO.N,PD0*%
X173600000Y-115770000D03*
%TO.P,P2,37,Pin_37*%
%TO.N,PC10*%
X171060000Y-118310000D03*
%TO.P,P2,38,Pin_38*%
%TO.N,PC11*%
X173600000Y-118310000D03*
%TO.P,P2,39,Pin_39*%
%TO.N,PA14*%
X171060000Y-120850000D03*
%TO.P,P2,40,Pin_40*%
%TO.N,PA15*%
X173600000Y-120850000D03*
%TO.P,P2,41,Pin_41*%
%TO.N,PA10*%
X171060000Y-123390000D03*
%TO.P,P2,42,Pin_42*%
%TO.N,PA13*%
X173600000Y-123390000D03*
%TO.P,P2,43,Pin_43*%
%TO.N,PA8*%
X171060000Y-125930000D03*
%TO.P,P2,44,Pin_44*%
%TO.N,PA9*%
X173600000Y-125930000D03*
%TO.P,P2,45,Pin_45*%
%TO.N,PC8*%
X171060000Y-128470000D03*
%TO.P,P2,46,Pin_46*%
%TO.N,PC9*%
X173600000Y-128470000D03*
%TO.P,P2,47,Pin_47*%
%TO.N,PC6*%
X171060000Y-131010000D03*
%TO.P,P2,48,Pin_48*%
%TO.N,PC7*%
X173600000Y-131010000D03*
%TO.P,P2,49,Pin_49*%
%TO.N,GND*%
X171060000Y-133550000D03*
%TO.P,P2,50,Pin_50*%
X173600000Y-133550000D03*
%TD*%
D10*
%TO.P,Y2,1,1*%
%TO.N,Net-(U3-XI)*%
X138925000Y-117675000D03*
%TO.P,Y2,2,2*%
%TO.N,Net-(U3-XO)*%
X138925000Y-122555000D03*
%TD*%
%TO.P,Y3,1,1*%
%TO.N,Net-(C36-Pad1)*%
X151700000Y-71600000D03*
%TO.P,Y3,2,2*%
%TO.N,Net-(C37-Pad1)*%
X146820000Y-71600000D03*
%TD*%
D11*
%TO.P,J7,1,Pin_1*%
%TO.N,GND*%
X175260000Y-43175000D03*
D12*
%TO.P,J7,2,Pin_2*%
X175260000Y-45715000D03*
%TD*%
D11*
%TO.P,J2,1,Pin_1*%
%TO.N,Net-(J2-Pin_1)*%
X121560000Y-50770000D03*
D12*
%TO.P,J2,2,Pin_2*%
%TO.N,Net-(J2-Pin_2)*%
X121560000Y-53310000D03*
%TO.P,J2,3,Pin_3*%
%TO.N,GND*%
X121560000Y-55850000D03*
%TO.P,J2,4,Pin_4*%
%TO.N,Net-(J2-Pin_4)*%
X121560000Y-58390000D03*
%TO.P,J2,5,Pin_5*%
%TO.N,Net-(J2-Pin_5)*%
X121560000Y-60930000D03*
%TO.P,J2,6,Pin_6*%
%TO.N,Net-(J2-Pin_6)*%
X121560000Y-63470000D03*
%TD*%
D11*
%TO.P,J6,1,Pin_1*%
%TO.N,GND*%
X118540000Y-43055000D03*
D12*
%TO.P,J6,2,Pin_2*%
X118540000Y-45595000D03*
%TD*%
D13*
%TO.P,SB7,1,A*%
%TO.N,T_JTMS*%
X173550000Y-61225000D03*
D14*
%TO.P,SB7,2,B*%
%TO.N,Net-(J3-Pin_3)*%
X172100000Y-61225000D03*
%TD*%
D15*
%TO.P,SB20,1,A*%
%TO.N,PA0*%
X129775000Y-102950000D03*
D16*
%TO.P,SB20,2,B*%
%TO.N,Net-(SB20-B)*%
X129775000Y-104400000D03*
%TD*%
D17*
%TO.P,C17,1*%
%TO.N,MCO*%
X157200000Y-62125000D03*
%TO.P,C17,2*%
%TO.N,GND*%
X157200000Y-60575000D03*
%TD*%
D13*
%TO.P,SB9,1,A*%
%TO.N,PA13*%
X173550000Y-63750000D03*
D14*
%TO.P,SB9,2,B*%
%TO.N,Net-(J3-Pin_4)*%
X172100000Y-63750000D03*
%TD*%
D18*
%TO.P,SB11,1,A*%
%TO.N,T_NRST*%
X152275000Y-66800000D03*
D19*
%TO.P,SB11,2,B*%
%TO.N,NRST*%
X153725000Y-66800000D03*
%TD*%
D20*
%TO.P,R10,1*%
%TO.N,Net-(U1-PA8)*%
X157200000Y-57450000D03*
%TO.P,R10,2*%
%TO.N,MCO*%
X157200000Y-59100000D03*
%TD*%
D13*
%TO.P,SB8,1,A*%
%TO.N,Net-(J3-Pin_4)*%
X166225000Y-63600000D03*
D14*
%TO.P,SB8,2,B*%
%TO.N,STM_JTMS*%
X164775000Y-63600000D03*
%TD*%
D21*
%TO.P,SB10,1,A*%
%TO.N,GND*%
X134290000Y-63475000D03*
D22*
%TO.P,SB10,2,B*%
%TO.N,Net-(SB10-B)*%
X134290000Y-62025000D03*
%TD*%
D18*
%TO.P,SB16,1,A*%
%TO.N,Net-(SB16-A)*%
X157725000Y-67600000D03*
D19*
%TO.P,SB16,2,B*%
%TO.N,PC14*%
X159175000Y-67600000D03*
%TD*%
D15*
%TO.P,SB17,1,A*%
%TO.N,+3V0*%
X133800000Y-79475000D03*
D16*
%TO.P,SB17,2,B*%
%TO.N,VDD*%
X133800000Y-80925000D03*
%TD*%
D13*
%TO.P,SB18,1,A*%
%TO.N,Net-(SB18-A)*%
X162550000Y-85325000D03*
D14*
%TO.P,SB18,2,B*%
%TO.N,GND*%
X161100000Y-85325000D03*
%TD*%
D13*
%TO.P,SB14,1,A*%
%TO.N,PH1*%
X163125000Y-68600000D03*
D14*
%TO.P,SB14,2,B*%
%TO.N,Net-(SB14-B)*%
X161675000Y-68600000D03*
%TD*%
D23*
%TO.P,R14,1*%
%TO.N,T_SWDIO_IN*%
X160400000Y-59425000D03*
%TO.P,R14,2*%
%TO.N,T_JTMS*%
X160400000Y-57775000D03*
%TD*%
D13*
%TO.P,SB5,1,A*%
%TO.N,PA14*%
X173550000Y-58675000D03*
D14*
%TO.P,SB5,2,B*%
%TO.N,Net-(J3-Pin_2)*%
X172100000Y-58675000D03*
%TD*%
D13*
%TO.P,SB6,1,A*%
%TO.N,Net-(J3-Pin_3)*%
X166225000Y-61050000D03*
D14*
%TO.P,SB6,2,B*%
%TO.N,GND*%
X164775000Y-61050000D03*
%TD*%
D21*
%TO.P,SB19,1,A*%
%TO.N,GND*%
X132270000Y-91170000D03*
D22*
%TO.P,SB19,2,B*%
%TO.N,Net-(SB19-B)*%
X132270000Y-89720000D03*
%TD*%
D13*
%TO.P,SB13,1,A*%
%TO.N,PH0*%
X163125000Y-71150000D03*
D14*
%TO.P,SB13,2,B*%
%TO.N,MCO*%
X161675000Y-71150000D03*
%TD*%
D18*
%TO.P,SB1,1,A*%
%TO.N,NRST*%
X155700000Y-104575000D03*
D19*
%TO.P,SB1,2,B*%
%TO.N,VDD*%
X157150000Y-104575000D03*
%TD*%
D13*
%TO.P,SB4,1,A*%
%TO.N,Net-(J3-Pin_2)*%
X166225000Y-58525000D03*
D14*
%TO.P,SB4,2,B*%
%TO.N,STM_JTCK*%
X164775000Y-58525000D03*
%TD*%
D13*
%TO.P,SB3,1,A*%
%TO.N,T_JTCK*%
X173550000Y-56125000D03*
D14*
%TO.P,SB3,2,B*%
%TO.N,Net-(J3-Pin_1)*%
X172100000Y-56125000D03*
%TD*%
D13*
%TO.P,SB2,1,A*%
%TO.N,Net-(J3-Pin_1)*%
X166225000Y-55975000D03*
D14*
%TO.P,SB2,2,B*%
%TO.N,+3V0*%
X164775000Y-55975000D03*
%TD*%
D18*
%TO.P,SB12,1,A*%
%TO.N,T_SWO*%
X152275000Y-64200000D03*
D19*
%TO.P,SB12,2,B*%
%TO.N,PB3*%
X153725000Y-64200000D03*
%TD*%
D18*
%TO.P,SB15,1,A*%
%TO.N,Net-(SB15-A)*%
X157750000Y-65100000D03*
D19*
%TO.P,SB15,2,B*%
%TO.N,PC15*%
X159200000Y-65100000D03*
%TD*%
D24*
%TO.N,GND*%
X150720000Y-129230000D03*
X149910000Y-129190000D03*
X168310000Y-50160000D03*
X167480000Y-50180000D03*
X166660000Y-50170000D03*
X169880000Y-45150000D03*
X169050000Y-45160000D03*
X169140000Y-53290000D03*
X168320000Y-53270000D03*
X157030000Y-71430000D03*
X156230000Y-71410000D03*
X148870000Y-55140000D03*
X149710000Y-55150000D03*
X149320000Y-63610000D03*
X150170000Y-63600000D03*
X154290000Y-62670000D03*
X155110000Y-62640000D03*
X158800000Y-108740000D03*
X157900000Y-108760000D03*
X156970000Y-108810000D03*
X146220000Y-103900000D03*
X146580000Y-105990000D03*
X147180000Y-64610000D03*
X145160000Y-82120000D03*
X148175000Y-70400000D03*
X149925000Y-70325000D03*
X158150000Y-100350000D03*
X127525000Y-73250000D03*
X144650000Y-62540000D03*
X131550000Y-47725000D03*
X146090000Y-48540000D03*
X160625000Y-102025000D03*
X136100000Y-96560000D03*
X156210000Y-40260000D03*
X158300000Y-52975000D03*
X137520000Y-69520000D03*
X137830000Y-41140000D03*
X154025000Y-88454781D03*
X127700000Y-70350000D03*
X158925000Y-55975000D03*
X128500000Y-70340000D03*
X149000000Y-70360000D03*
X131550000Y-46900000D03*
X148520000Y-104170000D03*
X143600000Y-60800000D03*
X144925685Y-51310000D03*
X134200000Y-135255000D03*
X157800000Y-135290000D03*
X135550000Y-100670000D03*
X136230000Y-41170000D03*
X132600000Y-135245000D03*
X135920000Y-70370000D03*
X159750000Y-56000000D03*
X136610000Y-135250000D03*
X159400000Y-134440000D03*
X159125000Y-52950000D03*
X164825000Y-88825000D03*
X137125000Y-54700000D03*
X158210000Y-74630000D03*
X141850000Y-83560000D03*
X158975000Y-100350000D03*
X144310000Y-82110000D03*
X141986043Y-94261043D03*
X159420000Y-41060000D03*
X165575000Y-89400000D03*
X138630000Y-41160000D03*
X161460000Y-48900000D03*
X158620000Y-41070000D03*
X128350000Y-73200000D03*
X162250000Y-48900000D03*
X135000000Y-134415000D03*
X157000000Y-135270000D03*
X138210000Y-134400000D03*
X161000000Y-134440000D03*
X138200000Y-63600000D03*
X162170000Y-74940000D03*
X161000000Y-135260000D03*
X135475000Y-54750000D03*
X145420000Y-59824500D03*
X135800000Y-134405000D03*
X157000000Y-134450000D03*
X163040000Y-48910000D03*
X158600000Y-135270000D03*
X137410000Y-134410000D03*
X159000000Y-101175000D03*
X149080000Y-129170000D03*
X156210000Y-41080000D03*
X157010000Y-41070000D03*
X140230000Y-41130000D03*
X156200000Y-134460000D03*
X141840000Y-85300000D03*
X159825000Y-101175000D03*
X156200000Y-135280000D03*
X153814623Y-94126709D03*
X136720000Y-70350000D03*
X155410000Y-41100000D03*
X158600000Y-134450000D03*
X141850000Y-82570000D03*
X159800000Y-100350000D03*
X151675000Y-91725000D03*
X163325000Y-59800000D03*
X153520000Y-71350000D03*
X168230000Y-45150000D03*
X165832701Y-76007299D03*
X144850000Y-71180000D03*
X158950000Y-102000000D03*
X135000000Y-135235000D03*
X160200000Y-135280000D03*
X157820000Y-41090000D03*
X138630000Y-40340000D03*
X131550000Y-46075000D03*
X157650000Y-96950000D03*
X136300000Y-54700000D03*
X136610000Y-134430000D03*
X157010000Y-40250000D03*
X134650000Y-54750000D03*
X136720000Y-69530000D03*
X155925000Y-62600000D03*
X140230000Y-40310000D03*
X131800000Y-134445000D03*
X137410000Y-135230000D03*
X153370000Y-51530000D03*
X159400000Y-135260000D03*
X139430000Y-41140000D03*
X155410000Y-40280000D03*
X137030000Y-41150000D03*
X158100000Y-56000000D03*
X158125000Y-101175000D03*
X141400000Y-60800000D03*
X145350000Y-58200000D03*
X159420000Y-40240000D03*
X144375000Y-91725000D03*
X128500000Y-69520000D03*
X144350000Y-115650000D03*
X132600000Y-134425000D03*
X149800000Y-91725000D03*
X160200000Y-134460000D03*
X131800000Y-135265000D03*
X155400000Y-134480000D03*
X133400000Y-135235000D03*
X146360000Y-64600000D03*
X135310000Y-96580000D03*
X154025000Y-91400000D03*
X157380000Y-74640000D03*
X157820000Y-40270000D03*
X142600000Y-91740000D03*
X139430000Y-40320000D03*
X159950000Y-52950000D03*
X166675000Y-53325000D03*
X134540000Y-100720000D03*
X150740000Y-91710000D03*
X167500000Y-53325000D03*
X137030000Y-40330000D03*
X162260000Y-75860000D03*
X146170000Y-58200000D03*
X146230000Y-59824500D03*
X165870000Y-81000000D03*
X158620000Y-40250000D03*
X163100500Y-79949500D03*
X165420000Y-81720000D03*
X126900000Y-70370000D03*
X134200000Y-134435000D03*
X133400000Y-134415000D03*
X154025000Y-87473042D03*
X165590000Y-44880000D03*
X137830000Y-40320000D03*
X158125000Y-102000000D03*
X157800000Y-134470000D03*
X142790000Y-94230000D03*
X159800000Y-102000000D03*
X135920000Y-69550000D03*
X150150000Y-62780000D03*
X137520000Y-70340000D03*
X156500201Y-95424799D03*
X138210000Y-135220000D03*
X143480000Y-91730000D03*
X160650000Y-100300000D03*
X161800000Y-134430000D03*
X161800000Y-135250000D03*
X141840000Y-84440000D03*
X154025000Y-90418259D03*
X148810000Y-62850000D03*
X164970000Y-75950000D03*
X136230000Y-40350000D03*
X127700000Y-69530000D03*
X126900000Y-69550000D03*
X129175000Y-73175000D03*
X155400000Y-135300000D03*
X160650000Y-101200000D03*
X135800000Y-135225000D03*
X150740632Y-55032927D03*
X166260000Y-81740000D03*
X154025000Y-89436520D03*
X135010000Y-100040000D03*
%TO.N,+3V0*%
X164775000Y-51800000D03*
X142250000Y-52875000D03*
X153725000Y-52875000D03*
X140400000Y-58400000D03*
X136400000Y-42800000D03*
X146780000Y-49980000D03*
X156790000Y-51800000D03*
X155924500Y-51800000D03*
%TO.N,Net-(SB10-B)*%
X135800000Y-62000000D03*
%TO.N,LED_STLINK*%
X149260000Y-57960000D03*
X130800000Y-51200000D03*
%TO.N,AIN_1*%
X126750000Y-51875500D03*
X143600000Y-64600000D03*
%TO.N,Net-(U1-PA8)*%
X153325000Y-57750000D03*
%TO.N,T_SWDIO_IN*%
X158724500Y-60299598D03*
%TO.N,T_JTMS*%
X159200000Y-57800000D03*
X127865500Y-59370000D03*
X150821754Y-58672250D03*
%TO.N,T_JTCK*%
X127035000Y-54715000D03*
X160375000Y-60550000D03*
X150625500Y-59667096D03*
X146123875Y-62676125D03*
%TO.N,T_NRST*%
X128652701Y-66627299D03*
X150840000Y-66670000D03*
%TO.N,T_SWO*%
X127520000Y-64470000D03*
X150725500Y-56290000D03*
%TO.N,SWIM_IN*%
X146283265Y-57071468D03*
X147810000Y-56440000D03*
%TO.N,STM_JTMS*%
X153600000Y-55000000D03*
%TO.N,STM_JTCK*%
X150629700Y-54039600D03*
%TO.N,VDD*%
X139700000Y-95275000D03*
X154925000Y-95275000D03*
X164000000Y-85325500D03*
X143450000Y-73525500D03*
X155925000Y-73450000D03*
X156600000Y-103200000D03*
X130030747Y-87830247D03*
X131400000Y-102800000D03*
X150625000Y-73450000D03*
X164000000Y-81875500D03*
X133850000Y-71800000D03*
%TO.N,PA14*%
X174475000Y-58675000D03*
X175225000Y-67725000D03*
%TO.N,PA13*%
X176350500Y-67575000D03*
X151800000Y-93975000D03*
X174775000Y-63700000D03*
%TO.N,NRST*%
X152823187Y-94000000D03*
X147350000Y-82300000D03*
%TO.N,MCO*%
X160425000Y-71150000D03*
X158425000Y-62499500D03*
X148545757Y-77994520D03*
%TO.N,PB6*%
X154225901Y-86074585D03*
X166000000Y-87900000D03*
%TO.N,PB9*%
X166697531Y-84299500D03*
%TO.N,PE2*%
X155362299Y-79837299D03*
%TO.N,PE3*%
X155753077Y-80757244D03*
%TO.N,PE4*%
X153314035Y-82236597D03*
%TO.N,PE5*%
X152273649Y-82220414D03*
%TO.N,PE6*%
X151321452Y-81916561D03*
%TO.N,PC13*%
X153050000Y-77500000D03*
%TO.N,PC0*%
X145350000Y-74974500D03*
%TO.N,PC1*%
X145374811Y-75973693D03*
%TO.N,PC2*%
X145375500Y-76978350D03*
%TO.N,PC3*%
X145066660Y-77928940D03*
%TO.N,PA0*%
X142786967Y-81659073D03*
X138337701Y-77412299D03*
%TO.N,PA1*%
X138259231Y-78408717D03*
%TO.N,PA2*%
X138561551Y-79361401D03*
X131624500Y-107011366D03*
%TO.N,PA3*%
X138417654Y-80350491D03*
X130997292Y-106125000D03*
%TO.N,PD8*%
X137950000Y-99624500D03*
%TO.N,PD9*%
X138655712Y-100622449D03*
%TO.N,PD10*%
X139475000Y-101244637D03*
%TO.N,PD11*%
X140258004Y-101865853D03*
%TO.N,PD12*%
X144000000Y-94150000D03*
%TO.N,PD13*%
X143425000Y-103275000D03*
%TO.N,PD14*%
X145625000Y-101250000D03*
%TO.N,PD15*%
X145985410Y-94045127D03*
%TO.N,PC6*%
X148154859Y-94004858D03*
%TO.N,PC7*%
X149525000Y-94050000D03*
%TO.N,PC8*%
X151692670Y-100058741D03*
%TO.N,PC9*%
X152485293Y-99334490D03*
%TO.N,PA8*%
X152333305Y-98157903D03*
%TO.N,PA9*%
X151952314Y-97145055D03*
%TO.N,PA10*%
X150800000Y-93975000D03*
%TO.N,PH0*%
X164450000Y-71350000D03*
%TO.N,PH1*%
X164800000Y-68800000D03*
%TO.N,Net-(SB18-A)*%
X163950000Y-86824500D03*
%TO.N,Net-(SB19-B)*%
X133710000Y-88830000D03*
%TO.N,Net-(SB14-B)*%
X147549500Y-78075000D03*
%TO.N,Net-(SB15-A)*%
X156500000Y-65100000D03*
%TO.N,Net-(SB16-A)*%
X156425000Y-67600000D03*
%TO.N,Net-(SB20-B)*%
X133925000Y-102500000D03*
%TD*%
D25*
%TO.N,VDD*%
X156600000Y-97830000D02*
X156600000Y-103200000D01*
X154925000Y-95275000D02*
X154925000Y-96155000D01*
X154925000Y-96155000D02*
X156600000Y-97830000D01*
D26*
%TO.N,NRST*%
X155700000Y-97970000D02*
X155700000Y-104575000D01*
X152823187Y-94000000D02*
X152823187Y-95093187D01*
X152823187Y-95093187D02*
X155700000Y-97970000D01*
%TO.N,PA13*%
X154875000Y-108702208D02*
X168372792Y-122200000D01*
X151800000Y-94880000D02*
X154875000Y-97955000D01*
X154875000Y-97955000D02*
X154875000Y-108702208D01*
X168372792Y-122200000D02*
X172410000Y-122200000D01*
X172410000Y-122200000D02*
X173600000Y-123390000D01*
X151800000Y-93975000D02*
X151800000Y-94880000D01*
%TO.N,PA10*%
X154425000Y-98485000D02*
X154425000Y-108888604D01*
X154425000Y-108888604D02*
X168926396Y-123390000D01*
X168926396Y-123390000D02*
X171060000Y-123390000D01*
X150800000Y-94860000D02*
X154425000Y-98485000D01*
X150800000Y-93975000D02*
X150800000Y-94860000D01*
D25*
%TO.N,VDD*%
X171040000Y-98010000D02*
X156660000Y-98010000D01*
X171060000Y-97990000D02*
X171040000Y-98010000D01*
%TO.N,+3V0*%
X142250000Y-52875000D02*
X142250000Y-49990000D01*
X142240000Y-56560000D02*
X140400000Y-58400000D01*
X153725000Y-52875000D02*
X154800000Y-51800000D01*
X164775000Y-51800000D02*
X164725000Y-51850000D01*
X164725000Y-51850000D02*
X164725000Y-55975000D01*
X146790000Y-49990000D02*
X155040000Y-49990000D01*
X146780000Y-49980000D02*
X146790000Y-49990000D01*
X155040000Y-49990000D02*
X156790000Y-51740000D01*
X139570000Y-42800000D02*
X136400000Y-42800000D01*
X142260000Y-49980000D02*
X142250000Y-49990000D01*
X142250000Y-52875000D02*
X142240000Y-52885000D01*
X156790000Y-51740000D02*
X156790000Y-51800000D01*
X142240000Y-52885000D02*
X142240000Y-56560000D01*
X142250000Y-49990000D02*
X142250000Y-45480000D01*
X131265000Y-79475000D02*
X131100000Y-79310000D01*
X146780000Y-49980000D02*
X142260000Y-49980000D01*
X142250000Y-45480000D02*
X139570000Y-42800000D01*
X133800000Y-79475000D02*
X131265000Y-79475000D01*
X154800000Y-51800000D02*
X155924500Y-51800000D01*
D26*
%TO.N,Net-(SB10-B)*%
X134290000Y-62025000D02*
X135775000Y-62025000D01*
X135775000Y-62025000D02*
X135800000Y-62000000D01*
%TO.N,Net-(J3-Pin_1)*%
X171975000Y-56000000D02*
X172100000Y-56125000D01*
X166250000Y-56000000D02*
X169275000Y-56000000D01*
X166225000Y-55975000D02*
X166250000Y-56000000D01*
X169275000Y-56000000D02*
X171975000Y-56000000D01*
%TO.N,Net-(J3-Pin_2)*%
X166225000Y-58525000D02*
X166240000Y-58540000D01*
X171965000Y-58540000D02*
X169275000Y-58540000D01*
X166240000Y-58540000D02*
X169275000Y-58540000D01*
X172100000Y-58675000D02*
X171965000Y-58540000D01*
%TO.N,Net-(J3-Pin_3)*%
X169395000Y-61200000D02*
X169275000Y-61080000D01*
X172075000Y-61200000D02*
X169395000Y-61200000D01*
X172100000Y-61225000D02*
X172075000Y-61200000D01*
X166225000Y-61050000D02*
X166255000Y-61080000D01*
X166255000Y-61080000D02*
X169275000Y-61080000D01*
%TO.N,Net-(J3-Pin_4)*%
X169275000Y-63620000D02*
X171970000Y-63620000D01*
X166245000Y-63620000D02*
X169275000Y-63620000D01*
X171970000Y-63620000D02*
X172100000Y-63750000D01*
X166225000Y-63600000D02*
X166245000Y-63620000D01*
%TO.N,LED_STLINK*%
X130810000Y-51210000D02*
X130800000Y-51200000D01*
X130810000Y-56210000D02*
X130810000Y-51210000D01*
X148120000Y-59100000D02*
X140725305Y-59100000D01*
X149260000Y-57960000D02*
X148120000Y-59100000D01*
X140725305Y-59100000D02*
X140700305Y-59125000D01*
X133725000Y-59125000D02*
X130810000Y-56210000D01*
X140700305Y-59125000D02*
X133725000Y-59125000D01*
%TO.N,AIN_1*%
X126750000Y-53140000D02*
X129040000Y-55430000D01*
X129040000Y-62270000D02*
X131450000Y-64680000D01*
X126750000Y-51875500D02*
X126750000Y-53140000D01*
X143520000Y-64680000D02*
X143600000Y-64600000D01*
X129040000Y-55430000D02*
X129040000Y-62270000D01*
X131450000Y-64680000D02*
X143520000Y-64680000D01*
%TO.N,Net-(U1-PA8)*%
X156875000Y-57775000D02*
X157200000Y-57450000D01*
X153350000Y-57775000D02*
X156875000Y-57775000D01*
X153325000Y-57750000D02*
X153350000Y-57775000D01*
%TO.N,T_SWDIO_IN*%
X158724500Y-60299598D02*
X159525402Y-60299598D01*
X159525402Y-60299598D02*
X160400000Y-59425000D01*
%TO.N,T_JTMS*%
X159200000Y-57800000D02*
X160375000Y-57800000D01*
X161300000Y-62184620D02*
X161300000Y-58675000D01*
X131297208Y-65800000D02*
X150038604Y-65800000D01*
X164240380Y-65125000D02*
X161300000Y-62184620D01*
X151350000Y-64488604D02*
X151350000Y-59200496D01*
X161300000Y-58675000D02*
X160400000Y-57775000D01*
X128140000Y-59644500D02*
X128140000Y-62642792D01*
X160375000Y-57800000D02*
X160400000Y-57775000D01*
X128140000Y-62642792D02*
X131297208Y-65800000D01*
X175500000Y-64225000D02*
X174600000Y-65125000D01*
X174275000Y-61225000D02*
X175500000Y-62450000D01*
X151350000Y-59200496D02*
X150821754Y-58672250D01*
X174600000Y-65125000D02*
X164240380Y-65125000D01*
X175500000Y-62450000D02*
X175500000Y-64225000D01*
X127865500Y-59370000D02*
X128140000Y-59644500D01*
X173550000Y-61225000D02*
X174275000Y-61225000D01*
X150038604Y-65800000D02*
X151350000Y-64488604D01*
%TO.N,T_JTCK*%
X164053984Y-65575000D02*
X174900000Y-65575000D01*
X147680000Y-59710000D02*
X150582596Y-59710000D01*
X160400000Y-60575000D02*
X160400000Y-61921016D01*
X144000000Y-65350000D02*
X146123875Y-63226125D01*
X160400000Y-61921016D02*
X164053984Y-65575000D01*
X150582596Y-59710000D02*
X150625500Y-59667096D01*
X127035000Y-54715000D02*
X128590000Y-56270000D01*
X146123875Y-62676125D02*
X146123875Y-61266125D01*
X174900000Y-65575000D02*
X175950000Y-64525000D01*
X175950000Y-57400000D02*
X174675000Y-56125000D01*
X174675000Y-56125000D02*
X173550000Y-56125000D01*
X131483604Y-65350000D02*
X144000000Y-65350000D01*
X146123875Y-61266125D02*
X147680000Y-59710000D01*
X160375000Y-60550000D02*
X160400000Y-60575000D01*
X146123875Y-63226125D02*
X146123875Y-62676125D01*
X128590000Y-56270000D02*
X128590000Y-62456396D01*
X128590000Y-62456396D02*
X131483604Y-65350000D01*
X175950000Y-64525000D02*
X175950000Y-57400000D01*
%TO.N,T_NRST*%
X150970000Y-66800000D02*
X150840000Y-66670000D01*
X152275000Y-66800000D02*
X150970000Y-66800000D01*
X128725402Y-66700000D02*
X150810000Y-66700000D01*
X128652701Y-66627299D02*
X128725402Y-66700000D01*
X150810000Y-66700000D02*
X150840000Y-66670000D01*
%TO.N,T_SWO*%
X150225000Y-66250000D02*
X152275000Y-64200000D01*
X127520000Y-64470000D02*
X129300000Y-66250000D01*
X151800000Y-57280000D02*
X151800000Y-63725000D01*
X129300000Y-66250000D02*
X150225000Y-66250000D01*
X150810000Y-56290000D02*
X151800000Y-57280000D01*
X151800000Y-63725000D02*
X152275000Y-64200000D01*
X150725500Y-56290000D02*
X150810000Y-56290000D01*
%TO.N,SWIM_IN*%
X146914733Y-56440000D02*
X147810000Y-56440000D01*
X146283265Y-57071468D02*
X146914733Y-56440000D01*
%TO.N,STM_JTMS*%
X160958604Y-55020000D02*
X162250000Y-56311396D01*
X153620000Y-55020000D02*
X160958604Y-55020000D01*
X164050000Y-63600000D02*
X164775000Y-63600000D01*
X153600000Y-55000000D02*
X153620000Y-55020000D01*
X162250000Y-56311396D02*
X162250000Y-61800000D01*
X162250000Y-61800000D02*
X164050000Y-63600000D01*
%TO.N,STM_JTCK*%
X150629700Y-54039600D02*
X160614600Y-54039600D01*
X160614600Y-54039600D02*
X164775000Y-58200000D01*
X164775000Y-58200000D02*
X164775000Y-58525000D01*
D25*
%TO.N,VDD*%
X130030747Y-87830247D02*
X130025000Y-87824500D01*
X154925000Y-93965000D02*
X154925000Y-95275000D01*
X156600000Y-103200000D02*
X157200000Y-103800000D01*
X131400000Y-93850000D02*
X130000000Y-92450000D01*
X164000000Y-85325500D02*
X164000000Y-81875500D01*
X131400000Y-102800000D02*
X131400000Y-95625000D01*
X130000000Y-92450000D02*
X130000000Y-87860994D01*
X130025000Y-82525000D02*
X130700000Y-81850000D01*
X157200000Y-103800000D02*
X157200000Y-104575000D01*
X130000000Y-87860994D02*
X130030747Y-87830247D01*
X143525500Y-73450000D02*
X143450000Y-73525500D01*
X141724500Y-71800000D02*
X133850000Y-71800000D01*
X130025000Y-87824500D02*
X130025000Y-82525000D01*
X153935000Y-92975000D02*
X154925000Y-93965000D01*
X132875000Y-81850000D02*
X133750000Y-80975000D01*
X130700000Y-81850000D02*
X131100000Y-81850000D01*
X122750000Y-75130000D02*
X122750000Y-75350000D01*
X155925000Y-73450000D02*
X143525500Y-73450000D01*
X139700000Y-95275000D02*
X131400000Y-95275000D01*
X133850000Y-71800000D02*
X126080000Y-71800000D01*
X126080000Y-71800000D02*
X122750000Y-75130000D01*
X142000000Y-92975000D02*
X153935000Y-92975000D01*
X143450000Y-73525500D02*
X141724500Y-71800000D01*
X131100000Y-81850000D02*
X132875000Y-81850000D01*
X131400000Y-95625000D02*
X131400000Y-93850000D01*
X139700000Y-95275000D02*
X142000000Y-92975000D01*
D26*
%TO.N,PA14*%
X171060000Y-120850000D02*
X172335000Y-119575000D01*
X175850000Y-68350000D02*
X175225000Y-67725000D01*
X174475000Y-58675000D02*
X173550000Y-58675000D01*
X175850000Y-118275000D02*
X175850000Y-68350000D01*
X174550000Y-119575000D02*
X175850000Y-118275000D01*
X172335000Y-119575000D02*
X174550000Y-119575000D01*
%TO.N,PA13*%
X176400000Y-120590000D02*
X176400000Y-67624500D01*
X174725000Y-63750000D02*
X173550000Y-63750000D01*
X173600000Y-123390000D02*
X176400000Y-120590000D01*
X176400000Y-67624500D02*
X176350500Y-67575000D01*
X174775000Y-63700000D02*
X174725000Y-63750000D01*
%TO.N,NRST*%
X121450000Y-71825000D02*
X124975000Y-68300000D01*
X158348604Y-75625000D02*
X159025000Y-74948604D01*
X148825000Y-75625000D02*
X158348604Y-75625000D01*
X154450000Y-66800000D02*
X153725000Y-66800000D01*
X147350000Y-82300000D02*
X146824500Y-81774500D01*
X121450000Y-76370000D02*
X121450000Y-71825000D01*
X159025000Y-74948604D02*
X159025000Y-71375000D01*
X159025000Y-71375000D02*
X154450000Y-66800000D01*
X122750000Y-77670000D02*
X121450000Y-76370000D01*
X124975000Y-68300000D02*
X155950000Y-68300000D01*
X146824500Y-81774500D02*
X146824500Y-77625500D01*
X155950000Y-68300000D02*
X155975000Y-68325000D01*
X146824500Y-77625500D02*
X148825000Y-75625000D01*
%TO.N,PB3*%
X154325000Y-63600000D02*
X153725000Y-64200000D01*
X173600000Y-105610000D02*
X175300000Y-103910000D01*
X175300000Y-70300000D02*
X171025000Y-66025000D01*
X175300000Y-103910000D02*
X175300000Y-70300000D01*
X163867588Y-66025000D02*
X161442588Y-63600000D01*
X161442588Y-63600000D02*
X154325000Y-63600000D01*
X171025000Y-66025000D02*
X163867588Y-66025000D01*
%TO.N,MCO*%
X157200000Y-59100000D02*
X158000000Y-59900000D01*
X158000000Y-61325000D02*
X157200000Y-62125000D01*
X157574500Y-62499500D02*
X157200000Y-62125000D01*
X150075000Y-76525000D02*
X158885000Y-76525000D01*
X148545757Y-77994520D02*
X148605480Y-77994520D01*
X161675000Y-71150000D02*
X160425000Y-71150000D01*
X158425000Y-62499500D02*
X157574500Y-62499500D01*
X148605480Y-77994520D02*
X150075000Y-76525000D01*
X158000000Y-59900000D02*
X158000000Y-61325000D01*
X160425000Y-74985000D02*
X160425000Y-71150000D01*
X158885000Y-76525000D02*
X160425000Y-74985000D01*
%TO.N,PB6*%
X156051316Y-87900000D02*
X154225901Y-86074585D01*
X166000000Y-87900000D02*
X156051316Y-87900000D01*
X154250486Y-86050000D02*
X154225901Y-86074585D01*
%TO.N,PB9*%
X172300000Y-94150000D02*
X173600000Y-95450000D01*
X166972531Y-91272531D02*
X169850000Y-94150000D01*
X166972531Y-84574500D02*
X166972531Y-91272531D01*
X169850000Y-94150000D02*
X172300000Y-94150000D01*
X166697531Y-84299500D02*
X166972531Y-84574500D01*
%TO.N,PE2*%
X167872531Y-80806719D02*
X167872531Y-88447531D01*
X155362299Y-79837299D02*
X155362299Y-79812701D01*
X167872531Y-88447531D02*
X169795000Y-90370000D01*
X156400000Y-78775000D02*
X165840812Y-78775000D01*
X165840812Y-78775000D02*
X167872531Y-80806719D01*
X155362299Y-79812701D02*
X156400000Y-78775000D01*
X169795000Y-90370000D02*
X171060000Y-90370000D01*
%TO.N,PE3*%
X172295000Y-91675000D02*
X173600000Y-90370000D01*
X165575000Y-79225000D02*
X167422531Y-81072531D01*
X167422531Y-89972531D02*
X169125000Y-91675000D01*
X157325000Y-79225000D02*
X165575000Y-79225000D01*
X155753077Y-80757244D02*
X155792756Y-80757244D01*
X155792756Y-80757244D02*
X157325000Y-79225000D01*
X169125000Y-91675000D02*
X172295000Y-91675000D01*
X167422531Y-81072531D02*
X167422531Y-89972531D01*
%TO.N,PE4*%
X170205000Y-87830000D02*
X171060000Y-87830000D01*
X155850000Y-78325000D02*
X166027208Y-78325000D01*
X153314035Y-80860965D02*
X155850000Y-78325000D01*
X168322531Y-80620323D02*
X168322531Y-85947531D01*
X153314035Y-82236597D02*
X153314035Y-80860965D01*
X168322531Y-85947531D02*
X170205000Y-87830000D01*
X166027208Y-78325000D02*
X168322531Y-80620323D01*
%TO.N,PE5*%
X166213604Y-77875000D02*
X168772531Y-80433927D01*
X169800000Y-86550000D02*
X172320000Y-86550000D01*
X152273649Y-80801351D02*
X155200000Y-77875000D01*
X152273649Y-82220414D02*
X152273649Y-80801351D01*
X168772531Y-85522531D02*
X169800000Y-86550000D01*
X155200000Y-77875000D02*
X166213604Y-77875000D01*
X172320000Y-86550000D02*
X173600000Y-87830000D01*
X168772531Y-80433927D02*
X168772531Y-85522531D01*
%TO.N,PE6*%
X151823649Y-81414364D02*
X151823649Y-80451351D01*
X169222531Y-83647531D02*
X170865000Y-85290000D01*
X166400000Y-77425000D02*
X169222531Y-80247531D01*
X170865000Y-85290000D02*
X171060000Y-85290000D01*
X151823649Y-80451351D02*
X154850000Y-77425000D01*
X169222531Y-80247531D02*
X169222531Y-83647531D01*
X154850000Y-77425000D02*
X166400000Y-77425000D01*
X151321452Y-81916561D02*
X151823649Y-81414364D01*
%TO.N,PC13*%
X169672531Y-80047531D02*
X169672531Y-83247531D01*
X169672531Y-83247531D02*
X170450000Y-84025000D01*
X166600000Y-76975000D02*
X169672531Y-80047531D01*
X170450000Y-84025000D02*
X172335000Y-84025000D01*
X153575000Y-76975000D02*
X166600000Y-76975000D01*
X172335000Y-84025000D02*
X173600000Y-85290000D01*
X153050000Y-77500000D02*
X153575000Y-76975000D01*
%TO.N,PC0*%
X128100000Y-74275000D02*
X122750000Y-79625000D01*
X145350000Y-74974500D02*
X144650500Y-74275000D01*
X122750000Y-79625000D02*
X122750000Y-80210000D01*
X144650500Y-74275000D02*
X128100000Y-74275000D01*
%TO.N,PC1*%
X123450000Y-81500000D02*
X121525000Y-81500000D01*
X120235000Y-80210000D02*
X120210000Y-80210000D01*
X124250000Y-78825000D02*
X124250000Y-80700000D01*
X124250000Y-80700000D02*
X123450000Y-81500000D01*
X121525000Y-81500000D02*
X120235000Y-80210000D01*
X128350000Y-74725000D02*
X124250000Y-78825000D01*
X145323888Y-75973693D02*
X144075195Y-74725000D01*
X144075195Y-74725000D02*
X128350000Y-74725000D01*
X145374811Y-75973693D02*
X145323888Y-75973693D01*
%TO.N,PC2*%
X124700000Y-79011396D02*
X124700000Y-82050000D01*
X143551520Y-75175000D02*
X128536396Y-75175000D01*
X128536396Y-75175000D02*
X124700000Y-79011396D01*
X145354870Y-76978350D02*
X143551520Y-75175000D01*
X145375500Y-76978350D02*
X145354870Y-76978350D01*
X124000000Y-82750000D02*
X122750000Y-82750000D01*
X124700000Y-82050000D02*
X124000000Y-82750000D01*
%TO.N,PC3*%
X121460000Y-84000000D02*
X120210000Y-82750000D01*
X123725000Y-84000000D02*
X121460000Y-84000000D01*
X128722792Y-75625000D02*
X125150000Y-79197792D01*
X125150000Y-82575000D02*
X123725000Y-84000000D01*
X142850000Y-75625000D02*
X128722792Y-75625000D01*
X125150000Y-79197792D02*
X125150000Y-82575000D01*
X145066660Y-77928940D02*
X145066660Y-77841660D01*
X145066660Y-77841660D02*
X142850000Y-75625000D01*
%TO.N,PA0*%
X129775000Y-77875000D02*
X134575000Y-77875000D01*
X127400000Y-80250000D02*
X129775000Y-77875000D01*
X123735000Y-85290000D02*
X122750000Y-85290000D01*
X142786967Y-81659073D02*
X142800000Y-81672106D01*
X127400000Y-100575000D02*
X127400000Y-80250000D01*
X138337701Y-77412299D02*
X137000402Y-76075000D01*
X129775000Y-102950000D02*
X127400000Y-100575000D01*
X125600000Y-83425000D02*
X123735000Y-85290000D01*
X134575000Y-77875000D02*
X138359073Y-81659073D01*
X128909188Y-76075000D02*
X125600000Y-79384188D01*
X125600000Y-79384188D02*
X125600000Y-83425000D01*
X138359073Y-81659073D02*
X142786967Y-81659073D01*
X137000402Y-76075000D02*
X128909188Y-76075000D01*
%TO.N,PA1*%
X121445000Y-86525000D02*
X120210000Y-85290000D01*
X129095584Y-76525000D02*
X126050000Y-79570584D01*
X136375000Y-76525000D02*
X129095584Y-76525000D01*
X138259231Y-78408717D02*
X138258717Y-78408717D01*
X123600000Y-86525000D02*
X121445000Y-86525000D01*
X138258717Y-78408717D02*
X136375000Y-76525000D01*
X126050000Y-84075000D02*
X123600000Y-86525000D01*
X126050000Y-79570584D02*
X126050000Y-84075000D01*
%TO.N,PA2*%
X126500000Y-85350000D02*
X124000000Y-87850000D01*
X119600000Y-106875000D02*
X118750000Y-106025000D01*
X124000000Y-87850000D02*
X122770000Y-87850000D01*
X131488134Y-106875000D02*
X119600000Y-106875000D01*
X119600000Y-86575000D02*
X120858604Y-86575000D01*
X129281980Y-76975000D02*
X126500000Y-79756980D01*
X122770000Y-87850000D02*
X122750000Y-87830000D01*
X126500000Y-79756980D02*
X126500000Y-85350000D01*
X135675000Y-76975000D02*
X129281980Y-76975000D01*
X118750000Y-106025000D02*
X118750000Y-87425000D01*
X131624500Y-107011366D02*
X131488134Y-106875000D01*
X138561551Y-79361401D02*
X138061401Y-79361401D01*
X138061401Y-79361401D02*
X135675000Y-76975000D01*
X122113604Y-87830000D02*
X122750000Y-87830000D01*
X118750000Y-87425000D02*
X119600000Y-86575000D01*
X120858604Y-86575000D02*
X122113604Y-87830000D01*
%TO.N,PA3*%
X126950000Y-89100000D02*
X121480000Y-89100000D01*
X126950000Y-103550000D02*
X126950000Y-85775000D01*
X135025000Y-77425000D02*
X129468376Y-77425000D01*
X129468376Y-77425000D02*
X126950000Y-79943376D01*
X121480000Y-89100000D02*
X120210000Y-87830000D01*
X138417654Y-80350491D02*
X137950491Y-80350491D01*
X126950000Y-79943376D02*
X126950000Y-85775000D01*
X137950491Y-80350491D02*
X135025000Y-77425000D01*
X129525000Y-106125000D02*
X126950000Y-103550000D01*
X130997292Y-106125000D02*
X129525000Y-106125000D01*
%TO.N,PD8*%
X137950000Y-99624500D02*
X137930712Y-99643788D01*
X137930712Y-99643788D02*
X137930712Y-102764516D01*
X125000000Y-118600000D02*
X122750000Y-120850000D01*
X125000000Y-115695228D02*
X125000000Y-118600000D01*
X137930712Y-102764516D02*
X125000000Y-115695228D01*
%TO.N,PD9*%
X125450000Y-120053604D02*
X123403604Y-122100000D01*
X123403604Y-122100000D02*
X121500000Y-122100000D01*
X138655712Y-102675912D02*
X125450000Y-115881624D01*
X121500000Y-122100000D02*
X120210000Y-123390000D01*
X125450000Y-115881624D02*
X125450000Y-120053604D01*
X138655712Y-100622449D02*
X138655712Y-102675912D01*
%TO.N,PD10*%
X139475000Y-101244637D02*
X139475000Y-102493020D01*
X125900000Y-120240000D02*
X122750000Y-123390000D01*
X139475000Y-102493020D02*
X125900000Y-116068020D01*
X125900000Y-116068020D02*
X125900000Y-120240000D01*
%TO.N,PD11*%
X140258004Y-102346412D02*
X126350000Y-116254416D01*
X123443604Y-124600000D02*
X121540000Y-124600000D01*
X121540000Y-124600000D02*
X120210000Y-125930000D01*
X140258004Y-101865853D02*
X140258004Y-102346412D01*
X126350000Y-121693604D02*
X123443604Y-124600000D01*
X126350000Y-116254416D02*
X126350000Y-121693604D01*
%TO.N,PD12*%
X144000000Y-94150000D02*
X143975000Y-94175000D01*
X126800000Y-116440812D02*
X126800000Y-121880000D01*
X143975000Y-94175000D02*
X143975000Y-99265812D01*
X126800000Y-121880000D02*
X122750000Y-125930000D01*
X143975000Y-99265812D02*
X126800000Y-116440812D01*
%TO.N,PD13*%
X123360000Y-127200000D02*
X121480000Y-127200000D01*
X143425000Y-103275000D02*
X140602208Y-103275000D01*
X127250000Y-116627208D02*
X127250000Y-123310000D01*
X140602208Y-103275000D02*
X127250000Y-116627208D01*
X127250000Y-123310000D02*
X123360000Y-127200000D01*
X121480000Y-127200000D02*
X120210000Y-128470000D01*
%TO.N,PD14*%
X127700000Y-116813604D02*
X127700000Y-123496396D01*
X145625000Y-102100305D02*
X143725305Y-104000000D01*
X145625000Y-101250000D02*
X145625000Y-102100305D01*
X122750000Y-128446396D02*
X122750000Y-128470000D01*
X143725305Y-104000000D02*
X140513604Y-104000000D01*
X127700000Y-123496396D02*
X122750000Y-128446396D01*
X140513604Y-104000000D02*
X127700000Y-116813604D01*
%TO.N,PD15*%
X145985410Y-94045127D02*
X146350000Y-94409717D01*
X123490000Y-129760000D02*
X121460000Y-129760000D01*
X128150000Y-125100000D02*
X123490000Y-129760000D01*
X146350000Y-94409717D02*
X146350000Y-102011701D01*
X121460000Y-129760000D02*
X120210000Y-131010000D01*
X143782107Y-104579594D02*
X140570406Y-104579594D01*
X128150000Y-117000000D02*
X128150000Y-125100000D01*
X146350000Y-102011701D02*
X143782107Y-104579594D01*
X140570406Y-104579594D02*
X128150000Y-117000000D01*
%TO.N,PC6*%
X169435000Y-129375000D02*
X171060000Y-131000000D01*
X148727314Y-94577313D02*
X148727314Y-98755086D01*
X148154859Y-94004858D02*
X148727314Y-94577313D01*
X148727314Y-98755086D02*
X151725000Y-101752772D01*
X151725000Y-101752772D02*
X151725000Y-110407792D01*
X171060000Y-131000000D02*
X171060000Y-131010000D01*
X151725000Y-110407792D02*
X169435000Y-128117792D01*
X169435000Y-128117792D02*
X169435000Y-129375000D01*
%TO.N,PC7*%
X151392365Y-100783741D02*
X151408741Y-100783741D01*
X149525000Y-94050000D02*
X149525000Y-98916376D01*
X169885000Y-129188604D02*
X170486396Y-129790000D01*
X149525000Y-98916376D02*
X151392365Y-100783741D01*
X152175000Y-110221396D02*
X169885000Y-127931396D01*
X170486396Y-129790000D02*
X172380000Y-129790000D01*
X152175000Y-101550000D02*
X152175000Y-110221396D01*
X151408741Y-100783741D02*
X152175000Y-101550000D01*
X172380000Y-129790000D02*
X173600000Y-131010000D01*
X169885000Y-127931396D02*
X169885000Y-129188604D01*
%TO.N,PC8*%
X152625000Y-110035000D02*
X171060000Y-128470000D01*
X171060000Y-128470000D02*
X171060000Y-128228097D01*
X152625000Y-100991071D02*
X152625000Y-110035000D01*
X151692670Y-100058741D02*
X152625000Y-100991071D01*
%TO.N,PC9*%
X170540000Y-127170000D02*
X172300000Y-127170000D01*
X153075000Y-109705000D02*
X170540000Y-127170000D01*
X153075000Y-99924197D02*
X153075000Y-109705000D01*
X152485293Y-99334490D02*
X153075000Y-99924197D01*
X172300000Y-127170000D02*
X173600000Y-128470000D01*
%TO.N,PA8*%
X152333305Y-98157903D02*
X153525000Y-99349598D01*
X153525000Y-99349598D02*
X153525000Y-109275000D01*
X153525000Y-109275000D02*
X170180000Y-125930000D01*
X170180000Y-125930000D02*
X171060000Y-125930000D01*
%TO.N,PA9*%
X155179149Y-110279149D02*
X155625000Y-110725000D01*
X169655000Y-124755000D02*
X172425000Y-124755000D01*
X153975000Y-98775000D02*
X153975000Y-109075000D01*
X151952314Y-97145055D02*
X152345055Y-97145055D01*
X172425000Y-124755000D02*
X173600000Y-125930000D01*
X155625000Y-110725000D02*
X169655000Y-124755000D01*
X153975000Y-109075000D02*
X155625000Y-110725000D01*
X152345055Y-97145055D02*
X153975000Y-98775000D01*
%TO.N,PH0*%
X163125000Y-71150000D02*
X164250000Y-71150000D01*
X164250000Y-71150000D02*
X164450000Y-71350000D01*
%TO.N,PH1*%
X163125000Y-68600000D02*
X164600000Y-68600000D01*
X164600000Y-68600000D02*
X164800000Y-68800000D01*
%TO.N,PC14*%
X172350000Y-68650000D02*
X172350000Y-81460000D01*
X172350000Y-81460000D02*
X171060000Y-82750000D01*
X159175000Y-67600000D02*
X159250000Y-67525000D01*
X171225000Y-67525000D02*
X172350000Y-68650000D01*
X159250000Y-67525000D02*
X171225000Y-67525000D01*
%TO.N,PC15*%
X170936396Y-66600000D02*
X174850000Y-70513604D01*
X174850000Y-81500000D02*
X173600000Y-82750000D01*
X159200000Y-65100000D02*
X160700000Y-66600000D01*
X174850000Y-70513604D02*
X174850000Y-81500000D01*
X160700000Y-66600000D02*
X170936396Y-66600000D01*
%TO.N,Net-(SB18-A)*%
X163950000Y-86824500D02*
X163149500Y-86824500D01*
X162550000Y-86225000D02*
X162550000Y-85325000D01*
X163149500Y-86824500D02*
X162550000Y-86225000D01*
%TO.N,Net-(SB19-B)*%
X133710000Y-88830000D02*
X132820000Y-89720000D01*
X132820000Y-89720000D02*
X132270000Y-89720000D01*
%TO.N,Net-(SB14-B)*%
X161600000Y-68525000D02*
X161675000Y-68600000D01*
X147549500Y-78075000D02*
X147549500Y-77550500D01*
X147549500Y-77550500D02*
X149025000Y-76075000D01*
X159575000Y-75035000D02*
X159575000Y-69800000D01*
X149025000Y-76075000D02*
X158535000Y-76075000D01*
X158535000Y-76075000D02*
X159575000Y-75035000D01*
X159575000Y-69800000D02*
X160850000Y-68525000D01*
X160850000Y-68525000D02*
X161600000Y-68525000D01*
%TO.N,Net-(SB15-A)*%
X156500000Y-65100000D02*
X157750000Y-65100000D01*
%TO.N,Net-(SB16-A)*%
X157725000Y-67600000D02*
X156425000Y-67600000D01*
%TO.N,Net-(SB20-B)*%
X132025000Y-104400000D02*
X133925000Y-102500000D01*
X129775000Y-104400000D02*
X132025000Y-104400000D01*
%TD*%
%TA.AperFunction,Conductor*%
%TO.N,GND*%
G36*
X169978571Y-98824511D02*
G01*
X170012924Y-98854638D01*
X170013833Y-98853730D01*
X170111714Y-98951610D01*
X170188599Y-99028495D01*
X170374160Y-99158426D01*
X170413024Y-99202743D01*
X170427035Y-99260000D01*
X170413024Y-99317257D01*
X170374160Y-99361574D01*
X170220666Y-99469052D01*
X170188595Y-99491508D01*
X170021505Y-99658598D01*
X169885965Y-99852170D01*
X169786097Y-100066336D01*
X169724936Y-100294592D01*
X169704340Y-100530000D01*
X169724936Y-100765407D01*
X169754664Y-100876353D01*
X169786097Y-100993663D01*
X169885965Y-101207830D01*
X170021505Y-101401401D01*
X170188599Y-101568495D01*
X170374160Y-101698426D01*
X170413024Y-101742743D01*
X170427035Y-101800000D01*
X170413024Y-101857257D01*
X170374160Y-101901574D01*
X170279603Y-101967784D01*
X170188595Y-102031508D01*
X170021505Y-102198598D01*
X169885965Y-102392170D01*
X169786097Y-102606336D01*
X169724936Y-102834592D01*
X169704340Y-103069999D01*
X169724936Y-103305407D01*
X169768356Y-103467452D01*
X169786097Y-103533663D01*
X169885965Y-103747830D01*
X170021505Y-103941401D01*
X170188599Y-104108495D01*
X170374160Y-104238426D01*
X170413024Y-104282743D01*
X170427035Y-104340000D01*
X170413024Y-104397257D01*
X170374159Y-104441575D01*
X170188595Y-104571508D01*
X170021505Y-104738598D01*
X169885965Y-104932170D01*
X169786097Y-105146336D01*
X169724936Y-105374592D01*
X169704340Y-105610000D01*
X169724936Y-105845407D01*
X169757160Y-105965667D01*
X169786097Y-106073663D01*
X169885965Y-106287830D01*
X170021505Y-106481401D01*
X170188599Y-106648495D01*
X170374160Y-106778426D01*
X170413024Y-106822743D01*
X170427035Y-106880000D01*
X170413024Y-106937257D01*
X170374159Y-106981575D01*
X170188595Y-107111508D01*
X170021505Y-107278598D01*
X169885965Y-107472170D01*
X169786097Y-107686336D01*
X169724936Y-107914592D01*
X169704340Y-108150000D01*
X169724936Y-108385407D01*
X169750131Y-108479436D01*
X169786097Y-108613663D01*
X169885965Y-108827830D01*
X170021505Y-109021401D01*
X170188599Y-109188495D01*
X170374160Y-109318426D01*
X170413024Y-109362743D01*
X170427035Y-109420000D01*
X170413024Y-109477257D01*
X170374159Y-109521575D01*
X170188595Y-109651508D01*
X170021505Y-109818598D01*
X169885965Y-110012170D01*
X169786097Y-110226336D01*
X169724936Y-110454592D01*
X169704340Y-110689999D01*
X169724936Y-110925407D01*
X169769709Y-111092502D01*
X169786097Y-111153663D01*
X169885965Y-111367830D01*
X170021505Y-111561401D01*
X170188599Y-111728495D01*
X170374160Y-111858426D01*
X170413024Y-111902743D01*
X170427035Y-111960000D01*
X170413024Y-112017257D01*
X170374159Y-112061575D01*
X170188595Y-112191508D01*
X170021505Y-112358598D01*
X169885965Y-112552170D01*
X169786097Y-112766336D01*
X169724936Y-112994592D01*
X169704340Y-113230000D01*
X169724936Y-113465407D01*
X169769709Y-113632501D01*
X169786097Y-113693663D01*
X169885965Y-113907830D01*
X170021505Y-114101401D01*
X170188599Y-114268495D01*
X170374160Y-114398426D01*
X170413024Y-114442743D01*
X170427035Y-114500000D01*
X170413024Y-114557257D01*
X170374159Y-114601575D01*
X170188595Y-114731508D01*
X170021505Y-114898598D01*
X169885965Y-115092170D01*
X169786097Y-115306336D01*
X169724936Y-115534592D01*
X169704340Y-115769999D01*
X169724936Y-116005407D01*
X169769709Y-116172502D01*
X169786097Y-116233663D01*
X169885965Y-116447830D01*
X170021505Y-116641401D01*
X170188599Y-116808495D01*
X170374160Y-116938426D01*
X170413024Y-116982743D01*
X170427035Y-117040000D01*
X170413024Y-117097257D01*
X170374158Y-117141575D01*
X170225496Y-117245670D01*
X170188595Y-117271508D01*
X170021505Y-117438598D01*
X169885965Y-117632170D01*
X169786097Y-117846336D01*
X169724936Y-118074592D01*
X169704340Y-118310000D01*
X169724936Y-118545407D01*
X169769709Y-118712502D01*
X169786097Y-118773663D01*
X169885965Y-118987830D01*
X170021505Y-119181401D01*
X170188599Y-119348495D01*
X170374160Y-119478426D01*
X170413024Y-119522743D01*
X170427035Y-119580000D01*
X170413024Y-119637257D01*
X170374159Y-119681575D01*
X170188595Y-119811508D01*
X170021505Y-119978598D01*
X169885965Y-120172170D01*
X169786097Y-120386336D01*
X169724936Y-120614592D01*
X169704340Y-120849999D01*
X169724936Y-121085407D01*
X169756026Y-121201435D01*
X169786097Y-121313663D01*
X169825469Y-121398097D01*
X169836822Y-121458610D01*
X169817668Y-121517125D01*
X169772730Y-121559214D01*
X169713087Y-121574500D01*
X168683245Y-121574500D01*
X168635792Y-121565061D01*
X168595564Y-121538181D01*
X155536819Y-108479436D01*
X155509939Y-108439208D01*
X155500500Y-108391755D01*
X155500500Y-105954647D01*
X155517113Y-105892647D01*
X155562500Y-105847260D01*
X155624500Y-105830647D01*
X156200003Y-105830647D01*
X156338187Y-105813585D01*
X156338618Y-105817077D01*
X156371532Y-105813207D01*
X156500000Y-105830647D01*
X157650000Y-105830647D01*
X157650001Y-105830647D01*
X157665226Y-105828642D01*
X157780871Y-105813417D01*
X157902824Y-105762903D01*
X158007546Y-105682546D01*
X158087903Y-105577824D01*
X158138417Y-105455871D01*
X158155647Y-105325000D01*
X158155647Y-103825000D01*
X158138417Y-103694129D01*
X158087903Y-103572177D01*
X158058350Y-103533663D01*
X158007545Y-103467452D01*
X157893645Y-103380053D01*
X157872186Y-103358992D01*
X157858225Y-103341486D01*
X157850180Y-103330148D01*
X157829816Y-103297738D01*
X157702262Y-103170184D01*
X157478737Y-102946658D01*
X157448487Y-102897295D01*
X157427180Y-102831719D01*
X157427179Y-102831718D01*
X157427179Y-102831716D01*
X157417112Y-102814280D01*
X157400500Y-102752281D01*
X157400500Y-98934500D01*
X157417113Y-98872500D01*
X157462500Y-98827113D01*
X157524500Y-98810500D01*
X169921313Y-98810500D01*
X169978571Y-98824511D01*
G37*
%TD.AperFunction*%
%TA.AperFunction,Conductor*%
G36*
X143060464Y-93789015D02*
G01*
X143104487Y-93826614D01*
X143126642Y-93880101D01*
X143122100Y-93937817D01*
X143114326Y-93961740D01*
X143094540Y-94150000D01*
X143114326Y-94338257D01*
X143172820Y-94518284D01*
X143267464Y-94682213D01*
X143267467Y-94682216D01*
X143317651Y-94737951D01*
X143341264Y-94776484D01*
X143349500Y-94820922D01*
X143349500Y-98955360D01*
X143340061Y-99002813D01*
X143313181Y-99043041D01*
X141098117Y-101258103D01*
X141040434Y-101290739D01*
X140974182Y-101289004D01*
X140918286Y-101253394D01*
X140863874Y-101192963D01*
X140710734Y-101081701D01*
X140537806Y-101004708D01*
X140399525Y-100975316D01*
X140342334Y-100946176D01*
X140307375Y-100892343D01*
X140302179Y-100876353D01*
X140207533Y-100712420D01*
X140080870Y-100571747D01*
X139927730Y-100460485D01*
X139754802Y-100383492D01*
X139577884Y-100345887D01*
X139520692Y-100316746D01*
X139485733Y-100262913D01*
X139482891Y-100254165D01*
X139426629Y-100156716D01*
X139388245Y-100090232D01*
X139261582Y-99949559D01*
X139108442Y-99838297D01*
X138927604Y-99757782D01*
X138885889Y-99727474D01*
X138860108Y-99682819D01*
X138854720Y-99631538D01*
X138855460Y-99624500D01*
X138835674Y-99436244D01*
X138779677Y-99263903D01*
X138777179Y-99256215D01*
X138682533Y-99092283D01*
X138555870Y-98951610D01*
X138402730Y-98840348D01*
X138229802Y-98763355D01*
X138044648Y-98724000D01*
X138044646Y-98724000D01*
X137855354Y-98724000D01*
X137855352Y-98724000D01*
X137670197Y-98763355D01*
X137497269Y-98840348D01*
X137344129Y-98951610D01*
X137217466Y-99092283D01*
X137122820Y-99256215D01*
X137064326Y-99436242D01*
X137044540Y-99624499D01*
X137064326Y-99812757D01*
X137122820Y-99992784D01*
X137217466Y-100156716D01*
X137273362Y-100218794D01*
X137296976Y-100257328D01*
X137305212Y-100301766D01*
X137305212Y-102454063D01*
X137295773Y-102501516D01*
X137268893Y-102541744D01*
X132739400Y-107071235D01*
X132679085Y-107104496D01*
X132610327Y-107100441D01*
X132554339Y-107060321D01*
X132528399Y-106996518D01*
X132510174Y-106823110D01*
X132453438Y-106648495D01*
X132451679Y-106643081D01*
X132357033Y-106479149D01*
X132230370Y-106338476D01*
X132077234Y-106227216D01*
X131998422Y-106192127D01*
X131970856Y-106179854D01*
X131920976Y-106139460D01*
X131897973Y-106079538D01*
X131882966Y-105936744D01*
X131840293Y-105805411D01*
X131824471Y-105756715D01*
X131729825Y-105592783D01*
X131603162Y-105452110D01*
X131450026Y-105340850D01*
X131349117Y-105295922D01*
X131277095Y-105263856D01*
X131277092Y-105263855D01*
X131274677Y-105262780D01*
X131223290Y-105220268D01*
X131201358Y-105157286D01*
X131215224Y-105092051D01*
X131260878Y-105043435D01*
X131325113Y-105025500D01*
X131942256Y-105025500D01*
X131962762Y-105027764D01*
X131965665Y-105027672D01*
X131965667Y-105027673D01*
X132032872Y-105025561D01*
X132036768Y-105025500D01*
X132064349Y-105025500D01*
X132064350Y-105025500D01*
X132068319Y-105024998D01*
X132079965Y-105024080D01*
X132123627Y-105022709D01*
X132142859Y-105017120D01*
X132161918Y-105013174D01*
X132168196Y-105012381D01*
X132181792Y-105010664D01*
X132222407Y-104994582D01*
X132233444Y-104990803D01*
X132275390Y-104978618D01*
X132292629Y-104968422D01*
X132310102Y-104959862D01*
X132328732Y-104952486D01*
X132364064Y-104926814D01*
X132373830Y-104920400D01*
X132411418Y-104898171D01*
X132411417Y-104898171D01*
X132411420Y-104898170D01*
X132425585Y-104884004D01*
X132440373Y-104871373D01*
X132456587Y-104859594D01*
X132484438Y-104825926D01*
X132492279Y-104817309D01*
X133872770Y-103436819D01*
X133912999Y-103409939D01*
X133960452Y-103400500D01*
X134019648Y-103400500D01*
X134156491Y-103371413D01*
X134204803Y-103361144D01*
X134377730Y-103284151D01*
X134377729Y-103284151D01*
X134530870Y-103172889D01*
X134657533Y-103032216D01*
X134752179Y-102868284D01*
X134779075Y-102785507D01*
X134810674Y-102688256D01*
X134830460Y-102500000D01*
X134810674Y-102311744D01*
X134773910Y-102198597D01*
X134752179Y-102131715D01*
X134657533Y-101967783D01*
X134530870Y-101827110D01*
X134377730Y-101715848D01*
X134204802Y-101638855D01*
X134019648Y-101599500D01*
X134019646Y-101599500D01*
X133830354Y-101599500D01*
X133830352Y-101599500D01*
X133645197Y-101638855D01*
X133472269Y-101715848D01*
X133319129Y-101827110D01*
X133192466Y-101967783D01*
X133097820Y-102131715D01*
X133039326Y-102311742D01*
X133021679Y-102479649D01*
X133010279Y-102520070D01*
X132986039Y-102554368D01*
X132501979Y-103038428D01*
X132450138Y-103069455D01*
X132389788Y-103072301D01*
X132335257Y-103046290D01*
X132299490Y-102997599D01*
X132290977Y-102937791D01*
X132305460Y-102800000D01*
X132285674Y-102611744D01*
X132227179Y-102431716D01*
X132217112Y-102414280D01*
X132200500Y-102352282D01*
X132200500Y-96199500D01*
X132217113Y-96137500D01*
X132262500Y-96092113D01*
X132324500Y-96075500D01*
X139257633Y-96075500D01*
X139308069Y-96086221D01*
X139420197Y-96136144D01*
X139605352Y-96175500D01*
X139605354Y-96175500D01*
X139794646Y-96175500D01*
X139794648Y-96175500D01*
X139973423Y-96137500D01*
X139979803Y-96136144D01*
X140152730Y-96059151D01*
X140305871Y-95947888D01*
X140432533Y-95807216D01*
X140527179Y-95643284D01*
X140548487Y-95577702D01*
X140578734Y-95528342D01*
X142295258Y-93811819D01*
X142335487Y-93784939D01*
X142382940Y-93775500D01*
X143004169Y-93775500D01*
X143060464Y-93789015D01*
G37*
%TD.AperFunction*%
%TA.AperFunction,Conductor*%
G36*
X121537257Y-98636975D02*
G01*
X121581573Y-98675839D01*
X121711505Y-98861401D01*
X121878599Y-99028495D01*
X122064160Y-99158426D01*
X122103024Y-99202743D01*
X122117035Y-99260000D01*
X122103024Y-99317257D01*
X122064160Y-99361574D01*
X121910666Y-99469052D01*
X121878595Y-99491508D01*
X121711505Y-99658598D01*
X121575965Y-99852170D01*
X121476097Y-100066336D01*
X121414936Y-100294592D01*
X121394340Y-100529999D01*
X121414936Y-100765407D01*
X121444664Y-100876353D01*
X121476097Y-100993663D01*
X121575965Y-101207830D01*
X121711505Y-101401401D01*
X121878599Y-101568495D01*
X122064160Y-101698426D01*
X122103024Y-101742743D01*
X122117035Y-101800000D01*
X122103024Y-101857257D01*
X122064160Y-101901574D01*
X121969603Y-101967784D01*
X121878595Y-102031508D01*
X121711508Y-102198595D01*
X121711507Y-102198597D01*
X121711505Y-102198599D01*
X121679860Y-102243793D01*
X121581574Y-102384160D01*
X121537255Y-102423026D01*
X121479999Y-102437036D01*
X121422742Y-102423025D01*
X121378426Y-102384161D01*
X121248495Y-102198599D01*
X121081401Y-102031505D01*
X120887830Y-101895965D01*
X120673663Y-101796097D01*
X120592617Y-101774381D01*
X120445407Y-101734936D01*
X120210000Y-101714340D01*
X119974592Y-101734936D01*
X119746336Y-101796097D01*
X119551905Y-101886763D01*
X119491390Y-101898116D01*
X119432875Y-101878962D01*
X119390786Y-101834024D01*
X119375500Y-101774381D01*
X119375500Y-99285619D01*
X119390786Y-99225976D01*
X119432875Y-99181038D01*
X119491390Y-99161884D01*
X119551902Y-99173236D01*
X119746337Y-99263903D01*
X119974592Y-99325063D01*
X120210000Y-99345659D01*
X120445408Y-99325063D01*
X120673663Y-99263903D01*
X120887830Y-99164035D01*
X121081401Y-99028495D01*
X121248495Y-98861401D01*
X121378426Y-98675839D01*
X121422743Y-98636975D01*
X121480000Y-98622964D01*
X121537257Y-98636975D01*
G37*
%TD.AperFunction*%
%TA.AperFunction,Conductor*%
G36*
X142587001Y-76259939D02*
G01*
X142627229Y-76286819D01*
X144129663Y-77789253D01*
X144158869Y-77835541D01*
X144165303Y-77889893D01*
X144163673Y-77905407D01*
X144161200Y-77928940D01*
X144172656Y-78037936D01*
X144180986Y-78117197D01*
X144239480Y-78297224D01*
X144334126Y-78461156D01*
X144460789Y-78601829D01*
X144613929Y-78713091D01*
X144786857Y-78790084D01*
X144972012Y-78829440D01*
X144972014Y-78829440D01*
X145161306Y-78829440D01*
X145161308Y-78829440D01*
X145284743Y-78803202D01*
X145346463Y-78790084D01*
X145519390Y-78713091D01*
X145595499Y-78657795D01*
X145672530Y-78601829D01*
X145672698Y-78601643D01*
X145799193Y-78461156D01*
X145893839Y-78297224D01*
X145952334Y-78117196D01*
X145952334Y-78117194D01*
X145956361Y-78104801D01*
X145958393Y-78105461D01*
X145973425Y-78065259D01*
X146020642Y-78024932D01*
X146081490Y-78012553D01*
X146140710Y-78031225D01*
X146183453Y-78076267D01*
X146199000Y-78136383D01*
X146199000Y-81691756D01*
X146196735Y-81712262D01*
X146198939Y-81782373D01*
X146199000Y-81786268D01*
X146199000Y-81813849D01*
X146199503Y-81817834D01*
X146200418Y-81829467D01*
X146201790Y-81873126D01*
X146207379Y-81892360D01*
X146211325Y-81911416D01*
X146213835Y-81931292D01*
X146229914Y-81971904D01*
X146233697Y-81982951D01*
X146245882Y-82024891D01*
X146256080Y-82042135D01*
X146264636Y-82059600D01*
X146272014Y-82078232D01*
X146272015Y-82078233D01*
X146297680Y-82113559D01*
X146304093Y-82123322D01*
X146326326Y-82160916D01*
X146326329Y-82160919D01*
X146326330Y-82160920D01*
X146340495Y-82175085D01*
X146353127Y-82189875D01*
X146355616Y-82193301D01*
X146364906Y-82206087D01*
X146398557Y-82233925D01*
X146407198Y-82241788D01*
X146411038Y-82245628D01*
X146435277Y-82279925D01*
X146446678Y-82320347D01*
X146464326Y-82488257D01*
X146522820Y-82668284D01*
X146617466Y-82832216D01*
X146744129Y-82972889D01*
X146897269Y-83084151D01*
X147070197Y-83161144D01*
X147255352Y-83200500D01*
X147255354Y-83200500D01*
X147444646Y-83200500D01*
X147444648Y-83200500D01*
X147568084Y-83174262D01*
X147629803Y-83161144D01*
X147802730Y-83084151D01*
X147889997Y-83020748D01*
X147955870Y-82972889D01*
X148082533Y-82832216D01*
X148177179Y-82668284D01*
X148202794Y-82589449D01*
X148235674Y-82488256D01*
X148255460Y-82300000D01*
X148235674Y-82111744D01*
X148190237Y-81971904D01*
X148177179Y-81931715D01*
X148082533Y-81767783D01*
X147955870Y-81627110D01*
X147802730Y-81515848D01*
X147629806Y-81438857D01*
X147629804Y-81438856D01*
X147629803Y-81438856D01*
X147548216Y-81421514D01*
X147497659Y-81397939D01*
X147462550Y-81354583D01*
X147450000Y-81300225D01*
X147450000Y-79099500D01*
X147466613Y-79037500D01*
X147512000Y-78992113D01*
X147574000Y-78975500D01*
X147644148Y-78975500D01*
X147776926Y-78947277D01*
X147829303Y-78936144D01*
X148002230Y-78859151D01*
X148047494Y-78826264D01*
X148107415Y-78803262D01*
X148170812Y-78813303D01*
X148227235Y-78838425D01*
X148265954Y-78855664D01*
X148451109Y-78895020D01*
X148451111Y-78895020D01*
X148640403Y-78895020D01*
X148640405Y-78895020D01*
X148763840Y-78868782D01*
X148825560Y-78855664D01*
X148998487Y-78778671D01*
X148998487Y-78778670D01*
X149151627Y-78667409D01*
X149278290Y-78526736D01*
X149372936Y-78362804D01*
X149431431Y-78182777D01*
X149436307Y-78136383D01*
X149442063Y-78081603D01*
X149453463Y-78041183D01*
X149477700Y-78006888D01*
X150297771Y-77186819D01*
X150338000Y-77159939D01*
X150385453Y-77150500D01*
X152046046Y-77150500D01*
X152102340Y-77164015D01*
X152146363Y-77201613D01*
X152168519Y-77255099D01*
X152165087Y-77298718D01*
X152165689Y-77298782D01*
X152164326Y-77311741D01*
X152164326Y-77311744D01*
X152149837Y-77449604D01*
X152144540Y-77499999D01*
X152164326Y-77688257D01*
X152222820Y-77868284D01*
X152317466Y-78032216D01*
X152444129Y-78172889D01*
X152597269Y-78284151D01*
X152782104Y-78366446D01*
X152780715Y-78369564D01*
X152818839Y-78389296D01*
X152853572Y-78445135D01*
X152854868Y-78510882D01*
X152822363Y-78568046D01*
X151439857Y-79950550D01*
X151423759Y-79963447D01*
X151375745Y-80014576D01*
X151373040Y-80017368D01*
X151353523Y-80036885D01*
X151351064Y-80040056D01*
X151343491Y-80048923D01*
X151313584Y-80080771D01*
X151303934Y-80098325D01*
X151293258Y-80114579D01*
X151280975Y-80130414D01*
X151263624Y-80170509D01*
X151258487Y-80180995D01*
X151237451Y-80219258D01*
X151232470Y-80238660D01*
X151226169Y-80257062D01*
X151218210Y-80275453D01*
X151211377Y-80318593D01*
X151209009Y-80330025D01*
X151198149Y-80372329D01*
X151198149Y-80392367D01*
X151196622Y-80411766D01*
X151193489Y-80431545D01*
X151197599Y-80475026D01*
X151198149Y-80486695D01*
X151198149Y-80921739D01*
X151185599Y-80976097D01*
X151150490Y-81019453D01*
X151099931Y-81043028D01*
X151041649Y-81055417D01*
X151041648Y-81055417D01*
X151041645Y-81055418D01*
X150868721Y-81132409D01*
X150715581Y-81243671D01*
X150588918Y-81384344D01*
X150494272Y-81548276D01*
X150435778Y-81728303D01*
X150416322Y-81913417D01*
X150415992Y-81916561D01*
X150417540Y-81931292D01*
X150435778Y-82104818D01*
X150494272Y-82284845D01*
X150588918Y-82448777D01*
X150715581Y-82589450D01*
X150868721Y-82700712D01*
X151041649Y-82777705D01*
X151226804Y-82817061D01*
X151226806Y-82817061D01*
X151416098Y-82817061D01*
X151499702Y-82799290D01*
X151563799Y-82802649D01*
X151617631Y-82837608D01*
X151667778Y-82893303D01*
X151820918Y-83004565D01*
X151993846Y-83081558D01*
X152179001Y-83120914D01*
X152179003Y-83120914D01*
X152368295Y-83120914D01*
X152368297Y-83120914D01*
X152491732Y-83094676D01*
X152553452Y-83081558D01*
X152726379Y-83004565D01*
X152726380Y-83004563D01*
X152730825Y-83002585D01*
X152794224Y-82992543D01*
X152854146Y-83015547D01*
X152861305Y-83020748D01*
X152943954Y-83057546D01*
X153034232Y-83097741D01*
X153219387Y-83137097D01*
X153219389Y-83137097D01*
X153408681Y-83137097D01*
X153408683Y-83137097D01*
X153532118Y-83110859D01*
X153593838Y-83097741D01*
X153766765Y-83020748D01*
X153832639Y-82972888D01*
X153919905Y-82909486D01*
X153984625Y-82837608D01*
X154046568Y-82768813D01*
X154141214Y-82604881D01*
X154199709Y-82424853D01*
X154219495Y-82236597D01*
X154199709Y-82048341D01*
X154156891Y-81916561D01*
X154141214Y-81868312D01*
X154046570Y-81704383D01*
X154014189Y-81668421D01*
X153971382Y-81620879D01*
X153947771Y-81582348D01*
X153939535Y-81537910D01*
X153939535Y-81171417D01*
X153948974Y-81123964D01*
X153975854Y-81083736D01*
X154114090Y-80945500D01*
X154565945Y-80493643D01*
X154623626Y-80461009D01*
X154689880Y-80462745D01*
X154745774Y-80498355D01*
X154756428Y-80510187D01*
X154807352Y-80547185D01*
X154847746Y-80597066D01*
X154857788Y-80660463D01*
X154847617Y-80757242D01*
X154867403Y-80945501D01*
X154925897Y-81125528D01*
X155020543Y-81289460D01*
X155147206Y-81430133D01*
X155300346Y-81541395D01*
X155473274Y-81618388D01*
X155658429Y-81657744D01*
X155658431Y-81657744D01*
X155847723Y-81657744D01*
X155847725Y-81657744D01*
X155991846Y-81627110D01*
X156032880Y-81618388D01*
X156205807Y-81541395D01*
X156210604Y-81537910D01*
X156358947Y-81430133D01*
X156437147Y-81343284D01*
X156485610Y-81289460D01*
X156580256Y-81125528D01*
X156582034Y-81120055D01*
X156638751Y-80945501D01*
X156646168Y-80874922D01*
X156651737Y-80821929D01*
X156663137Y-80781509D01*
X156687374Y-80747214D01*
X157547771Y-79886819D01*
X157588000Y-79859939D01*
X157635453Y-79850500D01*
X165264548Y-79850500D01*
X165312001Y-79859939D01*
X165352229Y-79886819D01*
X166760712Y-81295303D01*
X166787592Y-81335531D01*
X166797031Y-81382984D01*
X166797031Y-83275000D01*
X166780418Y-83337000D01*
X166735031Y-83382387D01*
X166673031Y-83399000D01*
X166602883Y-83399000D01*
X166417728Y-83438355D01*
X166244800Y-83515348D01*
X166091660Y-83626610D01*
X165964997Y-83767283D01*
X165870351Y-83931215D01*
X165811857Y-84111242D01*
X165792071Y-84299500D01*
X165811857Y-84487757D01*
X165870351Y-84667784D01*
X165964997Y-84831716D01*
X166091660Y-84972389D01*
X166244800Y-85083651D01*
X166273467Y-85096415D01*
X166312229Y-85123557D01*
X166338002Y-85163243D01*
X166347031Y-85209694D01*
X166347031Y-86900018D01*
X166334952Y-86953401D01*
X166301067Y-86996384D01*
X166251979Y-87020592D01*
X166197251Y-87021308D01*
X166094649Y-86999500D01*
X166094646Y-86999500D01*
X165905354Y-86999500D01*
X165905352Y-86999500D01*
X165720197Y-87038855D01*
X165547272Y-87115847D01*
X165452766Y-87184510D01*
X165394129Y-87227112D01*
X165388401Y-87233473D01*
X165346688Y-87263780D01*
X165296253Y-87274500D01*
X164921299Y-87274500D01*
X164865004Y-87260985D01*
X164820981Y-87223385D01*
X164798826Y-87169898D01*
X164803368Y-87112182D01*
X164806006Y-87104063D01*
X164835674Y-87012756D01*
X164855460Y-86824500D01*
X164835674Y-86636244D01*
X164777179Y-86456216D01*
X164777179Y-86456215D01*
X164682533Y-86292283D01*
X164584392Y-86183288D01*
X164554425Y-86121846D01*
X164561572Y-86053860D01*
X164597265Y-86008178D01*
X164597150Y-86008074D01*
X164598639Y-86006420D01*
X164603659Y-85999994D01*
X164605871Y-85998388D01*
X164732533Y-85857716D01*
X164827179Y-85693784D01*
X164885674Y-85513756D01*
X164905460Y-85325500D01*
X164885674Y-85137244D01*
X164827179Y-84957216D01*
X164817112Y-84939780D01*
X164800500Y-84877782D01*
X164800500Y-82323218D01*
X164817113Y-82261218D01*
X164818429Y-82258939D01*
X164827179Y-82243784D01*
X164885674Y-82063756D01*
X164905460Y-81875500D01*
X164885674Y-81687244D01*
X164842988Y-81555871D01*
X164827179Y-81507215D01*
X164732533Y-81343283D01*
X164605870Y-81202610D01*
X164452730Y-81091348D01*
X164279802Y-81014355D01*
X164094648Y-80975000D01*
X164094646Y-80975000D01*
X163905354Y-80975000D01*
X163905352Y-80975000D01*
X163720197Y-81014355D01*
X163547269Y-81091348D01*
X163394129Y-81202610D01*
X163267466Y-81343283D01*
X163172820Y-81507215D01*
X163114326Y-81687242D01*
X163094789Y-81873127D01*
X163094540Y-81875500D01*
X163098856Y-81916561D01*
X163114326Y-82063757D01*
X163132047Y-82118296D01*
X163172821Y-82243784D01*
X163181570Y-82258938D01*
X163182887Y-82261218D01*
X163199500Y-82323218D01*
X163199500Y-83947640D01*
X163180081Y-84014265D01*
X163127905Y-84060022D01*
X163059315Y-84070579D01*
X163050002Y-84069353D01*
X163050000Y-84069353D01*
X162050000Y-84069353D01*
X162049998Y-84069353D01*
X161927012Y-84084538D01*
X161811406Y-84129183D01*
X161710132Y-84200608D01*
X161629276Y-84294516D01*
X161129276Y-85044517D01*
X161075496Y-85150284D01*
X161047845Y-85265673D01*
X161047845Y-85384327D01*
X161075496Y-85499715D01*
X161129276Y-85605482D01*
X161629276Y-86355483D01*
X161710132Y-86449391D01*
X161710134Y-86449393D01*
X161811406Y-86520816D01*
X161927010Y-86565461D01*
X161974654Y-86571343D01*
X162013849Y-86582975D01*
X162047134Y-86606724D01*
X162051829Y-86611419D01*
X162051830Y-86611420D01*
X162065994Y-86625584D01*
X162078627Y-86640375D01*
X162090406Y-86656587D01*
X162124058Y-86684426D01*
X162132699Y-86692289D01*
X162503228Y-87062819D01*
X162533478Y-87112182D01*
X162538020Y-87169898D01*
X162515865Y-87223385D01*
X162471842Y-87260985D01*
X162415547Y-87274500D01*
X156361768Y-87274500D01*
X156314315Y-87265061D01*
X156274087Y-87238181D01*
X155164861Y-86128954D01*
X155140621Y-86094656D01*
X155129222Y-86054240D01*
X155111575Y-85886329D01*
X155053080Y-85706301D01*
X155053080Y-85706300D01*
X154958434Y-85542368D01*
X154831771Y-85401695D01*
X154678631Y-85290433D01*
X154505703Y-85213440D01*
X154320549Y-85174085D01*
X154320547Y-85174085D01*
X154131255Y-85174085D01*
X154131253Y-85174085D01*
X153946098Y-85213440D01*
X153773170Y-85290433D01*
X153620030Y-85401695D01*
X153493367Y-85542368D01*
X153398721Y-85706300D01*
X153340227Y-85886327D01*
X153320441Y-86074585D01*
X153340227Y-86262842D01*
X153398721Y-86442869D01*
X153493367Y-86606801D01*
X153620030Y-86747474D01*
X153773170Y-86858736D01*
X153946098Y-86935729D01*
X154131253Y-86975085D01*
X154131255Y-86975085D01*
X154190449Y-86975085D01*
X154237902Y-86984524D01*
X154278130Y-87011404D01*
X155550513Y-88283787D01*
X155563414Y-88299889D01*
X155565528Y-88301874D01*
X155565530Y-88301877D01*
X155573748Y-88309594D01*
X155614556Y-88347916D01*
X155617352Y-88350626D01*
X155636846Y-88370120D01*
X155640020Y-88372582D01*
X155648884Y-88380153D01*
X155680734Y-88410062D01*
X155691230Y-88415832D01*
X155698290Y-88419714D01*
X155714547Y-88430392D01*
X155730380Y-88442674D01*
X155746501Y-88449649D01*
X155770472Y-88460023D01*
X155780959Y-88465160D01*
X155819224Y-88486197D01*
X155838632Y-88491180D01*
X155857026Y-88497478D01*
X155875421Y-88505438D01*
X155918570Y-88512271D01*
X155929996Y-88514638D01*
X155934681Y-88515841D01*
X155972296Y-88525500D01*
X155972297Y-88525500D01*
X155992332Y-88525500D01*
X156011729Y-88527026D01*
X156031512Y-88530160D01*
X156074990Y-88526050D01*
X156086660Y-88525500D01*
X165296253Y-88525500D01*
X165346688Y-88536220D01*
X165388401Y-88566526D01*
X165394129Y-88572888D01*
X165547270Y-88684151D01*
X165547271Y-88684151D01*
X165547272Y-88684152D01*
X165720197Y-88761144D01*
X165905352Y-88800500D01*
X165905354Y-88800500D01*
X166094646Y-88800500D01*
X166094649Y-88800500D01*
X166197251Y-88778692D01*
X166251979Y-88779408D01*
X166301067Y-88803616D01*
X166334952Y-88846599D01*
X166347031Y-88899982D01*
X166347031Y-91189787D01*
X166344766Y-91210293D01*
X166346970Y-91280404D01*
X166347031Y-91284299D01*
X166347031Y-91311880D01*
X166347534Y-91315865D01*
X166348449Y-91327498D01*
X166349821Y-91371157D01*
X166355410Y-91390391D01*
X166359356Y-91409447D01*
X166361866Y-91429323D01*
X166377945Y-91469935D01*
X166381728Y-91480982D01*
X166393913Y-91522922D01*
X166404111Y-91540166D01*
X166412667Y-91557631D01*
X166420045Y-91576263D01*
X166420046Y-91576264D01*
X166445711Y-91611590D01*
X166452124Y-91621353D01*
X166474357Y-91658947D01*
X166474360Y-91658950D01*
X166474361Y-91658951D01*
X166488526Y-91673116D01*
X166501158Y-91687906D01*
X166512937Y-91704118D01*
X166546589Y-91731957D01*
X166555230Y-91739820D01*
X169349197Y-94533787D01*
X169362098Y-94549889D01*
X169364212Y-94551874D01*
X169364214Y-94551877D01*
X169392669Y-94578598D01*
X169413240Y-94597916D01*
X169416036Y-94600626D01*
X169435530Y-94620120D01*
X169438704Y-94622582D01*
X169447568Y-94630153D01*
X169479418Y-94660062D01*
X169489914Y-94665832D01*
X169496974Y-94669714D01*
X169513231Y-94680392D01*
X169529064Y-94692674D01*
X169542960Y-94698687D01*
X169569156Y-94710023D01*
X169579643Y-94715160D01*
X169617908Y-94736197D01*
X169637316Y-94741180D01*
X169655710Y-94747478D01*
X169674105Y-94755438D01*
X169716132Y-94762093D01*
X169768740Y-94783616D01*
X169806219Y-94826352D01*
X169820691Y-94881321D01*
X169809116Y-94936972D01*
X169786097Y-94986336D01*
X169724936Y-95214592D01*
X169704340Y-95450000D01*
X169724936Y-95685407D01*
X169748155Y-95772060D01*
X169786097Y-95913663D01*
X169885965Y-96127830D01*
X170021505Y-96321401D01*
X170188599Y-96488495D01*
X170374160Y-96618426D01*
X170413024Y-96662743D01*
X170427035Y-96720000D01*
X170413024Y-96777257D01*
X170374159Y-96821575D01*
X170188595Y-96951508D01*
X170021505Y-97118598D01*
X169994880Y-97156623D01*
X169950562Y-97195489D01*
X169893305Y-97209500D01*
X157162939Y-97209500D01*
X157115486Y-97200061D01*
X157075258Y-97173181D01*
X155761819Y-95859741D01*
X155734939Y-95819513D01*
X155725500Y-95772060D01*
X155725500Y-95722718D01*
X155742113Y-95660718D01*
X155752179Y-95643284D01*
X155810674Y-95463256D01*
X155830460Y-95275000D01*
X155810674Y-95086744D01*
X155752179Y-94906716D01*
X155742112Y-94889280D01*
X155725500Y-94827282D01*
X155725500Y-93874804D01*
X155722229Y-93860475D01*
X155716980Y-93837481D01*
X155714655Y-93823800D01*
X155710368Y-93785745D01*
X155697724Y-93749610D01*
X155693875Y-93736249D01*
X155687604Y-93708776D01*
X155685359Y-93698939D01*
X155668754Y-93664458D01*
X155663433Y-93651614D01*
X155650789Y-93615478D01*
X155630418Y-93583058D01*
X155623698Y-93570899D01*
X155607091Y-93536413D01*
X155607090Y-93536412D01*
X155607090Y-93536411D01*
X155583225Y-93506486D01*
X155575177Y-93495143D01*
X155554816Y-93462738D01*
X155513491Y-93421413D01*
X155427262Y-93335184D01*
X154469252Y-92377174D01*
X154437262Y-92345184D01*
X154404851Y-92324818D01*
X154393510Y-92316772D01*
X154363586Y-92292908D01*
X154329095Y-92276298D01*
X154316933Y-92269576D01*
X154301327Y-92259770D01*
X154284520Y-92249209D01*
X154248398Y-92236570D01*
X154235553Y-92231250D01*
X154201058Y-92214638D01*
X154163736Y-92206119D01*
X154150380Y-92202272D01*
X154114252Y-92189631D01*
X154076219Y-92185345D01*
X154062518Y-92183017D01*
X154025196Y-92174500D01*
X154025194Y-92174500D01*
X153979954Y-92174500D01*
X142090194Y-92174500D01*
X141909806Y-92174500D01*
X141909803Y-92174500D01*
X141872480Y-92183017D01*
X141858780Y-92185345D01*
X141820743Y-92189631D01*
X141784623Y-92202270D01*
X141771268Y-92206118D01*
X141733938Y-92214639D01*
X141699453Y-92231246D01*
X141686613Y-92236565D01*
X141650475Y-92249211D01*
X141618064Y-92269576D01*
X141605899Y-92276300D01*
X141571413Y-92292908D01*
X141541489Y-92316772D01*
X141530151Y-92324817D01*
X141497735Y-92345185D01*
X141465749Y-92377173D01*
X141465748Y-92377174D01*
X139452432Y-94390488D01*
X139415187Y-94416086D01*
X139308068Y-94463779D01*
X139257634Y-94474500D01*
X132324500Y-94474500D01*
X132262500Y-94457887D01*
X132217113Y-94412500D01*
X132200500Y-94350500D01*
X132200500Y-93759807D01*
X132195123Y-93736249D01*
X132191981Y-93722481D01*
X132189653Y-93708776D01*
X132185368Y-93670745D01*
X132172725Y-93634611D01*
X132168876Y-93621250D01*
X132160360Y-93583939D01*
X132143753Y-93549455D01*
X132138432Y-93536608D01*
X132125790Y-93500480D01*
X132105423Y-93468066D01*
X132098697Y-93455895D01*
X132082092Y-93421414D01*
X132058225Y-93391486D01*
X132050177Y-93380143D01*
X132046105Y-93373663D01*
X132029816Y-93347738D01*
X131902262Y-93220184D01*
X130836818Y-92154740D01*
X130809939Y-92114513D01*
X130800500Y-92067060D01*
X130800500Y-90567235D01*
X130818616Y-90502701D01*
X130867672Y-90457023D01*
X130933333Y-90443550D01*
X130996413Y-90466217D01*
X131038480Y-90518402D01*
X131086224Y-90629841D01*
X131171193Y-90736078D01*
X131281403Y-90815815D01*
X131311908Y-90827174D01*
X131408890Y-90863288D01*
X131544415Y-90875057D01*
X131678173Y-90850271D01*
X131800482Y-90790724D01*
X132201218Y-90523566D01*
X132245851Y-90505115D01*
X132294149Y-90505115D01*
X132338781Y-90523566D01*
X132461544Y-90605408D01*
X132739519Y-90790725D01*
X132791055Y-90815815D01*
X132861827Y-90850271D01*
X132995585Y-90875057D01*
X133131110Y-90863288D01*
X133258594Y-90815816D01*
X133258594Y-90815815D01*
X133258596Y-90815815D01*
X133330951Y-90763466D01*
X133368808Y-90736077D01*
X133453776Y-90629841D01*
X133507348Y-90504799D01*
X133525647Y-90370000D01*
X133525647Y-89950306D01*
X133535086Y-89902853D01*
X133561966Y-89862624D01*
X133657773Y-89766818D01*
X133698002Y-89739939D01*
X133745454Y-89730500D01*
X133804648Y-89730500D01*
X133928083Y-89704262D01*
X133989803Y-89691144D01*
X134162730Y-89614151D01*
X134250999Y-89550020D01*
X134315870Y-89502889D01*
X134442533Y-89362216D01*
X134537179Y-89198284D01*
X134537932Y-89195965D01*
X134595674Y-89018256D01*
X134615460Y-88830000D01*
X134595674Y-88641744D01*
X134557904Y-88525500D01*
X134537179Y-88461715D01*
X134442533Y-88297783D01*
X134315870Y-88157110D01*
X134162730Y-88045848D01*
X133989802Y-87968855D01*
X133804648Y-87929500D01*
X133804646Y-87929500D01*
X133615354Y-87929500D01*
X133615352Y-87929500D01*
X133430197Y-87968855D01*
X133257269Y-88045848D01*
X133104129Y-88157110D01*
X132977466Y-88297783D01*
X132882820Y-88461715D01*
X132828573Y-88628671D01*
X132802792Y-88673325D01*
X132761077Y-88703633D01*
X132710642Y-88714353D01*
X131519999Y-88714353D01*
X131389127Y-88731583D01*
X131267177Y-88782096D01*
X131162453Y-88862453D01*
X131082096Y-88967177D01*
X131039061Y-89071075D01*
X130997386Y-89123941D01*
X130934229Y-89147241D01*
X130868205Y-89134108D01*
X130818773Y-89088413D01*
X130800500Y-89023623D01*
X130800500Y-88331222D01*
X130817113Y-88269222D01*
X130857926Y-88198531D01*
X130871384Y-88157112D01*
X130916421Y-88018503D01*
X130936207Y-87830247D01*
X130916421Y-87641991D01*
X130857926Y-87461963D01*
X130857926Y-87461962D01*
X130842113Y-87434573D01*
X130825500Y-87372573D01*
X130825500Y-83324500D01*
X130842113Y-83262500D01*
X130887500Y-83217113D01*
X130949500Y-83200500D01*
X131997843Y-83200499D01*
X131997872Y-83200499D01*
X132057483Y-83194091D01*
X132192331Y-83143796D01*
X132307546Y-83057546D01*
X132393796Y-82942331D01*
X132444091Y-82807483D01*
X132449062Y-82761243D01*
X132469661Y-82704997D01*
X132514224Y-82664968D01*
X132572352Y-82650500D01*
X132965195Y-82650500D01*
X132976009Y-82648031D01*
X133002520Y-82641980D01*
X133016197Y-82639655D01*
X133054255Y-82635368D01*
X133090399Y-82622720D01*
X133103721Y-82618882D01*
X133141061Y-82610360D01*
X133175549Y-82593750D01*
X133188391Y-82588431D01*
X133224522Y-82575789D01*
X133256932Y-82555423D01*
X133269103Y-82548697D01*
X133303587Y-82532091D01*
X133333515Y-82508222D01*
X133344834Y-82500190D01*
X133377262Y-82479816D01*
X133504816Y-82352262D01*
X133504816Y-82352261D01*
X133890111Y-81966966D01*
X133930340Y-81940086D01*
X133977793Y-81930647D01*
X134550001Y-81930647D01*
X134565226Y-81928642D01*
X134680871Y-81913417D01*
X134802824Y-81862903D01*
X134907546Y-81782546D01*
X134987903Y-81677824D01*
X135038417Y-81555871D01*
X135053823Y-81438856D01*
X135055647Y-81425001D01*
X135055647Y-80275001D01*
X135053212Y-80257062D01*
X135038207Y-80146532D01*
X135042077Y-80113618D01*
X135038585Y-80113187D01*
X135055647Y-79975003D01*
X135055647Y-79539599D01*
X135069162Y-79483304D01*
X135106762Y-79439281D01*
X135160249Y-79417126D01*
X135217965Y-79421668D01*
X135267327Y-79451917D01*
X136572651Y-80757242D01*
X137858269Y-82042860D01*
X137871169Y-82058961D01*
X137922296Y-82106973D01*
X137925092Y-82109683D01*
X137944602Y-82129193D01*
X137947784Y-82131661D01*
X137956644Y-82139228D01*
X137960728Y-82143064D01*
X137988491Y-82169135D01*
X138006043Y-82178784D01*
X138022311Y-82189470D01*
X138038137Y-82201746D01*
X138078219Y-82219090D01*
X138088706Y-82224228D01*
X138126980Y-82245270D01*
X138135483Y-82247452D01*
X138146381Y-82250251D01*
X138164786Y-82256551D01*
X138183177Y-82264510D01*
X138226323Y-82271343D01*
X138237741Y-82273708D01*
X138280054Y-82284573D01*
X138300089Y-82284573D01*
X138319488Y-82286100D01*
X138339269Y-82289233D01*
X138382747Y-82285123D01*
X138394417Y-82284573D01*
X142083220Y-82284573D01*
X142133655Y-82295293D01*
X142175368Y-82325599D01*
X142181096Y-82331961D01*
X142334237Y-82443224D01*
X142334238Y-82443224D01*
X142334239Y-82443225D01*
X142507164Y-82520217D01*
X142692319Y-82559573D01*
X142692321Y-82559573D01*
X142881613Y-82559573D01*
X142881615Y-82559573D01*
X143010907Y-82532091D01*
X143066770Y-82520217D01*
X143239697Y-82443224D01*
X143264983Y-82424853D01*
X143392837Y-82331962D01*
X143398565Y-82325601D01*
X143519500Y-82191289D01*
X143614146Y-82027357D01*
X143672641Y-81847329D01*
X143692427Y-81659073D01*
X143672641Y-81470817D01*
X143631203Y-81343284D01*
X143614146Y-81290788D01*
X143519500Y-81126856D01*
X143392837Y-80986183D01*
X143239697Y-80874921D01*
X143066769Y-80797928D01*
X142881615Y-80758573D01*
X142881613Y-80758573D01*
X142692321Y-80758573D01*
X142692319Y-80758573D01*
X142507164Y-80797928D01*
X142334239Y-80874920D01*
X142237094Y-80945500D01*
X142181096Y-80986185D01*
X142175368Y-80992546D01*
X142133655Y-81022853D01*
X142083220Y-81033573D01*
X139277859Y-81033573D01*
X139215859Y-81016960D01*
X139170472Y-80971573D01*
X139153859Y-80909573D01*
X139170472Y-80847573D01*
X139244833Y-80718775D01*
X139251250Y-80699025D01*
X139303328Y-80538747D01*
X139323114Y-80350491D01*
X139303328Y-80162235D01*
X139258862Y-80025385D01*
X139255504Y-79961288D01*
X139284646Y-79904098D01*
X139294084Y-79893617D01*
X139388730Y-79729685D01*
X139447225Y-79549657D01*
X139467011Y-79361401D01*
X139447225Y-79173145D01*
X139388730Y-78993117D01*
X139388730Y-78993116D01*
X139294084Y-78829184D01*
X139175584Y-78697577D01*
X139149803Y-78652923D01*
X139144413Y-78601643D01*
X139144903Y-78596978D01*
X139144905Y-78596973D01*
X139164691Y-78408717D01*
X139144905Y-78220461D01*
X139086410Y-78040433D01*
X139086409Y-78040431D01*
X139082382Y-78028037D01*
X139083041Y-78027822D01*
X139069815Y-77978467D01*
X139086426Y-77916467D01*
X139164880Y-77780583D01*
X139223375Y-77600555D01*
X139243161Y-77412299D01*
X139223375Y-77224043D01*
X139164880Y-77044015D01*
X139164880Y-77044014D01*
X139070234Y-76880082D01*
X138943571Y-76739409D01*
X138790431Y-76628147D01*
X138617503Y-76551154D01*
X138432349Y-76511799D01*
X138432347Y-76511799D01*
X138373154Y-76511799D01*
X138325701Y-76502360D01*
X138285473Y-76475480D01*
X138272174Y-76462181D01*
X138241924Y-76412818D01*
X138237382Y-76355102D01*
X138259537Y-76301615D01*
X138303560Y-76264015D01*
X138359855Y-76250500D01*
X142539548Y-76250500D01*
X142587001Y-76259939D01*
G37*
%TD.AperFunction*%
%TA.AperFunction,Conductor*%
G36*
X153921916Y-94093994D02*
G01*
X154088181Y-94260259D01*
X154115061Y-94300487D01*
X154124500Y-94347940D01*
X154124500Y-94827282D01*
X154107887Y-94889282D01*
X154097821Y-94906715D01*
X154039326Y-95086742D01*
X154034355Y-95134043D01*
X154008413Y-95197849D01*
X153952426Y-95237969D01*
X153883667Y-95242023D01*
X153823353Y-95208762D01*
X153485006Y-94870415D01*
X153458126Y-94830187D01*
X153448687Y-94782734D01*
X153448687Y-94698687D01*
X153456923Y-94654249D01*
X153480534Y-94615717D01*
X153555720Y-94532216D01*
X153650366Y-94368284D01*
X153708861Y-94188256D01*
X153710915Y-94168712D01*
X153736855Y-94104908D01*
X153792842Y-94064788D01*
X153861601Y-94060732D01*
X153921916Y-94093994D01*
G37*
%TD.AperFunction*%
%TA.AperFunction,Conductor*%
G36*
X170962001Y-68159939D02*
G01*
X171002229Y-68186819D01*
X171688181Y-68872772D01*
X171715061Y-68913000D01*
X171724500Y-68960453D01*
X171724500Y-73755108D01*
X171709214Y-73814751D01*
X171667125Y-73859689D01*
X171608610Y-73878843D01*
X171548095Y-73867490D01*
X171523663Y-73856097D01*
X171462501Y-73839709D01*
X171295407Y-73794936D01*
X171060000Y-73774340D01*
X170824592Y-73794936D01*
X170596336Y-73856097D01*
X170382170Y-73955965D01*
X170188598Y-74091505D01*
X170021505Y-74258598D01*
X169885965Y-74452170D01*
X169786097Y-74666336D01*
X169724936Y-74894592D01*
X169704340Y-75129999D01*
X169724936Y-75365407D01*
X169769709Y-75532502D01*
X169786097Y-75593663D01*
X169885965Y-75807830D01*
X170021505Y-76001401D01*
X170188599Y-76168495D01*
X170374160Y-76298426D01*
X170413024Y-76342743D01*
X170427035Y-76400000D01*
X170413024Y-76457257D01*
X170374158Y-76501575D01*
X170193394Y-76628148D01*
X170188595Y-76631508D01*
X170021505Y-76798598D01*
X169885965Y-76992170D01*
X169786097Y-77206336D01*
X169724936Y-77434592D01*
X169704340Y-77670000D01*
X169724936Y-77905407D01*
X169752127Y-78006885D01*
X169786097Y-78133663D01*
X169885965Y-78347830D01*
X170021505Y-78541401D01*
X170188599Y-78708495D01*
X170374160Y-78838426D01*
X170413024Y-78882743D01*
X170427035Y-78940000D01*
X170413024Y-78997257D01*
X170374159Y-79041575D01*
X170188595Y-79171508D01*
X170022528Y-79337575D01*
X169966940Y-79369669D01*
X169902753Y-79369669D01*
X169847166Y-79337575D01*
X167100802Y-76591211D01*
X167087906Y-76575113D01*
X167036775Y-76527098D01*
X167033978Y-76524387D01*
X167014470Y-76504879D01*
X167011290Y-76502412D01*
X167002424Y-76494839D01*
X166970582Y-76464938D01*
X166953024Y-76455285D01*
X166936764Y-76444604D01*
X166920936Y-76432327D01*
X166880851Y-76414980D01*
X166870361Y-76409841D01*
X166832091Y-76388802D01*
X166812691Y-76383821D01*
X166794284Y-76377519D01*
X166775897Y-76369562D01*
X166732758Y-76362729D01*
X166721324Y-76360361D01*
X166679019Y-76349500D01*
X166658984Y-76349500D01*
X166639586Y-76347973D01*
X166632162Y-76346797D01*
X166619805Y-76344840D01*
X166619804Y-76344840D01*
X166586751Y-76347964D01*
X166576325Y-76348950D01*
X166564656Y-76349500D01*
X160244452Y-76349500D01*
X160188157Y-76335985D01*
X160144134Y-76298385D01*
X160121979Y-76244898D01*
X160126521Y-76187182D01*
X160156771Y-76137819D01*
X160320898Y-75973692D01*
X160808789Y-75485800D01*
X160824885Y-75472906D01*
X160826873Y-75470787D01*
X160826877Y-75470786D01*
X160872948Y-75421723D01*
X160875566Y-75419023D01*
X160895120Y-75399471D01*
X160897581Y-75396298D01*
X160905156Y-75387427D01*
X160935062Y-75355582D01*
X160944712Y-75338027D01*
X160955400Y-75321757D01*
X160967671Y-75305938D01*
X160967673Y-75305936D01*
X160985026Y-75265832D01*
X160990157Y-75255362D01*
X161011197Y-75217092D01*
X161016175Y-75197699D01*
X161022481Y-75179282D01*
X161028486Y-75165406D01*
X161030438Y-75160896D01*
X161037272Y-75117745D01*
X161039635Y-75106331D01*
X161050500Y-75064019D01*
X161050500Y-75043984D01*
X161052027Y-75024585D01*
X161053650Y-75014335D01*
X161055160Y-75004804D01*
X161051050Y-74961325D01*
X161050500Y-74949656D01*
X161050500Y-72529647D01*
X161067113Y-72467647D01*
X161112500Y-72422260D01*
X161174500Y-72405647D01*
X162324999Y-72405647D01*
X162325000Y-72405647D01*
X162453467Y-72388207D01*
X162486383Y-72392073D01*
X162486814Y-72388585D01*
X162624997Y-72405647D01*
X162625000Y-72405647D01*
X163625000Y-72405647D01*
X163625001Y-72405647D01*
X163640226Y-72403642D01*
X163755871Y-72388417D01*
X163877824Y-72337903D01*
X163982546Y-72257546D01*
X163997361Y-72238238D01*
X164039440Y-72203241D01*
X164092491Y-72189768D01*
X164146173Y-72200448D01*
X164170196Y-72211144D01*
X164355352Y-72250500D01*
X164355354Y-72250500D01*
X164544646Y-72250500D01*
X164544648Y-72250500D01*
X164668084Y-72224262D01*
X164729803Y-72211144D01*
X164902730Y-72134151D01*
X164966253Y-72087999D01*
X165055870Y-72022889D01*
X165182533Y-71882216D01*
X165277179Y-71718284D01*
X165285641Y-71692242D01*
X165335674Y-71538256D01*
X165355460Y-71350000D01*
X165335674Y-71161744D01*
X165296000Y-71039640D01*
X165277179Y-70981715D01*
X165182533Y-70817783D01*
X165055870Y-70677110D01*
X164902730Y-70565848D01*
X164729802Y-70488855D01*
X164544648Y-70449500D01*
X164544646Y-70449500D01*
X164355354Y-70449500D01*
X164274312Y-70466725D01*
X164207140Y-70462321D01*
X164152167Y-70423470D01*
X164125594Y-70361620D01*
X164115447Y-70284551D01*
X164113417Y-70269129D01*
X164062903Y-70147177D01*
X163982546Y-70042454D01*
X163892520Y-69973374D01*
X163856797Y-69929844D01*
X163844009Y-69875000D01*
X163856797Y-69820156D01*
X163892520Y-69776625D01*
X163982546Y-69707546D01*
X164062903Y-69602824D01*
X164074436Y-69574978D01*
X164106628Y-69529742D01*
X164155337Y-69503088D01*
X164210795Y-69500363D01*
X164261882Y-69522114D01*
X164347269Y-69584151D01*
X164520197Y-69661144D01*
X164705352Y-69700500D01*
X164705354Y-69700500D01*
X164894646Y-69700500D01*
X164894648Y-69700500D01*
X165040279Y-69669545D01*
X165079803Y-69661144D01*
X165252730Y-69584151D01*
X165252729Y-69584151D01*
X165405870Y-69472889D01*
X165532533Y-69332216D01*
X165627179Y-69168284D01*
X165640194Y-69128229D01*
X165685674Y-68988256D01*
X165705460Y-68800000D01*
X165685674Y-68611744D01*
X165650692Y-68504082D01*
X165627179Y-68431715D01*
X165572207Y-68336500D01*
X165555594Y-68274500D01*
X165572207Y-68212500D01*
X165617594Y-68167113D01*
X165679594Y-68150500D01*
X170914548Y-68150500D01*
X170962001Y-68159939D01*
G37*
%TD.AperFunction*%
%TA.AperFunction,Conductor*%
G36*
X133458069Y-72611221D02*
G01*
X133570197Y-72661144D01*
X133755352Y-72700500D01*
X133755354Y-72700500D01*
X133944646Y-72700500D01*
X133944648Y-72700500D01*
X134068084Y-72674262D01*
X134129803Y-72661144D01*
X134206193Y-72627132D01*
X134241931Y-72611221D01*
X134292367Y-72600500D01*
X141341560Y-72600500D01*
X141389013Y-72609939D01*
X141429241Y-72636819D01*
X142230241Y-73437819D01*
X142260491Y-73487182D01*
X142265033Y-73544898D01*
X142242878Y-73598385D01*
X142198855Y-73635985D01*
X142142560Y-73649500D01*
X128182744Y-73649500D01*
X128162236Y-73647235D01*
X128092113Y-73649439D01*
X128088219Y-73649500D01*
X128060650Y-73649500D01*
X128056671Y-73650002D01*
X128045041Y-73650917D01*
X128001372Y-73652289D01*
X127982128Y-73657880D01*
X127963084Y-73661824D01*
X127943208Y-73664335D01*
X127902600Y-73680413D01*
X127891554Y-73684194D01*
X127849610Y-73696382D01*
X127849607Y-73696383D01*
X127832365Y-73706579D01*
X127814904Y-73715133D01*
X127796267Y-73722512D01*
X127760931Y-73748185D01*
X127751174Y-73754595D01*
X127713580Y-73776829D01*
X127699413Y-73790996D01*
X127684624Y-73803626D01*
X127668413Y-73815404D01*
X127640572Y-73849058D01*
X127632711Y-73857697D01*
X124230751Y-77259656D01*
X124175164Y-77291750D01*
X124110977Y-77291750D01*
X124055390Y-77259657D01*
X124029901Y-77215510D01*
X124028488Y-77216170D01*
X124023903Y-77206337D01*
X123924035Y-76992171D01*
X123788495Y-76798599D01*
X123621401Y-76631505D01*
X123435839Y-76501573D01*
X123396975Y-76457257D01*
X123382964Y-76400000D01*
X123396975Y-76342743D01*
X123435839Y-76298426D01*
X123621401Y-76168495D01*
X123788495Y-76001401D01*
X123924035Y-75807830D01*
X124023903Y-75593663D01*
X124085063Y-75365408D01*
X124105659Y-75130000D01*
X124092710Y-74982005D01*
X124099716Y-74928790D01*
X124128555Y-74883521D01*
X126375258Y-72636819D01*
X126415487Y-72609939D01*
X126462940Y-72600500D01*
X133407633Y-72600500D01*
X133458069Y-72611221D01*
G37*
%TD.AperFunction*%
%TA.AperFunction,Conductor*%
G36*
X155687001Y-68934939D02*
G01*
X155727229Y-68961819D01*
X158363181Y-71597772D01*
X158390061Y-71638000D01*
X158399500Y-71685453D01*
X158399500Y-74638151D01*
X158390061Y-74685604D01*
X158363181Y-74725832D01*
X158125832Y-74963181D01*
X158085604Y-74990061D01*
X158038151Y-74999500D01*
X148907740Y-74999500D01*
X148887236Y-74997236D01*
X148817144Y-74999439D01*
X148813250Y-74999500D01*
X148785648Y-74999500D01*
X148781653Y-75000004D01*
X148770029Y-75000918D01*
X148726368Y-75002290D01*
X148707128Y-75007880D01*
X148688081Y-75011825D01*
X148668209Y-75014335D01*
X148627599Y-75030413D01*
X148616554Y-75034194D01*
X148574611Y-75046380D01*
X148557369Y-75056578D01*
X148539897Y-75065138D01*
X148521266Y-75072514D01*
X148485938Y-75098181D01*
X148476180Y-75104591D01*
X148438579Y-75126829D01*
X148424410Y-75140998D01*
X148409622Y-75153628D01*
X148393413Y-75165405D01*
X148365572Y-75199058D01*
X148357711Y-75207696D01*
X146492613Y-77072794D01*
X146440771Y-77103821D01*
X146380421Y-77106666D01*
X146325890Y-77080655D01*
X146290123Y-77031963D01*
X146284308Y-76991102D01*
X146282322Y-76991311D01*
X146280960Y-76978350D01*
X146261174Y-76790094D01*
X146223366Y-76673733D01*
X146202680Y-76610068D01*
X146191793Y-76591211D01*
X146160738Y-76537421D01*
X146144126Y-76475423D01*
X146160740Y-76413423D01*
X146161090Y-76412818D01*
X146201990Y-76341977D01*
X146260485Y-76161949D01*
X146280271Y-75973693D01*
X146260485Y-75785437D01*
X146201990Y-75605409D01*
X146201990Y-75605408D01*
X146149566Y-75514608D01*
X146132953Y-75452607D01*
X146149565Y-75390611D01*
X146177179Y-75342784D01*
X146235674Y-75162756D01*
X146255460Y-74974500D01*
X146235674Y-74786244D01*
X146196713Y-74666336D01*
X146177179Y-74606215D01*
X146079194Y-74436500D01*
X146062581Y-74374500D01*
X146079194Y-74312500D01*
X146124581Y-74267113D01*
X146186581Y-74250500D01*
X150182633Y-74250500D01*
X150233069Y-74261221D01*
X150345197Y-74311144D01*
X150530352Y-74350500D01*
X150530354Y-74350500D01*
X150719646Y-74350500D01*
X150719648Y-74350500D01*
X150898423Y-74312500D01*
X150904803Y-74311144D01*
X151016930Y-74261221D01*
X151067367Y-74250500D01*
X155482633Y-74250500D01*
X155533069Y-74261221D01*
X155645197Y-74311144D01*
X155830352Y-74350500D01*
X155830354Y-74350500D01*
X156019646Y-74350500D01*
X156019648Y-74350500D01*
X156198423Y-74312500D01*
X156204803Y-74311144D01*
X156377730Y-74234151D01*
X156530871Y-74122888D01*
X156657533Y-73982216D01*
X156752179Y-73818284D01*
X156810674Y-73638256D01*
X156830460Y-73450000D01*
X156810674Y-73261744D01*
X156752179Y-73081716D01*
X156752179Y-73081715D01*
X156657533Y-72917783D01*
X156530870Y-72777110D01*
X156377730Y-72665848D01*
X156204802Y-72588855D01*
X156019648Y-72549500D01*
X156019646Y-72549500D01*
X155830354Y-72549500D01*
X155830352Y-72549500D01*
X155645197Y-72588855D01*
X155533069Y-72638779D01*
X155482633Y-72649500D01*
X152718337Y-72649500D01*
X152662042Y-72635985D01*
X152618019Y-72598385D01*
X152595864Y-72544898D01*
X152600406Y-72487182D01*
X152630656Y-72437819D01*
X152630655Y-72437819D01*
X152661598Y-72406877D01*
X152787102Y-72227639D01*
X152879575Y-72029330D01*
X152936207Y-71817977D01*
X152955277Y-71600000D01*
X152954656Y-71592907D01*
X152942541Y-71454420D01*
X152936207Y-71382023D01*
X152879575Y-71170670D01*
X152787102Y-70972362D01*
X152661598Y-70793123D01*
X152506877Y-70638402D01*
X152327639Y-70512898D01*
X152191682Y-70449500D01*
X152129331Y-70420425D01*
X151917974Y-70363792D01*
X151700000Y-70344722D01*
X151482025Y-70363792D01*
X151270668Y-70420425D01*
X151072361Y-70512898D01*
X150893122Y-70638402D01*
X150738402Y-70793122D01*
X150612898Y-70972361D01*
X150520425Y-71170668D01*
X150463792Y-71382025D01*
X150444722Y-71599999D01*
X150463792Y-71817974D01*
X150472018Y-71848675D01*
X150520425Y-72029330D01*
X150612898Y-72227639D01*
X150701641Y-72354377D01*
X150723801Y-72417390D01*
X150710055Y-72482757D01*
X150664394Y-72531509D01*
X150600066Y-72549500D01*
X150530352Y-72549500D01*
X150345197Y-72588855D01*
X150233069Y-72638779D01*
X150182633Y-72649500D01*
X147838337Y-72649500D01*
X147782042Y-72635985D01*
X147738019Y-72598385D01*
X147715864Y-72544898D01*
X147720406Y-72487182D01*
X147750656Y-72437819D01*
X147750655Y-72437819D01*
X147781598Y-72406877D01*
X147907102Y-72227639D01*
X147999575Y-72029330D01*
X148056207Y-71817977D01*
X148075277Y-71600000D01*
X148074656Y-71592907D01*
X148062541Y-71454420D01*
X148056207Y-71382023D01*
X147999575Y-71170670D01*
X147907102Y-70972362D01*
X147781598Y-70793123D01*
X147626877Y-70638402D01*
X147447639Y-70512898D01*
X147311682Y-70449500D01*
X147249331Y-70420425D01*
X147037974Y-70363792D01*
X146820000Y-70344722D01*
X146602025Y-70363792D01*
X146390668Y-70420425D01*
X146192361Y-70512898D01*
X146013122Y-70638402D01*
X145858402Y-70793122D01*
X145732898Y-70972361D01*
X145640425Y-71170668D01*
X145583792Y-71382025D01*
X145564722Y-71599999D01*
X145583792Y-71817974D01*
X145592018Y-71848675D01*
X145640425Y-72029330D01*
X145732898Y-72227639D01*
X145858402Y-72406877D01*
X145858404Y-72406879D01*
X145858405Y-72406880D01*
X145889344Y-72437819D01*
X145919594Y-72487182D01*
X145924136Y-72544898D01*
X145901981Y-72598385D01*
X145857958Y-72635985D01*
X145801663Y-72649500D01*
X143757440Y-72649500D01*
X143709987Y-72640061D01*
X143669759Y-72613181D01*
X142276193Y-71219615D01*
X142276191Y-71219612D01*
X142258752Y-71202174D01*
X142258752Y-71202173D01*
X142226762Y-71170184D01*
X142213327Y-71161742D01*
X142194349Y-71149817D01*
X142183011Y-71141772D01*
X142153086Y-71117908D01*
X142118595Y-71101298D01*
X142106433Y-71094576D01*
X142090827Y-71084770D01*
X142074020Y-71074209D01*
X142037898Y-71061570D01*
X142025053Y-71056250D01*
X141990558Y-71039638D01*
X141953236Y-71031119D01*
X141939880Y-71027272D01*
X141903752Y-71014631D01*
X141865719Y-71010345D01*
X141852018Y-71008017D01*
X141814696Y-70999500D01*
X141814694Y-70999500D01*
X141769454Y-70999500D01*
X134292367Y-70999500D01*
X134241931Y-70988779D01*
X134129802Y-70938855D01*
X133944648Y-70899500D01*
X133944646Y-70899500D01*
X133755354Y-70899500D01*
X133755352Y-70899500D01*
X133570197Y-70938855D01*
X133458069Y-70988779D01*
X133407633Y-70999500D01*
X125989803Y-70999500D01*
X125952480Y-71008017D01*
X125938780Y-71010345D01*
X125900743Y-71014631D01*
X125864623Y-71027270D01*
X125851268Y-71031118D01*
X125813938Y-71039639D01*
X125779453Y-71056246D01*
X125766613Y-71061565D01*
X125730475Y-71074211D01*
X125698064Y-71094576D01*
X125685899Y-71101300D01*
X125651413Y-71117908D01*
X125621487Y-71141773D01*
X125610152Y-71149815D01*
X125577740Y-71170181D01*
X125528306Y-71219615D01*
X122996479Y-73751441D01*
X122951208Y-73780282D01*
X122897991Y-73787288D01*
X122750000Y-73774340D01*
X122514592Y-73794936D01*
X122286336Y-73856097D01*
X122251905Y-73872153D01*
X122191391Y-73883506D01*
X122132875Y-73864352D01*
X122090786Y-73819414D01*
X122075500Y-73759771D01*
X122075500Y-72135452D01*
X122084939Y-72087999D01*
X122111819Y-72047771D01*
X125197772Y-68961819D01*
X125238000Y-68934939D01*
X125285453Y-68925500D01*
X155639548Y-68925500D01*
X155687001Y-68934939D01*
G37*
%TD.AperFunction*%
%TA.AperFunction,Conductor*%
G36*
X173137818Y-69705126D02*
G01*
X173187181Y-69735376D01*
X174188181Y-70736376D01*
X174215061Y-70776604D01*
X174224500Y-70824057D01*
X174224500Y-73737593D01*
X174211712Y-73792437D01*
X174175987Y-73835969D01*
X174124691Y-73859210D01*
X174068407Y-73857368D01*
X173835407Y-73794936D01*
X173600000Y-73774340D01*
X173364592Y-73794936D01*
X173131593Y-73857368D01*
X173075309Y-73859210D01*
X173024013Y-73835969D01*
X172988288Y-73792437D01*
X172975500Y-73737593D01*
X172975500Y-69823057D01*
X172989015Y-69766762D01*
X173026615Y-69722739D01*
X173080102Y-69700584D01*
X173137818Y-69705126D01*
G37*
%TD.AperFunction*%
%TA.AperFunction,Conductor*%
G36*
X150011485Y-60341569D02*
G01*
X150046052Y-60359182D01*
X150172769Y-60451247D01*
X150345697Y-60528240D01*
X150530852Y-60567596D01*
X150600500Y-60567596D01*
X150662500Y-60584209D01*
X150707887Y-60629596D01*
X150724500Y-60691596D01*
X150724500Y-64178152D01*
X150715061Y-64225605D01*
X150688181Y-64265833D01*
X149815832Y-65138181D01*
X149775604Y-65165061D01*
X149728151Y-65174500D01*
X145359452Y-65174500D01*
X145303157Y-65160985D01*
X145259134Y-65123385D01*
X145236979Y-65069898D01*
X145241521Y-65012182D01*
X145271771Y-64962819D01*
X145885090Y-64349500D01*
X146507664Y-63726925D01*
X146523760Y-63714031D01*
X146525748Y-63711912D01*
X146525752Y-63711911D01*
X146571823Y-63662848D01*
X146574441Y-63660148D01*
X146593995Y-63640596D01*
X146596456Y-63637423D01*
X146604031Y-63628552D01*
X146633937Y-63596707D01*
X146643587Y-63579152D01*
X146654275Y-63562882D01*
X146666546Y-63547063D01*
X146666548Y-63547061D01*
X146683901Y-63506957D01*
X146689032Y-63496487D01*
X146710072Y-63458217D01*
X146715050Y-63438824D01*
X146721356Y-63420407D01*
X146722893Y-63416853D01*
X146729313Y-63402021D01*
X146733662Y-63374560D01*
X146744214Y-63340577D01*
X146763985Y-63310986D01*
X146832771Y-63234592D01*
X146856408Y-63208341D01*
X146866712Y-63190495D01*
X146951054Y-63044409D01*
X146963425Y-63006336D01*
X147009549Y-62864381D01*
X147029335Y-62676125D01*
X147009549Y-62487869D01*
X146977464Y-62389122D01*
X146951054Y-62307840D01*
X146856410Y-62143911D01*
X146833521Y-62118491D01*
X146781222Y-62060407D01*
X146757611Y-62021876D01*
X146749375Y-61977438D01*
X146749375Y-61576577D01*
X146758814Y-61529124D01*
X146785694Y-61488896D01*
X147902772Y-60371819D01*
X147943000Y-60344939D01*
X147990453Y-60335500D01*
X149973167Y-60335500D01*
X150011485Y-60341569D01*
G37*
%TD.AperFunction*%
%TA.AperFunction,Conductor*%
G36*
X152592723Y-58303589D02*
G01*
X152641649Y-58336838D01*
X152719129Y-58422888D01*
X152719132Y-58422890D01*
X152872269Y-58534151D01*
X153045197Y-58611144D01*
X153230352Y-58650500D01*
X153230354Y-58650500D01*
X153419646Y-58650500D01*
X153419648Y-58650500D01*
X153543083Y-58624262D01*
X153604803Y-58611144D01*
X153777730Y-58534151D01*
X153929092Y-58424180D01*
X153963657Y-58406569D01*
X154001975Y-58400500D01*
X156188550Y-58400500D01*
X156251090Y-58417426D01*
X156296556Y-58463584D01*
X156312536Y-58526373D01*
X156294667Y-58588649D01*
X156281522Y-58610394D01*
X156262247Y-58672250D01*
X156230913Y-58772806D01*
X156224500Y-58843383D01*
X156224500Y-59356617D01*
X156230913Y-59427193D01*
X156231318Y-59428494D01*
X156281522Y-59589606D01*
X156286031Y-59597064D01*
X156369528Y-59735186D01*
X156489813Y-59855471D01*
X156489815Y-59855472D01*
X156635394Y-59943478D01*
X156797804Y-59994086D01*
X156844857Y-59998362D01*
X156868383Y-60000500D01*
X156868384Y-60000500D01*
X157164547Y-60000500D01*
X157212000Y-60009939D01*
X157252228Y-60036819D01*
X157338181Y-60122772D01*
X157365061Y-60163000D01*
X157374500Y-60210453D01*
X157374500Y-61014547D01*
X157365061Y-61062001D01*
X157338180Y-61102229D01*
X157302226Y-61138182D01*
X157261998Y-61165061D01*
X157214546Y-61174500D01*
X156901655Y-61174500D01*
X156802292Y-61184650D01*
X156641300Y-61237997D01*
X156496955Y-61327031D01*
X156377031Y-61446955D01*
X156287997Y-61591300D01*
X156234650Y-61752292D01*
X156224500Y-61851655D01*
X156224500Y-62398344D01*
X156234650Y-62497707D01*
X156287997Y-62658699D01*
X156366150Y-62785403D01*
X156384582Y-62847795D01*
X156368890Y-62910932D01*
X156323391Y-62957433D01*
X156260612Y-62974500D01*
X154411721Y-62974500D01*
X154364271Y-62965062D01*
X154355872Y-62961583D01*
X154225001Y-62944353D01*
X154225000Y-62944353D01*
X153075000Y-62944353D01*
X152946533Y-62961792D01*
X152913614Y-62957927D01*
X152913184Y-62961415D01*
X152775002Y-62944353D01*
X152775000Y-62944353D01*
X152549500Y-62944353D01*
X152487500Y-62927740D01*
X152442113Y-62882353D01*
X152425500Y-62820353D01*
X152425500Y-58419812D01*
X152439611Y-58362363D01*
X152478731Y-58317990D01*
X152533958Y-58296790D01*
X152592723Y-58303589D01*
G37*
%TD.AperFunction*%
%TA.AperFunction,Conductor*%
G36*
X163037818Y-57366522D02*
G01*
X163087181Y-57396772D01*
X163733034Y-58042625D01*
X163759914Y-58082853D01*
X163769353Y-58130306D01*
X163769353Y-59275001D01*
X163786583Y-59405871D01*
X163837096Y-59527824D01*
X163894585Y-59602743D01*
X163917454Y-59632546D01*
X164022177Y-59712903D01*
X164144129Y-59763417D01*
X164244375Y-59776615D01*
X164274999Y-59780647D01*
X165239551Y-59780647D01*
X165306508Y-59800279D01*
X165352264Y-59852958D01*
X165362330Y-59922004D01*
X165333519Y-59985554D01*
X165304276Y-60019516D01*
X164804276Y-60769517D01*
X164750496Y-60875284D01*
X164722845Y-60990673D01*
X164722845Y-61109327D01*
X164750496Y-61224715D01*
X164804276Y-61330482D01*
X165304276Y-62080483D01*
X165355044Y-62139446D01*
X165383855Y-62202996D01*
X165373789Y-62272042D01*
X165328033Y-62324721D01*
X165261076Y-62344353D01*
X164274999Y-62344353D01*
X164144127Y-62361583D01*
X164022177Y-62412096D01*
X163952570Y-62465507D01*
X163898616Y-62489247D01*
X163839796Y-62485392D01*
X163789403Y-62454812D01*
X162911819Y-61577228D01*
X162884939Y-61537000D01*
X162875500Y-61489547D01*
X162875500Y-57484453D01*
X162889015Y-57428158D01*
X162926615Y-57384135D01*
X162980102Y-57361980D01*
X163037818Y-57366522D01*
G37*
%TD.AperFunction*%
%TA.AperFunction,Conductor*%
G36*
X146388069Y-50791221D02*
G01*
X146500197Y-50841144D01*
X146685352Y-50880500D01*
X146685354Y-50880500D01*
X146874646Y-50880500D01*
X146874648Y-50880500D01*
X146998083Y-50854262D01*
X147059803Y-50841144D01*
X147149470Y-50801221D01*
X147199907Y-50790500D01*
X154524959Y-50790500D01*
X154582900Y-50804869D01*
X154627412Y-50844647D01*
X154648179Y-50900615D01*
X154640388Y-50959800D01*
X154605845Y-51008486D01*
X154552555Y-51035390D01*
X154533940Y-51039639D01*
X154499441Y-51056251D01*
X154486604Y-51061568D01*
X154450476Y-51074211D01*
X154418067Y-51094574D01*
X154405902Y-51101298D01*
X154371411Y-51117908D01*
X154341482Y-51141776D01*
X154330145Y-51149821D01*
X154297738Y-51170183D01*
X154207163Y-51260756D01*
X154207161Y-51260760D01*
X153477432Y-51990488D01*
X153440187Y-52016086D01*
X153272269Y-52090848D01*
X153119129Y-52202110D01*
X152992466Y-52342783D01*
X152897820Y-52506715D01*
X152839326Y-52686742D01*
X152819540Y-52875000D01*
X152839326Y-53063257D01*
X152900582Y-53251782D01*
X152905124Y-53309498D01*
X152882969Y-53362985D01*
X152838946Y-53400585D01*
X152782651Y-53414100D01*
X151333447Y-53414100D01*
X151283012Y-53403380D01*
X151241298Y-53373073D01*
X151235571Y-53366712D01*
X151082430Y-53255449D01*
X151082429Y-53255448D01*
X151082427Y-53255447D01*
X150909502Y-53178455D01*
X150724348Y-53139100D01*
X150724346Y-53139100D01*
X150535054Y-53139100D01*
X150535052Y-53139100D01*
X150349897Y-53178455D01*
X150176969Y-53255448D01*
X150023829Y-53366710D01*
X149897166Y-53507383D01*
X149802520Y-53671315D01*
X149744026Y-53851342D01*
X149724240Y-54039599D01*
X149744026Y-54227857D01*
X149802520Y-54407884D01*
X149897166Y-54571816D01*
X150023829Y-54712489D01*
X150176969Y-54823751D01*
X150349897Y-54900744D01*
X150535052Y-54940100D01*
X150535054Y-54940100D01*
X150724346Y-54940100D01*
X150724348Y-54940100D01*
X150876923Y-54907669D01*
X150909503Y-54900744D01*
X151082430Y-54823751D01*
X151235571Y-54712488D01*
X151241298Y-54706126D01*
X151283012Y-54675820D01*
X151333447Y-54665100D01*
X152592023Y-54665100D01*
X152657733Y-54683942D01*
X152703473Y-54734742D01*
X152715344Y-54802061D01*
X152714326Y-54811742D01*
X152714326Y-54811744D01*
X152694540Y-55000000D01*
X152699009Y-55042517D01*
X152714326Y-55188257D01*
X152772820Y-55368284D01*
X152867466Y-55532216D01*
X152994129Y-55672889D01*
X153147269Y-55784151D01*
X153320197Y-55861144D01*
X153505352Y-55900500D01*
X153505354Y-55900500D01*
X153694646Y-55900500D01*
X153694648Y-55900500D01*
X153830710Y-55871579D01*
X153879803Y-55861144D01*
X153959631Y-55825602D01*
X154052727Y-55784153D01*
X154067428Y-55773472D01*
X154205871Y-55672888D01*
X154205874Y-55672884D01*
X154210970Y-55669182D01*
X154245538Y-55651569D01*
X154283856Y-55645500D01*
X160648152Y-55645500D01*
X160695605Y-55654939D01*
X160735833Y-55681819D01*
X161588181Y-56534167D01*
X161615061Y-56574395D01*
X161624500Y-56621848D01*
X161624500Y-57815547D01*
X161610985Y-57871842D01*
X161573385Y-57915865D01*
X161519898Y-57938020D01*
X161462182Y-57933478D01*
X161412819Y-57903228D01*
X161411819Y-57902228D01*
X161384939Y-57862000D01*
X161375500Y-57814547D01*
X161375500Y-57518383D01*
X161371017Y-57469049D01*
X161369086Y-57447804D01*
X161318478Y-57285394D01*
X161236393Y-57149610D01*
X161230471Y-57139813D01*
X161110186Y-57019528D01*
X161012366Y-56960394D01*
X160964606Y-56931522D01*
X160802196Y-56880914D01*
X160802193Y-56880913D01*
X160731617Y-56874500D01*
X160731616Y-56874500D01*
X160068384Y-56874500D01*
X160068383Y-56874500D01*
X159997806Y-56880913D01*
X159835390Y-56931523D01*
X159733012Y-56993413D01*
X159676599Y-57011054D01*
X159618427Y-57000576D01*
X159554730Y-56972216D01*
X159479803Y-56938856D01*
X159479802Y-56938855D01*
X159479798Y-56938854D01*
X159294648Y-56899500D01*
X159294646Y-56899500D01*
X159105354Y-56899500D01*
X159105352Y-56899500D01*
X158920197Y-56938855D01*
X158747269Y-57015848D01*
X158594129Y-57127110D01*
X158467466Y-57267783D01*
X158406887Y-57372711D01*
X158361500Y-57418098D01*
X158299500Y-57434711D01*
X158237500Y-57418098D01*
X158192113Y-57372711D01*
X158175500Y-57310711D01*
X158175500Y-57193383D01*
X158170519Y-57138575D01*
X158169086Y-57122804D01*
X158118478Y-56960394D01*
X158037272Y-56826063D01*
X158030471Y-56814813D01*
X157910186Y-56694528D01*
X157795999Y-56625500D01*
X157764606Y-56606522D01*
X157602196Y-56555914D01*
X157602193Y-56555913D01*
X157531617Y-56549500D01*
X157531616Y-56549500D01*
X156868384Y-56549500D01*
X156868383Y-56549500D01*
X156797806Y-56555913D01*
X156738495Y-56574395D01*
X156635394Y-56606522D01*
X156635392Y-56606522D01*
X156635392Y-56606523D01*
X156489813Y-56694528D01*
X156369528Y-56814813D01*
X156294542Y-56938856D01*
X156281522Y-56960394D01*
X156249738Y-57062392D01*
X156224170Y-57107727D01*
X156182245Y-57138575D01*
X156131354Y-57149500D01*
X154051259Y-57149500D01*
X154000824Y-57138780D01*
X153959110Y-57108473D01*
X153930871Y-57077111D01*
X153777730Y-56965848D01*
X153604802Y-56888855D01*
X153419648Y-56849500D01*
X153419646Y-56849500D01*
X153230354Y-56849500D01*
X153230352Y-56849500D01*
X153045197Y-56888855D01*
X152872269Y-56965848D01*
X152719129Y-57077111D01*
X152624737Y-57181943D01*
X152565306Y-57218576D01*
X152495503Y-57217294D01*
X152437455Y-57178505D01*
X152419224Y-57136670D01*
X152416432Y-57137776D01*
X152410504Y-57122804D01*
X152394578Y-57082581D01*
X152390805Y-57071560D01*
X152378617Y-57029610D01*
X152374886Y-57023302D01*
X152368421Y-57012369D01*
X152359863Y-56994902D01*
X152352486Y-56976268D01*
X152326798Y-56940912D01*
X152320409Y-56931184D01*
X152298170Y-56893579D01*
X152284006Y-56879415D01*
X152271369Y-56864620D01*
X152259595Y-56848414D01*
X152232577Y-56826063D01*
X152225935Y-56820568D01*
X152217305Y-56812714D01*
X151654536Y-56249945D01*
X151630296Y-56215646D01*
X151618896Y-56175223D01*
X151616315Y-56150667D01*
X151611174Y-56101744D01*
X151611174Y-56101742D01*
X151552679Y-55921715D01*
X151458033Y-55757783D01*
X151331370Y-55617110D01*
X151178230Y-55505848D01*
X151005302Y-55428855D01*
X150820148Y-55389500D01*
X150820146Y-55389500D01*
X150630854Y-55389500D01*
X150630852Y-55389500D01*
X150445697Y-55428855D01*
X150272769Y-55505848D01*
X150119629Y-55617110D01*
X149992966Y-55757783D01*
X149898320Y-55921715D01*
X149839826Y-56101742D01*
X149820040Y-56289999D01*
X149839826Y-56478257D01*
X149898320Y-56658284D01*
X149992966Y-56822216D01*
X150119629Y-56962889D01*
X150272769Y-57074151D01*
X150445697Y-57151144D01*
X150630852Y-57190500D01*
X150774548Y-57190500D01*
X150822001Y-57199939D01*
X150862229Y-57226819D01*
X151138181Y-57502772D01*
X151165061Y-57543000D01*
X151174500Y-57590453D01*
X151174500Y-57673483D01*
X151162421Y-57726866D01*
X151128536Y-57769849D01*
X151079448Y-57794057D01*
X151024720Y-57794773D01*
X150916403Y-57771750D01*
X150916400Y-57771750D01*
X150727108Y-57771750D01*
X150727106Y-57771750D01*
X150541951Y-57811105D01*
X150369023Y-57888098D01*
X150346635Y-57904364D01*
X150286711Y-57927366D01*
X150223314Y-57917324D01*
X150173432Y-57876929D01*
X150150431Y-57817008D01*
X150145674Y-57771744D01*
X150104209Y-57644129D01*
X150087179Y-57591715D01*
X149992533Y-57427783D01*
X149865870Y-57287110D01*
X149712730Y-57175848D01*
X149539802Y-57098855D01*
X149354648Y-57059500D01*
X149354646Y-57059500D01*
X149165354Y-57059500D01*
X149165352Y-57059500D01*
X148980197Y-57098855D01*
X148807269Y-57175848D01*
X148654129Y-57287110D01*
X148527466Y-57427783D01*
X148432820Y-57591715D01*
X148374326Y-57771742D01*
X148371356Y-57800000D01*
X148356684Y-57939606D01*
X148356679Y-57939650D01*
X148345279Y-57980071D01*
X148321039Y-58014369D01*
X147897228Y-58438181D01*
X147857000Y-58465061D01*
X147809547Y-58474500D01*
X141756940Y-58474500D01*
X141700645Y-58460985D01*
X141656622Y-58423385D01*
X141634467Y-58369898D01*
X141639009Y-58312182D01*
X141669259Y-58262819D01*
X142860610Y-57071468D01*
X145377805Y-57071468D01*
X145397591Y-57259725D01*
X145456085Y-57439752D01*
X145550731Y-57603684D01*
X145677394Y-57744357D01*
X145830534Y-57855619D01*
X146003462Y-57932612D01*
X146188617Y-57971968D01*
X146188619Y-57971968D01*
X146377911Y-57971968D01*
X146377913Y-57971968D01*
X146501349Y-57945730D01*
X146563068Y-57932612D01*
X146735995Y-57855619D01*
X146793477Y-57813856D01*
X146889135Y-57744357D01*
X146952951Y-57673483D01*
X147015798Y-57603684D01*
X147110444Y-57439752D01*
X147161517Y-57282563D01*
X147191767Y-57233202D01*
X147241130Y-57202952D01*
X147298846Y-57198410D01*
X147352334Y-57220565D01*
X147357272Y-57224153D01*
X147530197Y-57301144D01*
X147715352Y-57340500D01*
X147715354Y-57340500D01*
X147904646Y-57340500D01*
X147904648Y-57340500D01*
X148044793Y-57310711D01*
X148089803Y-57301144D01*
X148262730Y-57224151D01*
X148273997Y-57215965D01*
X148415870Y-57112889D01*
X148428506Y-57098856D01*
X148542533Y-56972216D01*
X148637179Y-56808284D01*
X148695674Y-56628256D01*
X148715460Y-56440000D01*
X148695674Y-56251744D01*
X148637179Y-56071716D01*
X148637179Y-56071715D01*
X148542533Y-55907783D01*
X148415870Y-55767110D01*
X148262730Y-55655848D01*
X148089802Y-55578855D01*
X147904648Y-55539500D01*
X147904646Y-55539500D01*
X147715354Y-55539500D01*
X147715352Y-55539500D01*
X147530197Y-55578855D01*
X147357272Y-55655847D01*
X147328023Y-55677098D01*
X147204129Y-55767112D01*
X147198401Y-55773473D01*
X147156688Y-55803780D01*
X147106253Y-55814500D01*
X146997477Y-55814500D01*
X146976969Y-55812235D01*
X146906846Y-55814439D01*
X146902952Y-55814500D01*
X146875383Y-55814500D01*
X146871404Y-55815002D01*
X146859774Y-55815917D01*
X146816105Y-55817289D01*
X146796861Y-55822880D01*
X146777817Y-55826824D01*
X146757941Y-55829335D01*
X146717333Y-55845413D01*
X146706287Y-55849194D01*
X146664343Y-55861382D01*
X146664340Y-55861383D01*
X146647098Y-55871579D01*
X146629637Y-55880133D01*
X146611000Y-55887512D01*
X146575664Y-55913185D01*
X146565907Y-55919595D01*
X146528313Y-55941829D01*
X146514146Y-55955996D01*
X146499357Y-55968626D01*
X146483146Y-55980404D01*
X146455309Y-56014053D01*
X146447449Y-56022691D01*
X146335494Y-56134648D01*
X146295265Y-56161529D01*
X146247812Y-56170968D01*
X146188617Y-56170968D01*
X146003462Y-56210323D01*
X145830534Y-56287316D01*
X145677394Y-56398578D01*
X145550731Y-56539251D01*
X145456085Y-56703183D01*
X145397591Y-56883210D01*
X145377805Y-57071468D01*
X142860610Y-57071468D01*
X142869815Y-57062263D01*
X142876787Y-57051167D01*
X142890182Y-57029847D01*
X142898216Y-57018523D01*
X142922091Y-56988587D01*
X142938698Y-56954100D01*
X142945426Y-56941928D01*
X142946275Y-56940577D01*
X142965789Y-56909522D01*
X142978431Y-56873391D01*
X142983751Y-56860549D01*
X142989595Y-56848414D01*
X143000360Y-56826061D01*
X143008882Y-56788721D01*
X143012720Y-56775399D01*
X143025368Y-56739255D01*
X143029655Y-56701197D01*
X143031980Y-56687520D01*
X143038031Y-56661009D01*
X143040500Y-56650195D01*
X143040500Y-53340040D01*
X143057113Y-53278040D01*
X143077179Y-53243284D01*
X143097880Y-53179574D01*
X143135674Y-53063256D01*
X143155460Y-52875000D01*
X143135674Y-52686744D01*
X143077179Y-52506716D01*
X143067112Y-52489280D01*
X143050500Y-52427282D01*
X143050500Y-50904500D01*
X143067113Y-50842500D01*
X143112500Y-50797113D01*
X143174500Y-50780500D01*
X146337633Y-50780500D01*
X146388069Y-50791221D01*
G37*
%TD.AperFunction*%
%TA.AperFunction,Conductor*%
G36*
X179867500Y-38637113D02*
G01*
X179912887Y-38682500D01*
X179929500Y-38744500D01*
X179929500Y-135995500D01*
X179912887Y-136057500D01*
X179867500Y-136102887D01*
X179805500Y-136119500D01*
X113954500Y-136119500D01*
X113892500Y-136102887D01*
X113847113Y-136057500D01*
X113830500Y-135995500D01*
X113830500Y-87405194D01*
X118119840Y-87405194D01*
X118123950Y-87448675D01*
X118124500Y-87460344D01*
X118124500Y-105942256D01*
X118122235Y-105962762D01*
X118124439Y-106032873D01*
X118124500Y-106036768D01*
X118124500Y-106064349D01*
X118125003Y-106068334D01*
X118125918Y-106079967D01*
X118127290Y-106123626D01*
X118132879Y-106142860D01*
X118136825Y-106161916D01*
X118139335Y-106181792D01*
X118155414Y-106222404D01*
X118159197Y-106233451D01*
X118171382Y-106275391D01*
X118181580Y-106292635D01*
X118190136Y-106310100D01*
X118197514Y-106328732D01*
X118197515Y-106328733D01*
X118223180Y-106364059D01*
X118229593Y-106373822D01*
X118251826Y-106411416D01*
X118251829Y-106411419D01*
X118251830Y-106411420D01*
X118265995Y-106425585D01*
X118278627Y-106440375D01*
X118290406Y-106456587D01*
X118324058Y-106484426D01*
X118332699Y-106492289D01*
X119076312Y-107235902D01*
X119106337Y-107284579D01*
X119111322Y-107341554D01*
X119090206Y-107394706D01*
X119035965Y-107472170D01*
X118936097Y-107686336D01*
X118874936Y-107914592D01*
X118854340Y-108150000D01*
X118874936Y-108385407D01*
X118900131Y-108479436D01*
X118936097Y-108613663D01*
X119035965Y-108827830D01*
X119171505Y-109021401D01*
X119338599Y-109188495D01*
X119524160Y-109318426D01*
X119563024Y-109362743D01*
X119577035Y-109420000D01*
X119563024Y-109477257D01*
X119524159Y-109521575D01*
X119338595Y-109651508D01*
X119171505Y-109818598D01*
X119035965Y-110012170D01*
X118936097Y-110226336D01*
X118874936Y-110454592D01*
X118854340Y-110689999D01*
X118874936Y-110925407D01*
X118919709Y-111092501D01*
X118936097Y-111153663D01*
X119035965Y-111367830D01*
X119171505Y-111561401D01*
X119338599Y-111728495D01*
X119524160Y-111858426D01*
X119563024Y-111902743D01*
X119577035Y-111960000D01*
X119563024Y-112017257D01*
X119524159Y-112061575D01*
X119338595Y-112191508D01*
X119171505Y-112358598D01*
X119035965Y-112552170D01*
X118936097Y-112766336D01*
X118874936Y-112994592D01*
X118854340Y-113229999D01*
X118874936Y-113465407D01*
X118919709Y-113632501D01*
X118936097Y-113693663D01*
X119035965Y-113907830D01*
X119171505Y-114101401D01*
X119338599Y-114268495D01*
X119524160Y-114398426D01*
X119563024Y-114442743D01*
X119577035Y-114500000D01*
X119563024Y-114557257D01*
X119524159Y-114601575D01*
X119338595Y-114731508D01*
X119171505Y-114898598D01*
X119035965Y-115092170D01*
X118936097Y-115306336D01*
X118874936Y-115534592D01*
X118854340Y-115770000D01*
X118874936Y-116005407D01*
X118919709Y-116172502D01*
X118936097Y-116233663D01*
X119035965Y-116447830D01*
X119171505Y-116641401D01*
X119338599Y-116808495D01*
X119524160Y-116938426D01*
X119563024Y-116982743D01*
X119577035Y-117040000D01*
X119563024Y-117097257D01*
X119524158Y-117141575D01*
X119375496Y-117245670D01*
X119338595Y-117271508D01*
X119171505Y-117438598D01*
X119035965Y-117632170D01*
X118936097Y-117846336D01*
X118874936Y-118074592D01*
X118854340Y-118309999D01*
X118874936Y-118545407D01*
X118919709Y-118712501D01*
X118936097Y-118773663D01*
X119035965Y-118987830D01*
X119171505Y-119181401D01*
X119338599Y-119348495D01*
X119524160Y-119478426D01*
X119563024Y-119522743D01*
X119577035Y-119580000D01*
X119563024Y-119637257D01*
X119524159Y-119681575D01*
X119338595Y-119811508D01*
X119171505Y-119978598D01*
X119035965Y-120172170D01*
X118936097Y-120386336D01*
X118874936Y-120614592D01*
X118854340Y-120850000D01*
X118874936Y-121085407D01*
X118906026Y-121201435D01*
X118936097Y-121313663D01*
X119035965Y-121527830D01*
X119171505Y-121721401D01*
X119338599Y-121888495D01*
X119524160Y-122018426D01*
X119563024Y-122062743D01*
X119577035Y-122120000D01*
X119563024Y-122177257D01*
X119524159Y-122221575D01*
X119338595Y-122351508D01*
X119171505Y-122518598D01*
X119035965Y-122712170D01*
X118936097Y-122926336D01*
X118874936Y-123154592D01*
X118854340Y-123389999D01*
X118874936Y-123625407D01*
X118904188Y-123734575D01*
X118936097Y-123853663D01*
X119035965Y-124067830D01*
X119171505Y-124261401D01*
X119338599Y-124428495D01*
X119524160Y-124558426D01*
X119563024Y-124602743D01*
X119577035Y-124660000D01*
X119563024Y-124717257D01*
X119524159Y-124761575D01*
X119338595Y-124891508D01*
X119171505Y-125058598D01*
X119035965Y-125252170D01*
X118936097Y-125466336D01*
X118874936Y-125694592D01*
X118854340Y-125930000D01*
X118874936Y-126165407D01*
X118919709Y-126332502D01*
X118936097Y-126393663D01*
X119035965Y-126607830D01*
X119171505Y-126801401D01*
X119338599Y-126968495D01*
X119524160Y-127098426D01*
X119563024Y-127142743D01*
X119577035Y-127200000D01*
X119563024Y-127257257D01*
X119524159Y-127301575D01*
X119338595Y-127431508D01*
X119171505Y-127598598D01*
X119035965Y-127792170D01*
X118936097Y-128006336D01*
X118874936Y-128234592D01*
X118854340Y-128470000D01*
X118874936Y-128705407D01*
X118919709Y-128872501D01*
X118936097Y-128933663D01*
X119035965Y-129147830D01*
X119171505Y-129341401D01*
X119338599Y-129508495D01*
X119524160Y-129638426D01*
X119563024Y-129682743D01*
X119577035Y-129740000D01*
X119563024Y-129797257D01*
X119524159Y-129841575D01*
X119338595Y-129971508D01*
X119171505Y-130138598D01*
X119035965Y-130332170D01*
X118936097Y-130546336D01*
X118874936Y-130774592D01*
X118854340Y-131010000D01*
X118874936Y-131245407D01*
X118919709Y-131412502D01*
X118936097Y-131473663D01*
X119035965Y-131687830D01*
X119171505Y-131881401D01*
X119338599Y-132048495D01*
X119532170Y-132184035D01*
X119746337Y-132283903D01*
X119974592Y-132345063D01*
X120210000Y-132365659D01*
X120445408Y-132345063D01*
X120673663Y-132283903D01*
X120887830Y-132184035D01*
X121081401Y-132048495D01*
X121248495Y-131881401D01*
X121378426Y-131695839D01*
X121422743Y-131656975D01*
X121480000Y-131642964D01*
X121537257Y-131656975D01*
X121581573Y-131695839D01*
X121711505Y-131881401D01*
X121878599Y-132048495D01*
X122072170Y-132184035D01*
X122286337Y-132283903D01*
X122514592Y-132345063D01*
X122750000Y-132365659D01*
X122985408Y-132345063D01*
X123213663Y-132283903D01*
X123427830Y-132184035D01*
X123621401Y-132048495D01*
X123788495Y-131881401D01*
X123924035Y-131687830D01*
X124023903Y-131473663D01*
X124085063Y-131245408D01*
X124105659Y-131010000D01*
X124085063Y-130774592D01*
X124023903Y-130546337D01*
X123924035Y-130332171D01*
X123924034Y-130332169D01*
X123922709Y-130329328D01*
X123912096Y-130261170D01*
X123939544Y-130197887D01*
X123949424Y-130185943D01*
X123957279Y-130177309D01*
X128533789Y-125600800D01*
X128549885Y-125587906D01*
X128551873Y-125585787D01*
X128551877Y-125585786D01*
X128597948Y-125536723D01*
X128600566Y-125534023D01*
X128620120Y-125514471D01*
X128622581Y-125511298D01*
X128630156Y-125502427D01*
X128660062Y-125470582D01*
X128669717Y-125453018D01*
X128680394Y-125436764D01*
X128692673Y-125420936D01*
X128710018Y-125380852D01*
X128715160Y-125370356D01*
X128736197Y-125332092D01*
X128741179Y-125312684D01*
X128747481Y-125294280D01*
X128755437Y-125275896D01*
X128762269Y-125232752D01*
X128764633Y-125221338D01*
X128775500Y-125179019D01*
X128775500Y-125158984D01*
X128777027Y-125139585D01*
X128777068Y-125139321D01*
X128780160Y-125119804D01*
X128776050Y-125076325D01*
X128775500Y-125064656D01*
X128775500Y-122554999D01*
X137669722Y-122554999D01*
X137688792Y-122772974D01*
X137745425Y-122984331D01*
X137776472Y-123050910D01*
X137837898Y-123182639D01*
X137963402Y-123361877D01*
X138118123Y-123516598D01*
X138297361Y-123642102D01*
X138495670Y-123734575D01*
X138707023Y-123791207D01*
X138925000Y-123810277D01*
X139142977Y-123791207D01*
X139354330Y-123734575D01*
X139552639Y-123642102D01*
X139731877Y-123516598D01*
X139886598Y-123361877D01*
X140012102Y-123182639D01*
X140104575Y-122984330D01*
X140161207Y-122772977D01*
X140180277Y-122555000D01*
X140161207Y-122337023D01*
X140104575Y-122125670D01*
X140012102Y-121927362D01*
X139886598Y-121748123D01*
X139731877Y-121593402D01*
X139552639Y-121467898D01*
X139461205Y-121425261D01*
X139354331Y-121375425D01*
X139142974Y-121318792D01*
X138925000Y-121299722D01*
X138707025Y-121318792D01*
X138495668Y-121375425D01*
X138297361Y-121467898D01*
X138118122Y-121593402D01*
X137963402Y-121748122D01*
X137837898Y-121927361D01*
X137745425Y-122125668D01*
X137688792Y-122337025D01*
X137669722Y-122554999D01*
X128775500Y-122554999D01*
X128775500Y-117674999D01*
X137669722Y-117674999D01*
X137688792Y-117892974D01*
X137745425Y-118104331D01*
X137795261Y-118211205D01*
X137837898Y-118302639D01*
X137963402Y-118481877D01*
X138118123Y-118636598D01*
X138297361Y-118762102D01*
X138495670Y-118854575D01*
X138707023Y-118911207D01*
X138925000Y-118930277D01*
X139142977Y-118911207D01*
X139354330Y-118854575D01*
X139552639Y-118762102D01*
X139731877Y-118636598D01*
X139886598Y-118481877D01*
X140012102Y-118302639D01*
X140104575Y-118104330D01*
X140161207Y-117892977D01*
X140180277Y-117675000D01*
X140161207Y-117457023D01*
X140104575Y-117245670D01*
X140012102Y-117047362D01*
X139886598Y-116868123D01*
X139731877Y-116713402D01*
X139552639Y-116587898D01*
X139461205Y-116545261D01*
X139354331Y-116495425D01*
X139142974Y-116438792D01*
X138925000Y-116419722D01*
X138707025Y-116438792D01*
X138495668Y-116495425D01*
X138297361Y-116587898D01*
X138118122Y-116713402D01*
X137963402Y-116868122D01*
X137837898Y-117047361D01*
X137745425Y-117245668D01*
X137688792Y-117457025D01*
X137669722Y-117674999D01*
X128775500Y-117674999D01*
X128775500Y-117310452D01*
X128784939Y-117262999D01*
X128811819Y-117222771D01*
X140793177Y-105241413D01*
X140833405Y-105214533D01*
X140880858Y-105205094D01*
X143699363Y-105205094D01*
X143719869Y-105207358D01*
X143722772Y-105207266D01*
X143722774Y-105207267D01*
X143789979Y-105205155D01*
X143793875Y-105205094D01*
X143821456Y-105205094D01*
X143821457Y-105205094D01*
X143825426Y-105204592D01*
X143837072Y-105203674D01*
X143880734Y-105202303D01*
X143899966Y-105196714D01*
X143919025Y-105192768D01*
X143925303Y-105191975D01*
X143938899Y-105190258D01*
X143979514Y-105174176D01*
X143990551Y-105170397D01*
X144032497Y-105158212D01*
X144049736Y-105148016D01*
X144067209Y-105139456D01*
X144085839Y-105132080D01*
X144121171Y-105106408D01*
X144130937Y-105099994D01*
X144168525Y-105077765D01*
X144168524Y-105077765D01*
X144168527Y-105077764D01*
X144182692Y-105063598D01*
X144197480Y-105050967D01*
X144213694Y-105039188D01*
X144241545Y-105005520D01*
X144249386Y-104996903D01*
X146733789Y-102512501D01*
X146749885Y-102499607D01*
X146751873Y-102497488D01*
X146751877Y-102497487D01*
X146797948Y-102448424D01*
X146800566Y-102445724D01*
X146820120Y-102426172D01*
X146822581Y-102422999D01*
X146830156Y-102414128D01*
X146860062Y-102382283D01*
X146869717Y-102364719D01*
X146880394Y-102348465D01*
X146892673Y-102332637D01*
X146910018Y-102292553D01*
X146915160Y-102282057D01*
X146936197Y-102243793D01*
X146941179Y-102224385D01*
X146947481Y-102205981D01*
X146955437Y-102187597D01*
X146962269Y-102144453D01*
X146964633Y-102133039D01*
X146975500Y-102090720D01*
X146975500Y-102070685D01*
X146977027Y-102051286D01*
X146979275Y-102037090D01*
X146980160Y-102031505D01*
X146976050Y-101988026D01*
X146975500Y-101976357D01*
X146975500Y-94492458D01*
X146977763Y-94471954D01*
X146975561Y-94401862D01*
X146975500Y-94397968D01*
X146975500Y-94370374D01*
X146975500Y-94370367D01*
X146974995Y-94366370D01*
X146974080Y-94354740D01*
X146973947Y-94350500D01*
X146972709Y-94311090D01*
X146967120Y-94291857D01*
X146963174Y-94272799D01*
X146960664Y-94252925D01*
X146955179Y-94239072D01*
X146944585Y-94212314D01*
X146940804Y-94201269D01*
X146928619Y-94159330D01*
X146928618Y-94159329D01*
X146928618Y-94159327D01*
X146918417Y-94142078D01*
X146909856Y-94124602D01*
X146899462Y-94098347D01*
X146893925Y-94057911D01*
X146892232Y-94058089D01*
X146890870Y-94045127D01*
X146876926Y-93912459D01*
X146888797Y-93845142D01*
X146934537Y-93794342D01*
X147000247Y-93775500D01*
X147135790Y-93775500D01*
X147201500Y-93794342D01*
X147247241Y-93845142D01*
X147259110Y-93912458D01*
X147251995Y-93980157D01*
X147249399Y-94004858D01*
X147269185Y-94193115D01*
X147327679Y-94373142D01*
X147422325Y-94537074D01*
X147548988Y-94677747D01*
X147702128Y-94789009D01*
X147875056Y-94866002D01*
X148003595Y-94893324D01*
X148054156Y-94916901D01*
X148089264Y-94960256D01*
X148101814Y-95014614D01*
X148101814Y-98672342D01*
X148099549Y-98692848D01*
X148101753Y-98762959D01*
X148101814Y-98766854D01*
X148101814Y-98794435D01*
X148102317Y-98798420D01*
X148103232Y-98810053D01*
X148104604Y-98853712D01*
X148110193Y-98872946D01*
X148114139Y-98892002D01*
X148116649Y-98911878D01*
X148132728Y-98952490D01*
X148136511Y-98963537D01*
X148148696Y-99005477D01*
X148158894Y-99022721D01*
X148167450Y-99040186D01*
X148174828Y-99058818D01*
X148174829Y-99058819D01*
X148200494Y-99094145D01*
X148206907Y-99103908D01*
X148229140Y-99141502D01*
X148229143Y-99141505D01*
X148229144Y-99141506D01*
X148243309Y-99155671D01*
X148255941Y-99170461D01*
X148267720Y-99186673D01*
X148301372Y-99214512D01*
X148310013Y-99222375D01*
X151063181Y-101975544D01*
X151090061Y-102015772D01*
X151099500Y-102063225D01*
X151099500Y-110325048D01*
X151097235Y-110345554D01*
X151099439Y-110415665D01*
X151099500Y-110419560D01*
X151099500Y-110447141D01*
X151100003Y-110451126D01*
X151100918Y-110462759D01*
X151102290Y-110506418D01*
X151107879Y-110525652D01*
X151111825Y-110544708D01*
X151114335Y-110564584D01*
X151130414Y-110605196D01*
X151134197Y-110616243D01*
X151146382Y-110658183D01*
X151156580Y-110675427D01*
X151165136Y-110692892D01*
X151172514Y-110711524D01*
X151172515Y-110711525D01*
X151198180Y-110746851D01*
X151204593Y-110756614D01*
X151226826Y-110794208D01*
X151226829Y-110794211D01*
X151226830Y-110794212D01*
X151240995Y-110808377D01*
X151253627Y-110823167D01*
X151265406Y-110839379D01*
X151299058Y-110867218D01*
X151307699Y-110875081D01*
X168773181Y-128340564D01*
X168800061Y-128380792D01*
X168809500Y-128428245D01*
X168809500Y-129292256D01*
X168807235Y-129312762D01*
X168809439Y-129382873D01*
X168809500Y-129386768D01*
X168809500Y-129414349D01*
X168810003Y-129418334D01*
X168810918Y-129429967D01*
X168812290Y-129473626D01*
X168817879Y-129492860D01*
X168821825Y-129511916D01*
X168824335Y-129531792D01*
X168840414Y-129572404D01*
X168844197Y-129583451D01*
X168856382Y-129625391D01*
X168866580Y-129642635D01*
X168875136Y-129660100D01*
X168882514Y-129678732D01*
X168882515Y-129678733D01*
X168908180Y-129714059D01*
X168914593Y-129723822D01*
X168936826Y-129761416D01*
X168936829Y-129761419D01*
X168936830Y-129761420D01*
X168950995Y-129775585D01*
X168963627Y-129790375D01*
X168975406Y-129806587D01*
X169009058Y-129834426D01*
X169017699Y-129842289D01*
X169721875Y-130546465D01*
X169753969Y-130602052D01*
X169753969Y-130666239D01*
X169724936Y-130774592D01*
X169704340Y-131010000D01*
X169724936Y-131245407D01*
X169769709Y-131412502D01*
X169786097Y-131473663D01*
X169885965Y-131687830D01*
X170021505Y-131881401D01*
X170188599Y-132048495D01*
X170382170Y-132184035D01*
X170596337Y-132283903D01*
X170824592Y-132345063D01*
X171060000Y-132365659D01*
X171295408Y-132345063D01*
X171523663Y-132283903D01*
X171737830Y-132184035D01*
X171931401Y-132048495D01*
X172098495Y-131881401D01*
X172228426Y-131695839D01*
X172272743Y-131656975D01*
X172330000Y-131642964D01*
X172387257Y-131656975D01*
X172431573Y-131695839D01*
X172561505Y-131881401D01*
X172728599Y-132048495D01*
X172922170Y-132184035D01*
X173136337Y-132283903D01*
X173364592Y-132345063D01*
X173600000Y-132365659D01*
X173835408Y-132345063D01*
X174063663Y-132283903D01*
X174277830Y-132184035D01*
X174471401Y-132048495D01*
X174638495Y-131881401D01*
X174774035Y-131687830D01*
X174873903Y-131473663D01*
X174935063Y-131245408D01*
X174955659Y-131010000D01*
X174935063Y-130774592D01*
X174873903Y-130546337D01*
X174774035Y-130332171D01*
X174638495Y-130138599D01*
X174471401Y-129971505D01*
X174285839Y-129841573D01*
X174246976Y-129797257D01*
X174232965Y-129740000D01*
X174246976Y-129682743D01*
X174285839Y-129638426D01*
X174471401Y-129508495D01*
X174638495Y-129341401D01*
X174774035Y-129147830D01*
X174873903Y-128933663D01*
X174935063Y-128705408D01*
X174955659Y-128470000D01*
X174935063Y-128234592D01*
X174873903Y-128006337D01*
X174774035Y-127792171D01*
X174638495Y-127598599D01*
X174471401Y-127431505D01*
X174285839Y-127301573D01*
X174246976Y-127257257D01*
X174232965Y-127200000D01*
X174246976Y-127142743D01*
X174285839Y-127098426D01*
X174471401Y-126968495D01*
X174638495Y-126801401D01*
X174774035Y-126607830D01*
X174873903Y-126393663D01*
X174935063Y-126165408D01*
X174955659Y-125930000D01*
X174935063Y-125694592D01*
X174873903Y-125466337D01*
X174774035Y-125252171D01*
X174638495Y-125058599D01*
X174471401Y-124891505D01*
X174285839Y-124761573D01*
X174246975Y-124717257D01*
X174232964Y-124660000D01*
X174246975Y-124602743D01*
X174285839Y-124558426D01*
X174471401Y-124428495D01*
X174638495Y-124261401D01*
X174774035Y-124067830D01*
X174873903Y-123853663D01*
X174935063Y-123625408D01*
X174955659Y-123390000D01*
X174935063Y-123154592D01*
X174908143Y-123054126D01*
X174908143Y-122989939D01*
X174940235Y-122934353D01*
X176783789Y-121090800D01*
X176799885Y-121077906D01*
X176801873Y-121075787D01*
X176801877Y-121075786D01*
X176847948Y-121026723D01*
X176850566Y-121024023D01*
X176870120Y-121004471D01*
X176872581Y-121001298D01*
X176880156Y-120992427D01*
X176910062Y-120960582D01*
X176919712Y-120943027D01*
X176930400Y-120926757D01*
X176942671Y-120910938D01*
X176942673Y-120910936D01*
X176960026Y-120870832D01*
X176965157Y-120860362D01*
X176970854Y-120850000D01*
X176986197Y-120822092D01*
X176991175Y-120802699D01*
X176997481Y-120784282D01*
X176999018Y-120780728D01*
X177005438Y-120765896D01*
X177012272Y-120722745D01*
X177014635Y-120711331D01*
X177025500Y-120669019D01*
X177025500Y-120648984D01*
X177027027Y-120629585D01*
X177030160Y-120609804D01*
X177026050Y-120566325D01*
X177025500Y-120554656D01*
X177025500Y-68218712D01*
X177033736Y-68174274D01*
X177057351Y-68135739D01*
X177083033Y-68107216D01*
X177177679Y-67943284D01*
X177197365Y-67882697D01*
X177236174Y-67763256D01*
X177255960Y-67575000D01*
X177236174Y-67386744D01*
X177177679Y-67206716D01*
X177177679Y-67206715D01*
X177083033Y-67042783D01*
X176956370Y-66902110D01*
X176803230Y-66790848D01*
X176630302Y-66713855D01*
X176445148Y-66674500D01*
X176445146Y-66674500D01*
X176255854Y-66674500D01*
X176255852Y-66674500D01*
X176070697Y-66713855D01*
X175897772Y-66790847D01*
X175863360Y-66815849D01*
X175744629Y-66902112D01*
X175744627Y-66902113D01*
X175744071Y-66902518D01*
X175684146Y-66925521D01*
X175620749Y-66915479D01*
X175504802Y-66863855D01*
X175319648Y-66824500D01*
X175319646Y-66824500D01*
X175130354Y-66824500D01*
X175130352Y-66824500D01*
X174945197Y-66863855D01*
X174772269Y-66940848D01*
X174619129Y-67052110D01*
X174492466Y-67192783D01*
X174397820Y-67356715D01*
X174339326Y-67536742D01*
X174319540Y-67725000D01*
X174339326Y-67913257D01*
X174397820Y-68093284D01*
X174492466Y-68257215D01*
X174494056Y-68258981D01*
X174498775Y-68268143D01*
X174498983Y-68268503D01*
X174498965Y-68268512D01*
X174522969Y-68315114D01*
X174520492Y-68378208D01*
X174487266Y-68431901D01*
X174431909Y-68462272D01*
X174368772Y-68461446D01*
X174314228Y-68429637D01*
X172296772Y-66412181D01*
X172266522Y-66362818D01*
X172261980Y-66305102D01*
X172284135Y-66251615D01*
X172328158Y-66214015D01*
X172384453Y-66200500D01*
X174817256Y-66200500D01*
X174837762Y-66202764D01*
X174840665Y-66202672D01*
X174840667Y-66202673D01*
X174907872Y-66200561D01*
X174911768Y-66200500D01*
X174939349Y-66200500D01*
X174939350Y-66200500D01*
X174943319Y-66199998D01*
X174954965Y-66199080D01*
X174998627Y-66197709D01*
X175017859Y-66192120D01*
X175036918Y-66188174D01*
X175043196Y-66187381D01*
X175056792Y-66185664D01*
X175097407Y-66169582D01*
X175108444Y-66165803D01*
X175150390Y-66153618D01*
X175167629Y-66143422D01*
X175185102Y-66134862D01*
X175203732Y-66127486D01*
X175239064Y-66101814D01*
X175248830Y-66095400D01*
X175286418Y-66073171D01*
X175286417Y-66073171D01*
X175286420Y-66073170D01*
X175300585Y-66059004D01*
X175315373Y-66046373D01*
X175331587Y-66034594D01*
X175359438Y-66000926D01*
X175367279Y-65992309D01*
X176333788Y-65025801D01*
X176349885Y-65012906D01*
X176351873Y-65010787D01*
X176351877Y-65010786D01*
X176397948Y-64961723D01*
X176400566Y-64959023D01*
X176420120Y-64939471D01*
X176422581Y-64936298D01*
X176430156Y-64927427D01*
X176460062Y-64895582D01*
X176469717Y-64878018D01*
X176480394Y-64861764D01*
X176492673Y-64845936D01*
X176510018Y-64805852D01*
X176515160Y-64795356D01*
X176536197Y-64757092D01*
X176541179Y-64737684D01*
X176547481Y-64719280D01*
X176555437Y-64700896D01*
X176562269Y-64657752D01*
X176564633Y-64646338D01*
X176575500Y-64604019D01*
X176575500Y-64583984D01*
X176577027Y-64564585D01*
X176577068Y-64564321D01*
X176580160Y-64544804D01*
X176576050Y-64501325D01*
X176575500Y-64489656D01*
X176575500Y-57482740D01*
X176577763Y-57462236D01*
X176576692Y-57428158D01*
X176575561Y-57392144D01*
X176575500Y-57388250D01*
X176575500Y-57360657D01*
X176575500Y-57360650D01*
X176574995Y-57356653D01*
X176574080Y-57345023D01*
X176574051Y-57344091D01*
X176572709Y-57301373D01*
X176567120Y-57282137D01*
X176563176Y-57263093D01*
X176560664Y-57243208D01*
X176544582Y-57202591D01*
X176540798Y-57191540D01*
X176540496Y-57190500D01*
X176528617Y-57149610D01*
X176522091Y-57138575D01*
X176518421Y-57132369D01*
X176509863Y-57114902D01*
X176502486Y-57096268D01*
X176476798Y-57060912D01*
X176470409Y-57051184D01*
X176448170Y-57013579D01*
X176434006Y-56999415D01*
X176421369Y-56984620D01*
X176409595Y-56968414D01*
X176409594Y-56968413D01*
X176375935Y-56940568D01*
X176367305Y-56932714D01*
X175175802Y-55741211D01*
X175162906Y-55725113D01*
X175111775Y-55677098D01*
X175108978Y-55674387D01*
X175089470Y-55654879D01*
X175086290Y-55652412D01*
X175077424Y-55644839D01*
X175045582Y-55614938D01*
X175028024Y-55605285D01*
X175011764Y-55594604D01*
X174995936Y-55582327D01*
X174955851Y-55564980D01*
X174945361Y-55559841D01*
X174907091Y-55538802D01*
X174887691Y-55533821D01*
X174869284Y-55527519D01*
X174850897Y-55519562D01*
X174807758Y-55512729D01*
X174796324Y-55510361D01*
X174754019Y-55499500D01*
X174733984Y-55499500D01*
X174714586Y-55497973D01*
X174710016Y-55497249D01*
X174694806Y-55494840D01*
X174694804Y-55494840D01*
X174691315Y-55495169D01*
X174624513Y-55482788D01*
X174574260Y-55437063D01*
X174558798Y-55382782D01*
X174556708Y-55383058D01*
X174549903Y-55331373D01*
X174538417Y-55244129D01*
X174487903Y-55122177D01*
X174407546Y-55017454D01*
X174384800Y-55000000D01*
X174302824Y-54937096D01*
X174180871Y-54886583D01*
X174050001Y-54869353D01*
X174050000Y-54869353D01*
X173050000Y-54869353D01*
X173049998Y-54869353D01*
X172911817Y-54886415D01*
X172911386Y-54882931D01*
X172878467Y-54886792D01*
X172750000Y-54869353D01*
X171600000Y-54869353D01*
X171599999Y-54869353D01*
X171469127Y-54886583D01*
X171347177Y-54937096D01*
X171242453Y-55017453D01*
X171162096Y-55122177D01*
X171111583Y-55244127D01*
X171108613Y-55266687D01*
X171087248Y-55321624D01*
X171042930Y-55360490D01*
X170985674Y-55374500D01*
X170749499Y-55374500D01*
X170687499Y-55357887D01*
X170642112Y-55312500D01*
X170625499Y-55250500D01*
X170625499Y-55102130D01*
X170623246Y-55081171D01*
X170619091Y-55042517D01*
X170568796Y-54907669D01*
X170482546Y-54792454D01*
X170367331Y-54706204D01*
X170232483Y-54655909D01*
X170172873Y-54649500D01*
X170172869Y-54649500D01*
X168377130Y-54649500D01*
X168317515Y-54655909D01*
X168182669Y-54706204D01*
X168067454Y-54792454D01*
X167981204Y-54907668D01*
X167930909Y-55042515D01*
X167930909Y-55042517D01*
X167925704Y-55090936D01*
X167924500Y-55102131D01*
X167924500Y-55250500D01*
X167907887Y-55312500D01*
X167862500Y-55357887D01*
X167800500Y-55374500D01*
X167354647Y-55374500D01*
X167292647Y-55357887D01*
X167247260Y-55312500D01*
X167230647Y-55250500D01*
X167230647Y-55224999D01*
X167228034Y-55205156D01*
X167213417Y-55094129D01*
X167162903Y-54972177D01*
X167082546Y-54867454D01*
X167067669Y-54856038D01*
X166977824Y-54787096D01*
X166855871Y-54736583D01*
X166725001Y-54719353D01*
X166725000Y-54719353D01*
X165725000Y-54719353D01*
X165724998Y-54719353D01*
X165664696Y-54726799D01*
X165596494Y-54715834D01*
X165544741Y-54670079D01*
X165525500Y-54603734D01*
X165525500Y-52334322D01*
X165542113Y-52272322D01*
X165602179Y-52168284D01*
X165619787Y-52114091D01*
X165660674Y-51988256D01*
X165680460Y-51800000D01*
X165660674Y-51611744D01*
X165602179Y-51431716D01*
X165602179Y-51431715D01*
X165507533Y-51267783D01*
X165380870Y-51127110D01*
X165227730Y-51015848D01*
X165054802Y-50938855D01*
X164869648Y-50899500D01*
X164869646Y-50899500D01*
X164680354Y-50899500D01*
X164680352Y-50899500D01*
X164495197Y-50938855D01*
X164322269Y-51015848D01*
X164169129Y-51127110D01*
X164042466Y-51267783D01*
X163947820Y-51431715D01*
X163889326Y-51611742D01*
X163869540Y-51800000D01*
X163889326Y-51988257D01*
X163918431Y-52077831D01*
X163924500Y-52116149D01*
X163924500Y-54816179D01*
X163917919Y-54856038D01*
X163898877Y-54891663D01*
X163886597Y-54907668D01*
X163837095Y-54972179D01*
X163786583Y-55094127D01*
X163769353Y-55224999D01*
X163769353Y-56010401D01*
X163755838Y-56066696D01*
X163718238Y-56110719D01*
X163664751Y-56132874D01*
X163607035Y-56128332D01*
X163557672Y-56098082D01*
X162431769Y-54972179D01*
X161115402Y-53655811D01*
X161102506Y-53639713D01*
X161051375Y-53591698D01*
X161048578Y-53588987D01*
X161029070Y-53569479D01*
X161025890Y-53567012D01*
X161017024Y-53559439D01*
X160985182Y-53529538D01*
X160967624Y-53519885D01*
X160951364Y-53509204D01*
X160935536Y-53496927D01*
X160895451Y-53479580D01*
X160884961Y-53474441D01*
X160846691Y-53453402D01*
X160827291Y-53448421D01*
X160808884Y-53442119D01*
X160790497Y-53434162D01*
X160747358Y-53427329D01*
X160735924Y-53424961D01*
X160693619Y-53414100D01*
X160673584Y-53414100D01*
X160654186Y-53412573D01*
X160646762Y-53411397D01*
X160634405Y-53409440D01*
X160634404Y-53409440D01*
X160601351Y-53412564D01*
X160590925Y-53413550D01*
X160579256Y-53414100D01*
X154667349Y-53414100D01*
X154611055Y-53400585D01*
X154567032Y-53362986D01*
X154544876Y-53309500D01*
X154549417Y-53251784D01*
X154554478Y-53236207D01*
X154573488Y-53177700D01*
X154603734Y-53128342D01*
X155095258Y-52636819D01*
X155135487Y-52609939D01*
X155182940Y-52600500D01*
X155482133Y-52600500D01*
X155532569Y-52611221D01*
X155644697Y-52661144D01*
X155829852Y-52700500D01*
X155829854Y-52700500D01*
X156019146Y-52700500D01*
X156019148Y-52700500D01*
X156204301Y-52661145D01*
X156221868Y-52653322D01*
X156306815Y-52615501D01*
X156357250Y-52604781D01*
X156407684Y-52615501D01*
X156445122Y-52632170D01*
X156510198Y-52661145D01*
X156695352Y-52700500D01*
X156695354Y-52700500D01*
X156884646Y-52700500D01*
X156884648Y-52700500D01*
X157008084Y-52674262D01*
X157069803Y-52661144D01*
X157242730Y-52584151D01*
X157349312Y-52506715D01*
X157395870Y-52472889D01*
X157513018Y-52342784D01*
X157522533Y-52332216D01*
X157617179Y-52168284D01*
X157675674Y-51988256D01*
X157695460Y-51800000D01*
X157675674Y-51611744D01*
X157617179Y-51431716D01*
X157617179Y-51431715D01*
X157522533Y-51267783D01*
X157395870Y-51127111D01*
X157298339Y-51056251D01*
X157242730Y-51015849D01*
X157182961Y-50989237D01*
X157145718Y-50963640D01*
X155542262Y-49360184D01*
X155509850Y-49339818D01*
X155498510Y-49331772D01*
X155468586Y-49307908D01*
X155434095Y-49291298D01*
X155421933Y-49284576D01*
X155406327Y-49274770D01*
X155389520Y-49264209D01*
X155353398Y-49251570D01*
X155340553Y-49246250D01*
X155306058Y-49229638D01*
X155268736Y-49221119D01*
X155255380Y-49217272D01*
X155219252Y-49204631D01*
X155181219Y-49200345D01*
X155167518Y-49198017D01*
X155130196Y-49189500D01*
X155130194Y-49189500D01*
X155084954Y-49189500D01*
X147244827Y-49189500D01*
X147194391Y-49178779D01*
X147059802Y-49118855D01*
X146874648Y-49079500D01*
X146874646Y-49079500D01*
X146685354Y-49079500D01*
X146685352Y-49079500D01*
X146500197Y-49118855D01*
X146388069Y-49168779D01*
X146337633Y-49179500D01*
X143174500Y-49179500D01*
X143112500Y-49162887D01*
X143067113Y-49117500D01*
X143050500Y-49055500D01*
X143050500Y-45389804D01*
X143041982Y-45352488D01*
X143039655Y-45338800D01*
X143035368Y-45300745D01*
X143022724Y-45264610D01*
X143018875Y-45251249D01*
X143018324Y-45248837D01*
X143010359Y-45213939D01*
X142993754Y-45179458D01*
X142988433Y-45166614D01*
X142975789Y-45130478D01*
X142955418Y-45098058D01*
X142948698Y-45085899D01*
X142932091Y-45051413D01*
X142932090Y-45051412D01*
X142932090Y-45051411D01*
X142908225Y-45021486D01*
X142900177Y-45010143D01*
X142879816Y-44977738D01*
X142769700Y-44867622D01*
X142769698Y-44867619D01*
X140104252Y-42202174D01*
X140072262Y-42170184D01*
X140039850Y-42149818D01*
X140028510Y-42141772D01*
X139998586Y-42117908D01*
X139964095Y-42101298D01*
X139951933Y-42094576D01*
X139936327Y-42084770D01*
X139919520Y-42074209D01*
X139883398Y-42061570D01*
X139870553Y-42056250D01*
X139836058Y-42039638D01*
X139798736Y-42031119D01*
X139785380Y-42027272D01*
X139749252Y-42014631D01*
X139711219Y-42010345D01*
X139697518Y-42008017D01*
X139660196Y-41999500D01*
X139660194Y-41999500D01*
X139614954Y-41999500D01*
X136842367Y-41999500D01*
X136791931Y-41988779D01*
X136679802Y-41938855D01*
X136494648Y-41899500D01*
X136494646Y-41899500D01*
X136305354Y-41899500D01*
X136305352Y-41899500D01*
X136120197Y-41938855D01*
X135947269Y-42015848D01*
X135794129Y-42127110D01*
X135667466Y-42267783D01*
X135572820Y-42431715D01*
X135514326Y-42611742D01*
X135494540Y-42800000D01*
X135514326Y-42988257D01*
X135572820Y-43168284D01*
X135667466Y-43332216D01*
X135794129Y-43472889D01*
X135947269Y-43584151D01*
X136120197Y-43661144D01*
X136305352Y-43700500D01*
X136305354Y-43700500D01*
X136494646Y-43700500D01*
X136494648Y-43700500D01*
X136618084Y-43674262D01*
X136679803Y-43661144D01*
X136791930Y-43611221D01*
X136842367Y-43600500D01*
X139187060Y-43600500D01*
X139234513Y-43609939D01*
X139274741Y-43636819D01*
X141413181Y-45775259D01*
X141440061Y-45815487D01*
X141449500Y-45862940D01*
X141449500Y-52427282D01*
X141432887Y-52489282D01*
X141422821Y-52506715D01*
X141364326Y-52686742D01*
X141344540Y-52875000D01*
X141364326Y-53063257D01*
X141422820Y-53243284D01*
X141422887Y-53243399D01*
X141423023Y-53243907D01*
X141426848Y-53255679D01*
X141426231Y-53255879D01*
X141439500Y-53305399D01*
X141439500Y-56177060D01*
X141430061Y-56224513D01*
X141403181Y-56264741D01*
X140152432Y-57515488D01*
X140115187Y-57541086D01*
X139947269Y-57615848D01*
X139794129Y-57727110D01*
X139667466Y-57867783D01*
X139572820Y-58031715D01*
X139514326Y-58211742D01*
X139495753Y-58388461D01*
X139475233Y-58444840D01*
X139430646Y-58484985D01*
X139372432Y-58499500D01*
X134035452Y-58499500D01*
X133987999Y-58490061D01*
X133947771Y-58463181D01*
X132364591Y-56880000D01*
X134544722Y-56880000D01*
X134563792Y-57097974D01*
X134620425Y-57309331D01*
X134645646Y-57363417D01*
X134712898Y-57507639D01*
X134838402Y-57686877D01*
X134993123Y-57841598D01*
X135172361Y-57967102D01*
X135370670Y-58059575D01*
X135582023Y-58116207D01*
X135800000Y-58135277D01*
X136017977Y-58116207D01*
X136229330Y-58059575D01*
X136427639Y-57967102D01*
X136606877Y-57841598D01*
X136761598Y-57686877D01*
X136887102Y-57507639D01*
X136979575Y-57309330D01*
X137036207Y-57097977D01*
X137055277Y-56880000D01*
X137053931Y-56864620D01*
X137037638Y-56678376D01*
X137036207Y-56662023D01*
X136979575Y-56450670D01*
X136887102Y-56252362D01*
X136761598Y-56073123D01*
X136606877Y-55918402D01*
X136427639Y-55792898D01*
X136282274Y-55725113D01*
X136229331Y-55700425D01*
X136017974Y-55643792D01*
X135800000Y-55624722D01*
X135582025Y-55643792D01*
X135370668Y-55700425D01*
X135172361Y-55792898D01*
X134993122Y-55918402D01*
X134838402Y-56073122D01*
X134712898Y-56252361D01*
X134620425Y-56450668D01*
X134563792Y-56662025D01*
X134544722Y-56880000D01*
X132364591Y-56880000D01*
X131471819Y-55987228D01*
X131444939Y-55947000D01*
X131435500Y-55899547D01*
X131435500Y-52000000D01*
X134544722Y-52000000D01*
X134563792Y-52217974D01*
X134620425Y-52429331D01*
X134624747Y-52438599D01*
X134712898Y-52627639D01*
X134838402Y-52806877D01*
X134993123Y-52961598D01*
X135172361Y-53087102D01*
X135370670Y-53179575D01*
X135582023Y-53236207D01*
X135800000Y-53255277D01*
X136017977Y-53236207D01*
X136229330Y-53179575D01*
X136427639Y-53087102D01*
X136606877Y-52961598D01*
X136761598Y-52806877D01*
X136887102Y-52627639D01*
X136979575Y-52429330D01*
X137036207Y-52217977D01*
X137055277Y-52000000D01*
X137036207Y-51782023D01*
X136979575Y-51570670D01*
X136887102Y-51372362D01*
X136761598Y-51193123D01*
X136606877Y-51038402D01*
X136427639Y-50912898D01*
X136336205Y-50870261D01*
X136229331Y-50820425D01*
X136017974Y-50763792D01*
X135800000Y-50744722D01*
X135582025Y-50763792D01*
X135370668Y-50820425D01*
X135172361Y-50912898D01*
X134993122Y-51038402D01*
X134838402Y-51193122D01*
X134712898Y-51372361D01*
X134620425Y-51570668D01*
X134563792Y-51782025D01*
X134544722Y-52000000D01*
X131435500Y-52000000D01*
X131435500Y-51887581D01*
X131443736Y-51843143D01*
X131467348Y-51804611D01*
X131532533Y-51732216D01*
X131569682Y-51667873D01*
X131627179Y-51568284D01*
X131647021Y-51507216D01*
X131685674Y-51388256D01*
X131705460Y-51200000D01*
X131685674Y-51011744D01*
X131649566Y-50900615D01*
X131627179Y-50831715D01*
X131532533Y-50667783D01*
X131405870Y-50527110D01*
X131252730Y-50415848D01*
X131079802Y-50338855D01*
X130894648Y-50299500D01*
X130894646Y-50299500D01*
X130705354Y-50299500D01*
X130705352Y-50299500D01*
X130520197Y-50338855D01*
X130347269Y-50415848D01*
X130194129Y-50527110D01*
X130067466Y-50667783D01*
X129972820Y-50831715D01*
X129914326Y-51011742D01*
X129894540Y-51200000D01*
X129914326Y-51388257D01*
X129972820Y-51568284D01*
X130067464Y-51732213D01*
X130067467Y-51732216D01*
X130152652Y-51826823D01*
X130176264Y-51865355D01*
X130184500Y-51909793D01*
X130184500Y-56127256D01*
X130182235Y-56147762D01*
X130184439Y-56217873D01*
X130184500Y-56221768D01*
X130184500Y-56249349D01*
X130185003Y-56253334D01*
X130185918Y-56264967D01*
X130187290Y-56308626D01*
X130192879Y-56327860D01*
X130196825Y-56346916D01*
X130199335Y-56366792D01*
X130215414Y-56407404D01*
X130219197Y-56418451D01*
X130231382Y-56460391D01*
X130241580Y-56477635D01*
X130250136Y-56495100D01*
X130257514Y-56513732D01*
X130257515Y-56513733D01*
X130283180Y-56549059D01*
X130289593Y-56558822D01*
X130311826Y-56596416D01*
X130311829Y-56596419D01*
X130311830Y-56596420D01*
X130325995Y-56610585D01*
X130338627Y-56625375D01*
X130350406Y-56641587D01*
X130384058Y-56669426D01*
X130392699Y-56677289D01*
X133224197Y-59508787D01*
X133237098Y-59524889D01*
X133239212Y-59526874D01*
X133239214Y-59526877D01*
X133270089Y-59555871D01*
X133288240Y-59572916D01*
X133291036Y-59575626D01*
X133310530Y-59595120D01*
X133313704Y-59597582D01*
X133322568Y-59605153D01*
X133354418Y-59635062D01*
X133364914Y-59640832D01*
X133371974Y-59644714D01*
X133388231Y-59655392D01*
X133404064Y-59667674D01*
X133420185Y-59674649D01*
X133444156Y-59685023D01*
X133454643Y-59690160D01*
X133492908Y-59711197D01*
X133512316Y-59716180D01*
X133530710Y-59722478D01*
X133549105Y-59730438D01*
X133592254Y-59737271D01*
X133603680Y-59739638D01*
X133619222Y-59743629D01*
X133645980Y-59750500D01*
X133645981Y-59750500D01*
X133666016Y-59750500D01*
X133685413Y-59752026D01*
X133705196Y-59755160D01*
X133748674Y-59751050D01*
X133760344Y-59750500D01*
X140617561Y-59750500D01*
X140638067Y-59752764D01*
X140640970Y-59752672D01*
X140640972Y-59752673D01*
X140708177Y-59750561D01*
X140712073Y-59750500D01*
X140739654Y-59750500D01*
X140739655Y-59750500D01*
X140743624Y-59749998D01*
X140755270Y-59749080D01*
X140798932Y-59747709D01*
X140818164Y-59742120D01*
X140837223Y-59738174D01*
X140846765Y-59736968D01*
X140857097Y-59735664D01*
X140860774Y-59734207D01*
X140906423Y-59725500D01*
X146480548Y-59725500D01*
X146536843Y-59739015D01*
X146580866Y-59776615D01*
X146603021Y-59830102D01*
X146598479Y-59887818D01*
X146568229Y-59937179D01*
X146387955Y-60117454D01*
X145740083Y-60765324D01*
X145723985Y-60778221D01*
X145675971Y-60829350D01*
X145673266Y-60832142D01*
X145653749Y-60851659D01*
X145651290Y-60854830D01*
X145643717Y-60863697D01*
X145613810Y-60895545D01*
X145604160Y-60913099D01*
X145593484Y-60929353D01*
X145581201Y-60945188D01*
X145563850Y-60985283D01*
X145558713Y-60995769D01*
X145537677Y-61034032D01*
X145532696Y-61053434D01*
X145526395Y-61071836D01*
X145518436Y-61090227D01*
X145511603Y-61133367D01*
X145509235Y-61144799D01*
X145498375Y-61187103D01*
X145498375Y-61207141D01*
X145496848Y-61226540D01*
X145493715Y-61246319D01*
X145497825Y-61289800D01*
X145498375Y-61301469D01*
X145498375Y-61977438D01*
X145490139Y-62021876D01*
X145466527Y-62060407D01*
X145433420Y-62097176D01*
X145391339Y-62143911D01*
X145296695Y-62307840D01*
X145238201Y-62487867D01*
X145220247Y-62658697D01*
X145218415Y-62676125D01*
X145219638Y-62687757D01*
X145238201Y-62864382D01*
X145300723Y-63056804D01*
X145299760Y-63057116D01*
X145310761Y-63092015D01*
X145303753Y-63145228D01*
X145274913Y-63190495D01*
X144455769Y-64009638D01*
X144398086Y-64042274D01*
X144331834Y-64040539D01*
X144275938Y-64004929D01*
X144205870Y-63927110D01*
X144052730Y-63815848D01*
X143879802Y-63738855D01*
X143694648Y-63699500D01*
X143694646Y-63699500D01*
X143505354Y-63699500D01*
X143505352Y-63699500D01*
X143320197Y-63738855D01*
X143147269Y-63815848D01*
X142994129Y-63927110D01*
X142916370Y-64013472D01*
X142874655Y-64043780D01*
X142824220Y-64054500D01*
X131760452Y-64054500D01*
X131712999Y-64045061D01*
X131672771Y-64018181D01*
X130329591Y-62675000D01*
X133034353Y-62675000D01*
X133052651Y-62809797D01*
X133052652Y-62809799D01*
X133106224Y-62934841D01*
X133181702Y-63029212D01*
X133191193Y-63041078D01*
X133301403Y-63120815D01*
X133301406Y-63120816D01*
X133428890Y-63168288D01*
X133564415Y-63180057D01*
X133698173Y-63155271D01*
X133820482Y-63095724D01*
X134221218Y-62828566D01*
X134265851Y-62810115D01*
X134314149Y-62810115D01*
X134358781Y-62828566D01*
X134558620Y-62961792D01*
X134759519Y-63095725D01*
X134789007Y-63110081D01*
X134881827Y-63155271D01*
X135015585Y-63180057D01*
X135151110Y-63168288D01*
X135278594Y-63120816D01*
X135278594Y-63120815D01*
X135278596Y-63120815D01*
X135365186Y-63058167D01*
X135388808Y-63041077D01*
X135473776Y-62934841D01*
X135473776Y-62934839D01*
X135483114Y-62923165D01*
X135538205Y-62883853D01*
X135605732Y-62879325D01*
X135705352Y-62900500D01*
X135705354Y-62900500D01*
X135894646Y-62900500D01*
X135894648Y-62900500D01*
X136042236Y-62869129D01*
X136079803Y-62861144D01*
X136252730Y-62784151D01*
X136311547Y-62741418D01*
X136405870Y-62672889D01*
X136532533Y-62532216D01*
X136627179Y-62368284D01*
X136641243Y-62325000D01*
X136685674Y-62188256D01*
X136705460Y-62000000D01*
X136685674Y-61811744D01*
X136651153Y-61705500D01*
X136627179Y-61631715D01*
X136532533Y-61467783D01*
X136405870Y-61327110D01*
X136252730Y-61215848D01*
X136079802Y-61138855D01*
X135894648Y-61099500D01*
X135894646Y-61099500D01*
X135705354Y-61099500D01*
X135705352Y-61099500D01*
X135520196Y-61138855D01*
X135486389Y-61153907D01*
X135421379Y-61163767D01*
X135360468Y-61139003D01*
X135292824Y-61087097D01*
X135292823Y-61087096D01*
X135292821Y-61087095D01*
X135170871Y-61036583D01*
X135040001Y-61019353D01*
X135040000Y-61019353D01*
X133540000Y-61019353D01*
X133539999Y-61019353D01*
X133409127Y-61036583D01*
X133287177Y-61087096D01*
X133182453Y-61167453D01*
X133102096Y-61272177D01*
X133051583Y-61394127D01*
X133034353Y-61524999D01*
X133034353Y-62675000D01*
X130329591Y-62675000D01*
X129701819Y-62047228D01*
X129674939Y-62007000D01*
X129665500Y-61959547D01*
X129665500Y-55512741D01*
X129667763Y-55492237D01*
X129665561Y-55422145D01*
X129665500Y-55418251D01*
X129665500Y-55390657D01*
X129665500Y-55390650D01*
X129664995Y-55386653D01*
X129664080Y-55375023D01*
X129662709Y-55331373D01*
X129657120Y-55312140D01*
X129653174Y-55293082D01*
X129650664Y-55273206D01*
X129634588Y-55232604D01*
X129630804Y-55221553D01*
X129621130Y-55188256D01*
X129618618Y-55179610D01*
X129608414Y-55162355D01*
X129599861Y-55144895D01*
X129592486Y-55126269D01*
X129592486Y-55126268D01*
X129566808Y-55090925D01*
X129560401Y-55081171D01*
X129538169Y-55043579D01*
X129524006Y-55029416D01*
X129511367Y-55014617D01*
X129499595Y-54998413D01*
X129465941Y-54970573D01*
X129457299Y-54962709D01*
X127411819Y-52917228D01*
X127384939Y-52877000D01*
X127375500Y-52829547D01*
X127375500Y-52574187D01*
X127383736Y-52529749D01*
X127407347Y-52491217D01*
X127482533Y-52407716D01*
X127520022Y-52342784D01*
X127577179Y-52243784D01*
X127585565Y-52217974D01*
X127635674Y-52063756D01*
X127655460Y-51875500D01*
X127635674Y-51687244D01*
X127577179Y-51507216D01*
X127577179Y-51507215D01*
X127482533Y-51343283D01*
X127355870Y-51202610D01*
X127202730Y-51091348D01*
X127029802Y-51014355D01*
X126844648Y-50975000D01*
X126844646Y-50975000D01*
X126655354Y-50975000D01*
X126655352Y-50975000D01*
X126470197Y-51014355D01*
X126297269Y-51091348D01*
X126144129Y-51202610D01*
X126017466Y-51343283D01*
X125922820Y-51507215D01*
X125864326Y-51687242D01*
X125844540Y-51875499D01*
X125864326Y-52063757D01*
X125922820Y-52243784D01*
X126017464Y-52407713D01*
X126017467Y-52407716D01*
X126092652Y-52491217D01*
X126116264Y-52529749D01*
X126124500Y-52574187D01*
X126124500Y-53057256D01*
X126122235Y-53077762D01*
X126124439Y-53147873D01*
X126124500Y-53151768D01*
X126124500Y-53179350D01*
X126124790Y-53181654D01*
X126125003Y-53183334D01*
X126125918Y-53194967D01*
X126127290Y-53238626D01*
X126132879Y-53257860D01*
X126136825Y-53276916D01*
X126139335Y-53296792D01*
X126155414Y-53337404D01*
X126159197Y-53348451D01*
X126171382Y-53390391D01*
X126181580Y-53407635D01*
X126190136Y-53425100D01*
X126197514Y-53443732D01*
X126197515Y-53443733D01*
X126223180Y-53479059D01*
X126229593Y-53488822D01*
X126251826Y-53526416D01*
X126251829Y-53526419D01*
X126251830Y-53526420D01*
X126265995Y-53540585D01*
X126278627Y-53555375D01*
X126290406Y-53571587D01*
X126324058Y-53599426D01*
X126332699Y-53607289D01*
X126522462Y-53797052D01*
X126551117Y-53841815D01*
X126558399Y-53894462D01*
X126542970Y-53945322D01*
X126507666Y-53985051D01*
X126429129Y-54042110D01*
X126302466Y-54182783D01*
X126207820Y-54346715D01*
X126149326Y-54526742D01*
X126129540Y-54714999D01*
X126149326Y-54903257D01*
X126207820Y-55083284D01*
X126302466Y-55247216D01*
X126429129Y-55387889D01*
X126582269Y-55499151D01*
X126755197Y-55576144D01*
X126940352Y-55615500D01*
X126940354Y-55615500D01*
X126999548Y-55615500D01*
X127047001Y-55624939D01*
X127087229Y-55651819D01*
X127928181Y-56492772D01*
X127955061Y-56533000D01*
X127964500Y-56580453D01*
X127964500Y-58345500D01*
X127947887Y-58407500D01*
X127902500Y-58452887D01*
X127840500Y-58469500D01*
X127770852Y-58469500D01*
X127585697Y-58508855D01*
X127412769Y-58585848D01*
X127259629Y-58697110D01*
X127132966Y-58837783D01*
X127038320Y-59001715D01*
X126979826Y-59181742D01*
X126960040Y-59370000D01*
X126979826Y-59558257D01*
X127038320Y-59738284D01*
X127132966Y-59902216D01*
X127238585Y-60019516D01*
X127259629Y-60042888D01*
X127412770Y-60154151D01*
X127440937Y-60166692D01*
X127479699Y-60193834D01*
X127505471Y-60233520D01*
X127514500Y-60279971D01*
X127514500Y-62560048D01*
X127512235Y-62580554D01*
X127514439Y-62650665D01*
X127514500Y-62654560D01*
X127514500Y-62682141D01*
X127515003Y-62686126D01*
X127515918Y-62697759D01*
X127517290Y-62741418D01*
X127522879Y-62760652D01*
X127526825Y-62779708D01*
X127529335Y-62799584D01*
X127545414Y-62840196D01*
X127549197Y-62851243D01*
X127561382Y-62893183D01*
X127571580Y-62910427D01*
X127580136Y-62927892D01*
X127587514Y-62946524D01*
X127587515Y-62946525D01*
X127613180Y-62981851D01*
X127619593Y-62991614D01*
X127641826Y-63029208D01*
X127641829Y-63029211D01*
X127641830Y-63029212D01*
X127655995Y-63043377D01*
X127668627Y-63058167D01*
X127680406Y-63074379D01*
X127714058Y-63102218D01*
X127722699Y-63110081D01*
X128086798Y-63474181D01*
X128119841Y-63533547D01*
X128116640Y-63601413D01*
X128078157Y-63657406D01*
X128015945Y-63684715D01*
X127948681Y-63675141D01*
X127799802Y-63608855D01*
X127614648Y-63569500D01*
X127614646Y-63569500D01*
X127425354Y-63569500D01*
X127425352Y-63569500D01*
X127240197Y-63608855D01*
X127067269Y-63685848D01*
X126914129Y-63797110D01*
X126787466Y-63937783D01*
X126692820Y-64101715D01*
X126634326Y-64281742D01*
X126618964Y-64427904D01*
X126614540Y-64470000D01*
X126618586Y-64508495D01*
X126634326Y-64658257D01*
X126692820Y-64838284D01*
X126787466Y-65002216D01*
X126914129Y-65142889D01*
X127067269Y-65254151D01*
X127240197Y-65331144D01*
X127425352Y-65370500D01*
X127425354Y-65370500D01*
X127484548Y-65370500D01*
X127532001Y-65379939D01*
X127572228Y-65406818D01*
X127998207Y-65832798D01*
X128029721Y-65886298D01*
X128031347Y-65948371D01*
X128002675Y-66003449D01*
X127920167Y-66095082D01*
X127825521Y-66259014D01*
X127767027Y-66439041D01*
X127761413Y-66492454D01*
X127747241Y-66627299D01*
X127752202Y-66674500D01*
X127767027Y-66815556D01*
X127825521Y-66995583D01*
X127920167Y-67159515D01*
X128046830Y-67300188D01*
X128199970Y-67411450D01*
X128257851Y-67437221D01*
X128309238Y-67479732D01*
X128331170Y-67542714D01*
X128317304Y-67607949D01*
X128271650Y-67656565D01*
X128207415Y-67674500D01*
X125057744Y-67674500D01*
X125037237Y-67672235D01*
X124967127Y-67674439D01*
X124963232Y-67674500D01*
X124935650Y-67674500D01*
X124931665Y-67675003D01*
X124920033Y-67675918D01*
X124876369Y-67677290D01*
X124857129Y-67682880D01*
X124838081Y-67686825D01*
X124818209Y-67689335D01*
X124777599Y-67705413D01*
X124766554Y-67709194D01*
X124724610Y-67721381D01*
X124707365Y-67731579D01*
X124689904Y-67740133D01*
X124671267Y-67747512D01*
X124635931Y-67773185D01*
X124626174Y-67779595D01*
X124588580Y-67801829D01*
X124574413Y-67815996D01*
X124559624Y-67828626D01*
X124543413Y-67840404D01*
X124515572Y-67874058D01*
X124507711Y-67882697D01*
X121066208Y-71324199D01*
X121050110Y-71337096D01*
X121002096Y-71388225D01*
X120999391Y-71391017D01*
X120979874Y-71410534D01*
X120977415Y-71413705D01*
X120969842Y-71422572D01*
X120939935Y-71454420D01*
X120930285Y-71471974D01*
X120919609Y-71488228D01*
X120907326Y-71504063D01*
X120889975Y-71544158D01*
X120884838Y-71554644D01*
X120863802Y-71592907D01*
X120858821Y-71612309D01*
X120852520Y-71630711D01*
X120844561Y-71649102D01*
X120837728Y-71692242D01*
X120835360Y-71703674D01*
X120824500Y-71745978D01*
X120824500Y-71766016D01*
X120822973Y-71785415D01*
X120819840Y-71805194D01*
X120823950Y-71848675D01*
X120824500Y-71860344D01*
X120824500Y-73734914D01*
X120811712Y-73789758D01*
X120775986Y-73833290D01*
X120724691Y-73856531D01*
X120668408Y-73854689D01*
X120532541Y-73818284D01*
X120445406Y-73794936D01*
X120210000Y-73774340D01*
X119974592Y-73794936D01*
X119746336Y-73856097D01*
X119532170Y-73955965D01*
X119338598Y-74091505D01*
X119171505Y-74258598D01*
X119035965Y-74452170D01*
X118936097Y-74666336D01*
X118874936Y-74894592D01*
X118854340Y-75130000D01*
X118874936Y-75365407D01*
X118919709Y-75532502D01*
X118936097Y-75593663D01*
X119035965Y-75807830D01*
X119171505Y-76001401D01*
X119338599Y-76168495D01*
X119532170Y-76304035D01*
X119746337Y-76403903D01*
X119974592Y-76465063D01*
X120210000Y-76485659D01*
X120445408Y-76465063D01*
X120673663Y-76403903D01*
X120673667Y-76403900D01*
X120681456Y-76401814D01*
X120744772Y-76401584D01*
X120799947Y-76432642D01*
X120832596Y-76486890D01*
X120832849Y-76487758D01*
X120836825Y-76506916D01*
X120839335Y-76526792D01*
X120855414Y-76567404D01*
X120859197Y-76578451D01*
X120871382Y-76620391D01*
X120881580Y-76637635D01*
X120890136Y-76655100D01*
X120897514Y-76673732D01*
X120897515Y-76673733D01*
X120923180Y-76709059D01*
X120929593Y-76718822D01*
X120951826Y-76756416D01*
X120951829Y-76756419D01*
X120951830Y-76756420D01*
X120965995Y-76770585D01*
X120978627Y-76785375D01*
X120990406Y-76801587D01*
X121024058Y-76829426D01*
X121032699Y-76837289D01*
X121409762Y-77214352D01*
X121441856Y-77269939D01*
X121441856Y-77334126D01*
X121414936Y-77434593D01*
X121394340Y-77670000D01*
X121414936Y-77905407D01*
X121442127Y-78006885D01*
X121476097Y-78133663D01*
X121575965Y-78347830D01*
X121711505Y-78541401D01*
X121878599Y-78708495D01*
X122064160Y-78838426D01*
X122103024Y-78882743D01*
X122117035Y-78940000D01*
X122103024Y-78997257D01*
X122064159Y-79041575D01*
X121878595Y-79171508D01*
X121711505Y-79338598D01*
X121581575Y-79524159D01*
X121537257Y-79563025D01*
X121480000Y-79577036D01*
X121422743Y-79563025D01*
X121378425Y-79524159D01*
X121248494Y-79338598D01*
X121081404Y-79171508D01*
X121081401Y-79171505D01*
X120887830Y-79035965D01*
X120673663Y-78936097D01*
X120612501Y-78919709D01*
X120445407Y-78874936D01*
X120209999Y-78854340D01*
X119974592Y-78874936D01*
X119746336Y-78936097D01*
X119532170Y-79035965D01*
X119338598Y-79171505D01*
X119171505Y-79338598D01*
X119035965Y-79532170D01*
X118936097Y-79746336D01*
X118874936Y-79974592D01*
X118854340Y-80210000D01*
X118874936Y-80445407D01*
X118912670Y-80586230D01*
X118936097Y-80673663D01*
X119035965Y-80887830D01*
X119171505Y-81081401D01*
X119338599Y-81248495D01*
X119524160Y-81378426D01*
X119563024Y-81422743D01*
X119577035Y-81480000D01*
X119563024Y-81537257D01*
X119524158Y-81581575D01*
X119348261Y-81704740D01*
X119338595Y-81711508D01*
X119171505Y-81878598D01*
X119035965Y-82072170D01*
X118936097Y-82286336D01*
X118874936Y-82514592D01*
X118854340Y-82750000D01*
X118874936Y-82985407D01*
X118905036Y-83097741D01*
X118936097Y-83213663D01*
X119035965Y-83427830D01*
X119171505Y-83621401D01*
X119338599Y-83788495D01*
X119524160Y-83918426D01*
X119563024Y-83962743D01*
X119577035Y-84020000D01*
X119563024Y-84077257D01*
X119524159Y-84121575D01*
X119338595Y-84251508D01*
X119171505Y-84418598D01*
X119035965Y-84612170D01*
X118936097Y-84826336D01*
X118874936Y-85054592D01*
X118854340Y-85290000D01*
X118874936Y-85525407D01*
X118936097Y-85753662D01*
X119035965Y-85967831D01*
X119094323Y-86051175D01*
X119115439Y-86104327D01*
X119110454Y-86161302D01*
X119080429Y-86209979D01*
X118366208Y-86924199D01*
X118350110Y-86937096D01*
X118302096Y-86988225D01*
X118299391Y-86991017D01*
X118279874Y-87010534D01*
X118277415Y-87013705D01*
X118269842Y-87022572D01*
X118239935Y-87054420D01*
X118230285Y-87071974D01*
X118219609Y-87088228D01*
X118207326Y-87104063D01*
X118189975Y-87144158D01*
X118184838Y-87154644D01*
X118163802Y-87192907D01*
X118158821Y-87212309D01*
X118152520Y-87230711D01*
X118144561Y-87249102D01*
X118137728Y-87292242D01*
X118135360Y-87303674D01*
X118124500Y-87345978D01*
X118124500Y-87366016D01*
X118122973Y-87385415D01*
X118119840Y-87405194D01*
X113830500Y-87405194D01*
X113830500Y-63469999D01*
X120204340Y-63469999D01*
X120224936Y-63705407D01*
X120254529Y-63815848D01*
X120286097Y-63933663D01*
X120385965Y-64147830D01*
X120521505Y-64341401D01*
X120688599Y-64508495D01*
X120882170Y-64644035D01*
X121096337Y-64743903D01*
X121324592Y-64805063D01*
X121560000Y-64825659D01*
X121795408Y-64805063D01*
X122023663Y-64743903D01*
X122237830Y-64644035D01*
X122431401Y-64508495D01*
X122598495Y-64341401D01*
X122734035Y-64147830D01*
X122833903Y-63933663D01*
X122895063Y-63705408D01*
X122915659Y-63470000D01*
X122909711Y-63402021D01*
X122895063Y-63234592D01*
X122883247Y-63190495D01*
X122833903Y-63006337D01*
X122734035Y-62792171D01*
X122598495Y-62598599D01*
X122431401Y-62431505D01*
X122245839Y-62301573D01*
X122206974Y-62257255D01*
X122192964Y-62199999D01*
X122206975Y-62142742D01*
X122245837Y-62098428D01*
X122431401Y-61968495D01*
X122598495Y-61801401D01*
X122734035Y-61607830D01*
X122833903Y-61393663D01*
X122895063Y-61165408D01*
X122915659Y-60930000D01*
X122895063Y-60694592D01*
X122833903Y-60466337D01*
X122734035Y-60252171D01*
X122598495Y-60058599D01*
X122431401Y-59891505D01*
X122245839Y-59761573D01*
X122206975Y-59717257D01*
X122192964Y-59660000D01*
X122206975Y-59602743D01*
X122245839Y-59558426D01*
X122431401Y-59428495D01*
X122598495Y-59261401D01*
X122734035Y-59067830D01*
X122833903Y-58853663D01*
X122895063Y-58625408D01*
X122915659Y-58390000D01*
X122910603Y-58332216D01*
X122895063Y-58154592D01*
X122876466Y-58085186D01*
X122833903Y-57926337D01*
X122734035Y-57712171D01*
X122598495Y-57518599D01*
X122431401Y-57351505D01*
X122237830Y-57215965D01*
X122023663Y-57116097D01*
X121959314Y-57098855D01*
X121795407Y-57054936D01*
X121560000Y-57034340D01*
X121324592Y-57054936D01*
X121096336Y-57116097D01*
X120882170Y-57215965D01*
X120688598Y-57351505D01*
X120521505Y-57518598D01*
X120385965Y-57712170D01*
X120286097Y-57926336D01*
X120224936Y-58154592D01*
X120204340Y-58389999D01*
X120224936Y-58625407D01*
X120256754Y-58744152D01*
X120286097Y-58853663D01*
X120385965Y-59067830D01*
X120521505Y-59261401D01*
X120688599Y-59428495D01*
X120874160Y-59558426D01*
X120913024Y-59602743D01*
X120927035Y-59660000D01*
X120913024Y-59717257D01*
X120874159Y-59761575D01*
X120688595Y-59891508D01*
X120521505Y-60058598D01*
X120385965Y-60252170D01*
X120286097Y-60466336D01*
X120224936Y-60694592D01*
X120204340Y-60930000D01*
X120224936Y-61165407D01*
X120246617Y-61246321D01*
X120286097Y-61393663D01*
X120385965Y-61607830D01*
X120521505Y-61801401D01*
X120688599Y-61968495D01*
X120874160Y-62098426D01*
X120913024Y-62142743D01*
X120927035Y-62200000D01*
X120913024Y-62257257D01*
X120874160Y-62301574D01*
X120700209Y-62423376D01*
X120688595Y-62431508D01*
X120521505Y-62598598D01*
X120385965Y-62792170D01*
X120286097Y-63006336D01*
X120224936Y-63234592D01*
X120204340Y-63469999D01*
X113830500Y-63469999D01*
X113830500Y-53309999D01*
X120204340Y-53309999D01*
X120224936Y-53545407D01*
X120269709Y-53712501D01*
X120286097Y-53773663D01*
X120385965Y-53987830D01*
X120521505Y-54181401D01*
X120688599Y-54348495D01*
X120882170Y-54484035D01*
X121096337Y-54583903D01*
X121324592Y-54645063D01*
X121560000Y-54665659D01*
X121795408Y-54645063D01*
X122023663Y-54583903D01*
X122237830Y-54484035D01*
X122431401Y-54348495D01*
X122598495Y-54181401D01*
X122734035Y-53987830D01*
X122833903Y-53773663D01*
X122895063Y-53545408D01*
X122915659Y-53310000D01*
X122915256Y-53305399D01*
X122895063Y-53074592D01*
X122890418Y-53057256D01*
X122833903Y-52846337D01*
X122734035Y-52632171D01*
X122598495Y-52438599D01*
X122476568Y-52316672D01*
X122445273Y-52263927D01*
X122443084Y-52202634D01*
X122470537Y-52147789D01*
X122520916Y-52112810D01*
X122652331Y-52063796D01*
X122767546Y-51977546D01*
X122853796Y-51862331D01*
X122904091Y-51727483D01*
X122910500Y-51667873D01*
X122910499Y-49872128D01*
X122904091Y-49812517D01*
X122853796Y-49677669D01*
X122767546Y-49562454D01*
X122652331Y-49476204D01*
X122517483Y-49425909D01*
X122457873Y-49419500D01*
X122457869Y-49419500D01*
X120662130Y-49419500D01*
X120602515Y-49425909D01*
X120467669Y-49476204D01*
X120352454Y-49562454D01*
X120266204Y-49677668D01*
X120215909Y-49812516D01*
X120209500Y-49872130D01*
X120209500Y-51667869D01*
X120211583Y-51687242D01*
X120215909Y-51727483D01*
X120266204Y-51862331D01*
X120352454Y-51977546D01*
X120467669Y-52063796D01*
X120555380Y-52096510D01*
X120599082Y-52112810D01*
X120649462Y-52147789D01*
X120676915Y-52202634D01*
X120674726Y-52263926D01*
X120643431Y-52316673D01*
X120521503Y-52438601D01*
X120385965Y-52632170D01*
X120286097Y-52846336D01*
X120224936Y-53074592D01*
X120204340Y-53309999D01*
X113830500Y-53309999D01*
X113830500Y-38744500D01*
X113847113Y-38682500D01*
X113892500Y-38637113D01*
X113954500Y-38620500D01*
X179805500Y-38620500D01*
X179867500Y-38637113D01*
G37*
%TD.AperFunction*%
%TD*%
M02*
