%TF.GenerationSoftware,KiCad,Pcbnew,7.0.1*%
%TF.CreationDate,2023-09-29T14:49:09+07:00*%
%TF.ProjectId,STM32F407xxx,53544d33-3246-4343-9037-7878782e6b69,rev?*%
%TF.SameCoordinates,Original*%
%TF.FileFunction,Soldermask,Bot*%
%TF.FilePolarity,Negative*%
%FSLAX46Y46*%
G04 Gerber Fmt 4.6, Leading zero omitted, Abs format (unit mm)*
G04 Created by KiCad (PCBNEW 7.0.1) date 2023-09-29 14:49:09*
%MOMM*%
%LPD*%
G01*
G04 APERTURE LIST*
G04 Aperture macros list*
%AMRoundRect*
0 Rectangle with rounded corners*
0 $1 Rounding radius*
0 $2 $3 $4 $5 $6 $7 $8 $9 X,Y pos of 4 corners*
0 Add a 4 corners polygon primitive as box body*
4,1,4,$2,$3,$4,$5,$6,$7,$8,$9,$2,$3,0*
0 Add four circle primitives for the rounded corners*
1,1,$1+$1,$2,$3*
1,1,$1+$1,$4,$5*
1,1,$1+$1,$6,$7*
1,1,$1+$1,$8,$9*
0 Add four rect primitives between the rounded corners*
20,1,$1+$1,$2,$3,$4,$5,0*
20,1,$1+$1,$4,$5,$6,$7,0*
20,1,$1+$1,$6,$7,$8,$9,0*
20,1,$1+$1,$8,$9,$2,$3,0*%
%AMFreePoly0*
4,1,6,1.000000,0.000000,0.500000,-0.750000,-0.500000,-0.750000,-0.500000,0.750000,0.500000,0.750000,1.000000,0.000000,1.000000,0.000000,$1*%
%AMFreePoly1*
4,1,6,0.500000,-0.750000,-0.650000,-0.750000,-0.150000,0.000000,-0.650000,0.750000,0.500000,0.750000,0.500000,-0.750000,0.500000,-0.750000,$1*%
G04 Aperture macros list end*
%ADD10C,1.500000*%
%ADD11R,1.700000X1.700000*%
%ADD12O,1.700000X1.700000*%
%ADD13FreePoly0,180.000000*%
%ADD14FreePoly1,180.000000*%
%ADD15FreePoly0,270.000000*%
%ADD16FreePoly1,270.000000*%
%ADD17RoundRect,0.225000X0.250000X-0.225000X0.250000X0.225000X-0.250000X0.225000X-0.250000X-0.225000X0*%
%ADD18FreePoly0,0.000000*%
%ADD19FreePoly1,0.000000*%
%ADD20RoundRect,0.200000X-0.275000X0.200000X-0.275000X-0.200000X0.275000X-0.200000X0.275000X0.200000X0*%
%ADD21FreePoly0,90.000000*%
%ADD22FreePoly1,90.000000*%
%ADD23RoundRect,0.200000X0.275000X-0.200000X0.275000X0.200000X-0.275000X0.200000X-0.275000X-0.200000X0*%
G04 APERTURE END LIST*
D10*
%TO.C,Y1*%
X135800000Y-52000000D03*
X135800000Y-56880000D03*
%TD*%
D11*
%TO.C,J4*%
X131100000Y-81850000D03*
D12*
X131100000Y-79310000D03*
%TD*%
D11*
%TO.C,P1*%
X120210000Y-72590000D03*
D12*
X122750000Y-72590000D03*
X120210000Y-75130000D03*
X122750000Y-75130000D03*
X120210000Y-77670000D03*
X122750000Y-77670000D03*
X120210000Y-80210000D03*
X122750000Y-80210000D03*
X120210000Y-82750000D03*
X122750000Y-82750000D03*
X120210000Y-85290000D03*
X122750000Y-85290000D03*
X120210000Y-87830000D03*
X122750000Y-87830000D03*
X120210000Y-90370000D03*
X122750000Y-90370000D03*
X120210000Y-92910000D03*
X122750000Y-92910000D03*
X120210000Y-95450000D03*
X122750000Y-95450000D03*
X120210000Y-97990000D03*
X122750000Y-97990000D03*
X120210000Y-100530000D03*
X122750000Y-100530000D03*
X120210000Y-103070000D03*
X122750000Y-103070000D03*
X120210000Y-105610000D03*
X122750000Y-105610000D03*
X120210000Y-108150000D03*
X122750000Y-108150000D03*
X120210000Y-110690000D03*
X122750000Y-110690000D03*
X120210000Y-113230000D03*
X122750000Y-113230000D03*
X120210000Y-115770000D03*
X122750000Y-115770000D03*
X120210000Y-118310000D03*
X122750000Y-118310000D03*
X120210000Y-120850000D03*
X122750000Y-120850000D03*
X120210000Y-123390000D03*
X122750000Y-123390000D03*
X120210000Y-125930000D03*
X122750000Y-125930000D03*
X120210000Y-128470000D03*
X122750000Y-128470000D03*
X120210000Y-131010000D03*
X122750000Y-131010000D03*
X120210000Y-133550000D03*
X122750000Y-133550000D03*
%TD*%
D11*
%TO.C,J3*%
X169275000Y-56000000D03*
D12*
X169275000Y-58540000D03*
X169275000Y-61080000D03*
X169275000Y-63620000D03*
%TD*%
D11*
%TO.C,P2*%
X171060000Y-72590000D03*
D12*
X173600000Y-72590000D03*
X171060000Y-75130000D03*
X173600000Y-75130000D03*
X171060000Y-77670000D03*
X173600000Y-77670000D03*
X171060000Y-80210000D03*
X173600000Y-80210000D03*
X171060000Y-82750000D03*
X173600000Y-82750000D03*
X171060000Y-85290000D03*
X173600000Y-85290000D03*
X171060000Y-87830000D03*
X173600000Y-87830000D03*
X171060000Y-90370000D03*
X173600000Y-90370000D03*
X171060000Y-92910000D03*
X173600000Y-92910000D03*
X171060000Y-95450000D03*
X173600000Y-95450000D03*
X171060000Y-97990000D03*
X173600000Y-97990000D03*
X171060000Y-100530000D03*
X173600000Y-100530000D03*
X171060000Y-103070000D03*
X173600000Y-103070000D03*
X171060000Y-105610000D03*
X173600000Y-105610000D03*
X171060000Y-108150000D03*
X173600000Y-108150000D03*
X171060000Y-110690000D03*
X173600000Y-110690000D03*
X171060000Y-113230000D03*
X173600000Y-113230000D03*
X171060000Y-115770000D03*
X173600000Y-115770000D03*
X171060000Y-118310000D03*
X173600000Y-118310000D03*
X171060000Y-120850000D03*
X173600000Y-120850000D03*
X171060000Y-123390000D03*
X173600000Y-123390000D03*
X171060000Y-125930000D03*
X173600000Y-125930000D03*
X171060000Y-128470000D03*
X173600000Y-128470000D03*
X171060000Y-131010000D03*
X173600000Y-131010000D03*
X171060000Y-133550000D03*
X173600000Y-133550000D03*
%TD*%
D10*
%TO.C,Y2*%
X138925000Y-117675000D03*
X138925000Y-122555000D03*
%TD*%
%TO.C,Y3*%
X151700000Y-71600000D03*
X146820000Y-71600000D03*
%TD*%
D11*
%TO.C,J7*%
X175260000Y-43175000D03*
D12*
X175260000Y-45715000D03*
%TD*%
D11*
%TO.C,J2*%
X121560000Y-50770000D03*
D12*
X121560000Y-53310000D03*
X121560000Y-55850000D03*
X121560000Y-58390000D03*
X121560000Y-60930000D03*
X121560000Y-63470000D03*
%TD*%
D11*
%TO.C,J6*%
X118540000Y-43055000D03*
D12*
X118540000Y-45595000D03*
%TD*%
D13*
%TO.C,SB7*%
X173550000Y-61225000D03*
D14*
X172100000Y-61225000D03*
%TD*%
D15*
%TO.C,SB20*%
X129775000Y-102950000D03*
D16*
X129775000Y-104400000D03*
%TD*%
D17*
%TO.C,C17*%
X157200000Y-62125000D03*
X157200000Y-60575000D03*
%TD*%
D13*
%TO.C,SB9*%
X173550000Y-63750000D03*
D14*
X172100000Y-63750000D03*
%TD*%
D18*
%TO.C,SB11*%
X152275000Y-66800000D03*
D19*
X153725000Y-66800000D03*
%TD*%
D20*
%TO.C,R10*%
X157200000Y-57450000D03*
X157200000Y-59100000D03*
%TD*%
D13*
%TO.C,SB8*%
X166225000Y-63600000D03*
D14*
X164775000Y-63600000D03*
%TD*%
D21*
%TO.C,SB10*%
X134290000Y-63475000D03*
D22*
X134290000Y-62025000D03*
%TD*%
D18*
%TO.C,SB16*%
X157725000Y-67600000D03*
D19*
X159175000Y-67600000D03*
%TD*%
D15*
%TO.C,SB17*%
X133800000Y-79475000D03*
D16*
X133800000Y-80925000D03*
%TD*%
D13*
%TO.C,SB18*%
X162550000Y-85325000D03*
D14*
X161100000Y-85325000D03*
%TD*%
D13*
%TO.C,SB14*%
X163125000Y-68600000D03*
D14*
X161675000Y-68600000D03*
%TD*%
D23*
%TO.C,R14*%
X160400000Y-59425000D03*
X160400000Y-57775000D03*
%TD*%
D13*
%TO.C,SB5*%
X173550000Y-58675000D03*
D14*
X172100000Y-58675000D03*
%TD*%
D13*
%TO.C,SB6*%
X166225000Y-61050000D03*
D14*
X164775000Y-61050000D03*
%TD*%
D21*
%TO.C,SB19*%
X132270000Y-91170000D03*
D22*
X132270000Y-89720000D03*
%TD*%
D13*
%TO.C,SB13*%
X163125000Y-71150000D03*
D14*
X161675000Y-71150000D03*
%TD*%
D18*
%TO.C,SB1*%
X155700000Y-104575000D03*
D19*
X157150000Y-104575000D03*
%TD*%
D13*
%TO.C,SB4*%
X166225000Y-58525000D03*
D14*
X164775000Y-58525000D03*
%TD*%
D13*
%TO.C,SB3*%
X173550000Y-56125000D03*
D14*
X172100000Y-56125000D03*
%TD*%
D13*
%TO.C,SB2*%
X166225000Y-55975000D03*
D14*
X164775000Y-55975000D03*
%TD*%
D18*
%TO.C,SB12*%
X152275000Y-64200000D03*
D19*
X153725000Y-64200000D03*
%TD*%
D18*
%TO.C,SB15*%
X157750000Y-65100000D03*
D19*
X159200000Y-65100000D03*
%TD*%
M02*
