M48
; DRILL file {KiCad 7.0.1} date Fri Sep 29 14:49:04 2023
; FORMAT={-:-/ absolute / metric / decimal}
; #@! TF.CreationDate,2023-09-29T14:49:04+07:00
; #@! TF.GenerationSoftware,Kicad,Pcbnew,7.0.1
; #@! TF.FileFunction,MixedPlating,1,2
FMAT,2
METRIC
; #@! TA.AperFunction,Plated,PTH,ViaDrill
T1C0.400
; #@! TA.AperFunction,Plated,PTH,ComponentDrill
T2C0.800
; #@! TA.AperFunction,Plated,PTH,ComponentDrill
T3C1.000
%
G90
G05
T1
X126.75Y-51.875
X126.9Y-69.55
X126.9Y-70.37
X127.035Y-54.715
X127.52Y-64.47
X127.525Y-73.25
X127.7Y-69.53
X127.7Y-70.35
X127.865Y-59.37
X128.35Y-73.2
X128.5Y-69.52
X128.5Y-70.34
X128.653Y-66.627
X129.175Y-73.175
X130.031Y-87.83
X130.8Y-51.2
X130.997Y-106.125
X131.4Y-102.8
X131.55Y-46.075
X131.55Y-46.9
X131.55Y-47.725
X131.624Y-107.011
X131.8Y-134.445
X131.8Y-135.265
X132.6Y-134.425
X132.6Y-135.245
X133.4Y-134.415
X133.4Y-135.235
X133.71Y-88.83
X133.85Y-71.8
X133.925Y-102.5
X134.2Y-134.435
X134.2Y-135.255
X134.54Y-100.72
X134.65Y-54.75
X135.0Y-134.415
X135.0Y-135.235
X135.01Y-100.04
X135.31Y-96.58
X135.475Y-54.75
X135.55Y-100.67
X135.8Y-62.0
X135.8Y-134.405
X135.8Y-135.225
X135.92Y-69.55
X135.92Y-70.37
X136.1Y-96.56
X136.23Y-40.35
X136.23Y-41.17
X136.3Y-54.7
X136.4Y-42.8
X136.61Y-134.43
X136.61Y-135.25
X136.72Y-69.53
X136.72Y-70.35
X137.03Y-40.33
X137.03Y-41.15
X137.125Y-54.7
X137.41Y-134.41
X137.41Y-135.23
X137.52Y-69.52
X137.52Y-70.34
X137.83Y-40.32
X137.83Y-41.14
X137.95Y-99.624
X138.2Y-63.6
X138.21Y-134.4
X138.21Y-135.22
X138.259Y-78.409
X138.338Y-77.412
X138.418Y-80.35
X138.562Y-79.361
X138.63Y-40.34
X138.63Y-41.16
X138.656Y-100.622
X139.43Y-40.32
X139.43Y-41.14
X139.475Y-101.245
X139.7Y-95.275
X140.23Y-40.31
X140.23Y-41.13
X140.258Y-101.866
X140.4Y-58.4
X141.4Y-60.8
X141.84Y-84.44
X141.84Y-85.3
X141.85Y-82.57
X141.85Y-83.56
X141.986Y-94.261
X142.25Y-52.875
X142.6Y-91.74
X142.787Y-81.659
X142.79Y-94.23
X143.425Y-103.275
X143.45Y-73.525
X143.48Y-91.73
X143.6Y-60.8
X143.6Y-64.6
X144.0Y-94.15
X144.31Y-82.11
X144.35Y-115.65
X144.375Y-91.725
X144.65Y-62.54
X144.85Y-71.18
X144.926Y-51.31
X145.067Y-77.929
X145.16Y-82.12
X145.35Y-58.2
X145.35Y-74.974
X145.375Y-75.974
X145.375Y-76.978
X145.42Y-59.825
X145.625Y-101.25
X145.985Y-94.045
X146.09Y-48.54
X146.124Y-62.676
X146.17Y-58.2
X146.22Y-103.9
X146.23Y-59.825
X146.283Y-57.071
X146.36Y-64.6
X146.58Y-105.99
X146.78Y-49.98
X147.18Y-64.61
X147.35Y-82.3
X147.549Y-78.075
X147.81Y-56.44
X148.155Y-94.005
X148.175Y-70.4
X148.52Y-104.17
X148.546Y-77.995
X148.81Y-62.85
X148.87Y-55.14
X149.0Y-70.36
X149.08Y-129.17
X149.26Y-57.96
X149.32Y-63.61
X149.525Y-94.05
X149.71Y-55.15
X149.8Y-91.725
X149.91Y-129.19
X149.925Y-70.325
X150.15Y-62.78
X150.17Y-63.6
X150.625Y-73.45
X150.625Y-59.667
X150.63Y-54.04
X150.72Y-129.23
X150.725Y-56.29
X150.74Y-91.71
X150.741Y-55.033
X150.8Y-93.975
X150.822Y-58.672
X150.84Y-66.67
X151.321Y-81.917
X151.675Y-91.725
X151.693Y-100.059
X151.8Y-93.975
X151.952Y-97.145
X152.274Y-82.22
X152.333Y-98.158
X152.485Y-99.334
X152.823Y-94.0
X153.05Y-77.5
X153.314Y-82.237
X153.325Y-57.75
X153.37Y-51.53
X153.52Y-71.35
X153.6Y-55.0
X153.725Y-52.875
X153.815Y-94.127
X154.025Y-87.473
X154.025Y-88.455
X154.025Y-89.437
X154.025Y-90.418
X154.025Y-91.4
X154.226Y-86.075
X154.29Y-62.67
X154.925Y-95.275
X155.11Y-62.64
X155.362Y-79.837
X155.4Y-134.48
X155.4Y-135.3
X155.41Y-40.28
X155.41Y-41.1
X155.753Y-80.757
X155.924Y-51.8
X155.925Y-62.6
X155.925Y-73.45
X156.2Y-134.46
X156.2Y-135.28
X156.21Y-40.26
X156.21Y-41.08
X156.23Y-71.41
X156.425Y-67.6
X156.5Y-65.1
X156.5Y-95.425
X156.6Y-103.2
X156.79Y-51.8
X156.97Y-108.81
X157.0Y-134.45
X157.0Y-135.27
X157.01Y-40.25
X157.01Y-41.07
X157.03Y-71.43
X157.38Y-74.64
X157.65Y-96.95
X157.8Y-134.47
X157.8Y-135.29
X157.82Y-40.27
X157.82Y-41.09
X157.9Y-108.76
X158.1Y-56.0
X158.125Y-101.175
X158.125Y-102.0
X158.15Y-100.35
X158.21Y-74.63
X158.3Y-52.975
X158.425Y-62.499
X158.6Y-134.45
X158.6Y-135.27
X158.62Y-40.25
X158.62Y-41.07
X158.725Y-60.3
X158.8Y-108.74
X158.925Y-55.975
X158.95Y-102.0
X158.975Y-100.35
X159.0Y-101.175
X159.125Y-52.95
X159.2Y-57.8
X159.4Y-134.44
X159.4Y-135.26
X159.42Y-40.24
X159.42Y-41.06
X159.75Y-56.0
X159.8Y-100.35
X159.8Y-102.0
X159.825Y-101.175
X159.95Y-52.95
X160.2Y-134.46
X160.2Y-135.28
X160.375Y-60.55
X160.425Y-71.15
X160.625Y-102.025
X160.65Y-100.3
X160.65Y-101.2
X161.0Y-134.44
X161.0Y-135.26
X161.46Y-48.9
X161.8Y-134.43
X161.8Y-135.25
X162.17Y-74.94
X162.25Y-48.9
X162.26Y-75.86
X163.04Y-48.91
X163.1Y-79.95
X163.325Y-59.8
X163.95Y-86.825
X164.0Y-81.876
X164.0Y-85.325
X164.45Y-71.35
X164.775Y-51.8
X164.8Y-68.8
X164.825Y-88.825
X164.97Y-75.95
X165.42Y-81.72
X165.575Y-89.4
X165.59Y-44.88
X165.833Y-76.007
X165.87Y-81.0
X166.0Y-87.9
X166.26Y-81.74
X166.66Y-50.17
X166.675Y-53.325
X166.698Y-84.299
X167.48Y-50.18
X167.5Y-53.325
X168.23Y-45.15
X168.31Y-50.16
X168.32Y-53.27
X169.05Y-45.16
X169.14Y-53.29
X169.88Y-45.15
X174.475Y-58.675
X174.775Y-63.7
X175.225Y-67.725
X176.35Y-67.575
T2
X135.8Y-52.0
X135.8Y-56.88
X138.925Y-117.675
X138.925Y-122.555
X146.82Y-71.6
X151.7Y-71.6
T3
X118.54Y-43.055
X118.54Y-45.595
X120.21Y-72.59
X120.21Y-75.13
X120.21Y-77.67
X120.21Y-80.21
X120.21Y-82.75
X120.21Y-85.29
X120.21Y-87.83
X120.21Y-90.37
X120.21Y-92.91
X120.21Y-95.45
X120.21Y-97.99
X120.21Y-100.53
X120.21Y-103.07
X120.21Y-105.61
X120.21Y-108.15
X120.21Y-110.69
X120.21Y-113.23
X120.21Y-115.77
X120.21Y-118.31
X120.21Y-120.85
X120.21Y-123.39
X120.21Y-125.93
X120.21Y-128.47
X120.21Y-131.01
X120.21Y-133.55
X121.56Y-50.77
X121.56Y-53.31
X121.56Y-55.85
X121.56Y-58.39
X121.56Y-60.93
X121.56Y-63.47
X122.75Y-72.59
X122.75Y-75.13
X122.75Y-77.67
X122.75Y-80.21
X122.75Y-82.75
X122.75Y-85.29
X122.75Y-87.83
X122.75Y-90.37
X122.75Y-92.91
X122.75Y-95.45
X122.75Y-97.99
X122.75Y-100.53
X122.75Y-103.07
X122.75Y-105.61
X122.75Y-108.15
X122.75Y-110.69
X122.75Y-113.23
X122.75Y-115.77
X122.75Y-118.31
X122.75Y-120.85
X122.75Y-123.39
X122.75Y-125.93
X122.75Y-128.47
X122.75Y-131.01
X122.75Y-133.55
X131.1Y-79.31
X131.1Y-81.85
X169.275Y-56.0
X169.275Y-58.54
X169.275Y-61.08
X169.275Y-63.62
X171.06Y-72.59
X171.06Y-75.13
X171.06Y-77.67
X171.06Y-80.21
X171.06Y-82.75
X171.06Y-85.29
X171.06Y-87.83
X171.06Y-90.37
X171.06Y-92.91
X171.06Y-95.45
X171.06Y-97.99
X171.06Y-100.53
X171.06Y-103.07
X171.06Y-105.61
X171.06Y-108.15
X171.06Y-110.69
X171.06Y-113.23
X171.06Y-115.77
X171.06Y-118.31
X171.06Y-120.85
X171.06Y-123.39
X171.06Y-125.93
X171.06Y-128.47
X171.06Y-131.01
X171.06Y-133.55
X173.6Y-72.59
X173.6Y-75.13
X173.6Y-77.67
X173.6Y-80.21
X173.6Y-82.75
X173.6Y-85.29
X173.6Y-87.83
X173.6Y-90.37
X173.6Y-92.91
X173.6Y-95.45
X173.6Y-97.99
X173.6Y-100.53
X173.6Y-103.07
X173.6Y-105.61
X173.6Y-108.15
X173.6Y-110.69
X173.6Y-113.23
X173.6Y-115.77
X173.6Y-118.31
X173.6Y-120.85
X173.6Y-123.39
X173.6Y-125.93
X173.6Y-128.47
X173.6Y-131.01
X173.6Y-133.55
X175.26Y-43.175
X175.26Y-45.715
T0
M30
