%TF.GenerationSoftware,KiCad,Pcbnew,7.0.1*%
%TF.CreationDate,2023-09-29T14:49:09+07:00*%
%TF.ProjectId,STM32F407xxx,53544d33-3246-4343-9037-7878782e6b69,rev?*%
%TF.SameCoordinates,Original*%
%TF.FileFunction,Paste,Top*%
%TF.FilePolarity,Positive*%
%FSLAX46Y46*%
G04 Gerber Fmt 4.6, Leading zero omitted, Abs format (unit mm)*
G04 Created by KiCad (PCBNEW 7.0.1) date 2023-09-29 14:49:09*
%MOMM*%
%LPD*%
G01*
G04 APERTURE LIST*
G04 Aperture macros list*
%AMRoundRect*
0 Rectangle with rounded corners*
0 $1 Rounding radius*
0 $2 $3 $4 $5 $6 $7 $8 $9 X,Y pos of 4 corners*
0 Add a 4 corners polygon primitive as box body*
4,1,4,$2,$3,$4,$5,$6,$7,$8,$9,$2,$3,0*
0 Add four circle primitives for the rounded corners*
1,1,$1+$1,$2,$3*
1,1,$1+$1,$4,$5*
1,1,$1+$1,$6,$7*
1,1,$1+$1,$8,$9*
0 Add four rect primitives between the rounded corners*
20,1,$1+$1,$2,$3,$4,$5,0*
20,1,$1+$1,$4,$5,$6,$7,0*
20,1,$1+$1,$6,$7,$8,$9,0*
20,1,$1+$1,$8,$9,$2,$3,0*%
G04 Aperture macros list end*
%ADD10RoundRect,0.250000X0.400000X0.600000X-0.400000X0.600000X-0.400000X-0.600000X0.400000X-0.600000X0*%
%ADD11RoundRect,0.200000X-0.275000X0.200000X-0.275000X-0.200000X0.275000X-0.200000X0.275000X0.200000X0*%
%ADD12RoundRect,0.225000X-0.250000X0.225000X-0.250000X-0.225000X0.250000X-0.225000X0.250000X0.225000X0*%
%ADD13RoundRect,0.218750X-0.256250X0.218750X-0.256250X-0.218750X0.256250X-0.218750X0.256250X0.218750X0*%
%ADD14RoundRect,0.200000X0.200000X0.275000X-0.200000X0.275000X-0.200000X-0.275000X0.200000X-0.275000X0*%
%ADD15RoundRect,0.225000X-0.225000X-0.250000X0.225000X-0.250000X0.225000X0.250000X-0.225000X0.250000X0*%
%ADD16RoundRect,0.225000X0.250000X-0.225000X0.250000X0.225000X-0.250000X0.225000X-0.250000X-0.225000X0*%
%ADD17R,0.650000X1.350000*%
%ADD18RoundRect,0.200000X0.275000X-0.200000X0.275000X0.200000X-0.275000X0.200000X-0.275000X-0.200000X0*%
%ADD19RoundRect,0.200000X-0.200000X-0.275000X0.200000X-0.275000X0.200000X0.275000X-0.200000X0.275000X0*%
%ADD20RoundRect,0.218750X-0.218750X-0.256250X0.218750X-0.256250X0.218750X0.256250X-0.218750X0.256250X0*%
%ADD21R,1.350000X0.650000*%
%ADD22RoundRect,0.225000X0.225000X0.250000X-0.225000X0.250000X-0.225000X-0.250000X0.225000X-0.250000X0*%
%ADD23RoundRect,0.150000X-0.150000X0.512500X-0.150000X-0.512500X0.150000X-0.512500X0.150000X0.512500X0*%
%ADD24R,1.800000X1.900000*%
%ADD25R,2.300000X1.300000*%
%ADD26R,1.600000X1.400000*%
%ADD27R,0.400000X1.350000*%
%ADD28RoundRect,0.075000X-0.662500X-0.075000X0.662500X-0.075000X0.662500X0.075000X-0.662500X0.075000X0*%
%ADD29RoundRect,0.075000X-0.075000X-0.662500X0.075000X-0.662500X0.075000X0.662500X-0.075000X0.662500X0*%
%ADD30R,0.900000X1.500000*%
%ADD31RoundRect,0.218750X0.256250X-0.218750X0.256250X0.218750X-0.256250X0.218750X-0.256250X-0.218750X0*%
%ADD32R,0.500000X2.250000*%
%ADD33R,2.000000X2.500000*%
%ADD34RoundRect,0.150000X-0.825000X-0.150000X0.825000X-0.150000X0.825000X0.150000X-0.825000X0.150000X0*%
%ADD35RoundRect,0.075000X-0.075000X0.725000X-0.075000X-0.725000X0.075000X-0.725000X0.075000X0.725000X0*%
%ADD36RoundRect,0.075000X-0.725000X0.075000X-0.725000X-0.075000X0.725000X-0.075000X0.725000X0.075000X0*%
G04 APERTURE END LIST*
D10*
%TO.C,D6*%
X144575000Y-127500000D03*
X141075000Y-127500000D03*
%TD*%
D11*
%TO.C,R1*%
X142900000Y-48105000D03*
X142900000Y-49755000D03*
%TD*%
D12*
%TO.C,C11*%
X152100000Y-61625000D03*
X152100000Y-63175000D03*
%TD*%
D13*
%TO.C,D3*%
X145000000Y-104162500D03*
X145000000Y-105737500D03*
%TD*%
D14*
%TO.C,R43*%
X150575000Y-114375000D03*
X148925000Y-114375000D03*
%TD*%
%TO.C,R39*%
X133425000Y-104050000D03*
X131775000Y-104050000D03*
%TD*%
D11*
%TO.C,R2*%
X144370000Y-48095000D03*
X144370000Y-49745000D03*
%TD*%
D15*
%TO.C,C23*%
X150625000Y-75350000D03*
X152175000Y-75350000D03*
%TD*%
D16*
%TO.C,C10*%
X168270000Y-47805000D03*
X168270000Y-46255000D03*
%TD*%
D17*
%TO.C,U6*%
X124220000Y-52210000D03*
X124220000Y-49810000D03*
%TD*%
D15*
%TO.C,C20*%
X154975000Y-97850000D03*
X156525000Y-97850000D03*
%TD*%
D18*
%TO.C,R20*%
X138350000Y-75725000D03*
X138350000Y-74075000D03*
%TD*%
D14*
%TO.C,R45*%
X150575000Y-112875000D03*
X148925000Y-112875000D03*
%TD*%
D18*
%TO.C,R12*%
X143600000Y-63635000D03*
X143600000Y-61985000D03*
%TD*%
D19*
%TO.C,R29*%
X165075000Y-86900000D03*
X166725000Y-86900000D03*
%TD*%
D20*
%TO.C,D10*%
X145950000Y-112875000D03*
X147525000Y-112875000D03*
%TD*%
D16*
%TO.C,C21*%
X157325000Y-81800000D03*
X157325000Y-80250000D03*
%TD*%
D18*
%TO.C,R6*%
X130600000Y-55425000D03*
X130600000Y-53775000D03*
%TD*%
%TO.C,R13*%
X136800000Y-63625000D03*
X136800000Y-61975000D03*
%TD*%
D19*
%TO.C,R40*%
X134725000Y-102550000D03*
X136375000Y-102550000D03*
%TD*%
D12*
%TO.C,C6*%
X161870000Y-46225000D03*
X161870000Y-47775000D03*
%TD*%
D19*
%TO.C,R34*%
X128175000Y-42800000D03*
X129825000Y-42800000D03*
%TD*%
D21*
%TO.C,U2*%
X156960000Y-44980000D03*
X159360000Y-44980000D03*
%TD*%
D11*
%TO.C,R27*%
X149125000Y-75400000D03*
X149125000Y-77050000D03*
%TD*%
D12*
%TO.C,C15*%
X132200000Y-53825000D03*
X132200000Y-55375000D03*
%TD*%
D16*
%TO.C,C24*%
X134500000Y-82725000D03*
X134500000Y-81175000D03*
%TD*%
D19*
%TO.C,R18*%
X124065000Y-63870000D03*
X125715000Y-63870000D03*
%TD*%
D12*
%TO.C,C18*%
X139200000Y-62025000D03*
X139200000Y-63575000D03*
%TD*%
D11*
%TO.C,R41*%
X138575000Y-102500000D03*
X138575000Y-104150000D03*
%TD*%
D18*
%TO.C,R42*%
X154350000Y-131975000D03*
X154350000Y-130325000D03*
%TD*%
%TO.C,R19*%
X128200000Y-51125000D03*
X128200000Y-49475000D03*
%TD*%
D22*
%TO.C,C1*%
X136350000Y-104050000D03*
X134800000Y-104050000D03*
%TD*%
D16*
%TO.C,C38*%
X152920000Y-116475000D03*
X152920000Y-114925000D03*
%TD*%
%TO.C,C30*%
X142150000Y-73975000D03*
X142150000Y-72425000D03*
%TD*%
%TO.C,C25*%
X136000000Y-82725000D03*
X136000000Y-81175000D03*
%TD*%
D11*
%TO.C,R28*%
X147650000Y-75400000D03*
X147650000Y-77050000D03*
%TD*%
D14*
%TO.C,R21*%
X162925000Y-86900000D03*
X161275000Y-86900000D03*
%TD*%
D11*
%TO.C,R26*%
X132720000Y-87965000D03*
X132720000Y-89615000D03*
%TD*%
%TO.C,R23*%
X160925000Y-80650000D03*
X160925000Y-82300000D03*
%TD*%
%TO.C,R9*%
X139600000Y-47575000D03*
X139600000Y-49225000D03*
%TD*%
D13*
%TO.C,L1*%
X133850000Y-74112500D03*
X133850000Y-75687500D03*
%TD*%
D23*
%TO.C,U4*%
X166750000Y-46037500D03*
X165800000Y-46037500D03*
X164850000Y-46037500D03*
X164850000Y-48312500D03*
X166750000Y-48312500D03*
%TD*%
D18*
%TO.C,R11*%
X142000000Y-63625000D03*
X142000000Y-61975000D03*
%TD*%
D12*
%TO.C,C3*%
X137600000Y-130425000D03*
X137600000Y-131975000D03*
%TD*%
D22*
%TO.C,C2*%
X158000000Y-104050000D03*
X156450000Y-104050000D03*
%TD*%
D12*
%TO.C,C12*%
X141400000Y-58225000D03*
X141400000Y-59775000D03*
%TD*%
D24*
%TO.C,Uart_USB*%
X147050000Y-133225000D03*
X144750000Y-133225000D03*
D25*
X142150000Y-133225000D03*
X149650000Y-133225000D03*
D26*
X149100000Y-130775000D03*
X142700000Y-130775000D03*
D27*
X147200000Y-130550000D03*
X146550000Y-130550000D03*
X145900000Y-130550000D03*
X145250000Y-130550000D03*
X144600000Y-130550000D03*
%TD*%
D28*
%TO.C,U1*%
X143737500Y-54250000D03*
X143737500Y-54750000D03*
X143737500Y-55250000D03*
X143737500Y-55750000D03*
X143737500Y-56250000D03*
X143737500Y-56750000D03*
X143737500Y-57250000D03*
X143737500Y-57750000D03*
X143737500Y-58250000D03*
X143737500Y-58750000D03*
X143737500Y-59250000D03*
X143737500Y-59750000D03*
D29*
X145150000Y-61162500D03*
X145650000Y-61162500D03*
X146150000Y-61162500D03*
X146650000Y-61162500D03*
X147150000Y-61162500D03*
X147650000Y-61162500D03*
X148150000Y-61162500D03*
X148650000Y-61162500D03*
X149150000Y-61162500D03*
X149650000Y-61162500D03*
X150150000Y-61162500D03*
X150650000Y-61162500D03*
D28*
X152062500Y-59750000D03*
X152062500Y-59250000D03*
X152062500Y-58750000D03*
X152062500Y-58250000D03*
X152062500Y-57750000D03*
X152062500Y-57250000D03*
X152062500Y-56750000D03*
X152062500Y-56250000D03*
X152062500Y-55750000D03*
X152062500Y-55250000D03*
X152062500Y-54750000D03*
X152062500Y-54250000D03*
D29*
X150650000Y-52837500D03*
X150150000Y-52837500D03*
X149650000Y-52837500D03*
X149150000Y-52837500D03*
X148650000Y-52837500D03*
X148150000Y-52837500D03*
X147650000Y-52837500D03*
X147150000Y-52837500D03*
X146650000Y-52837500D03*
X146150000Y-52837500D03*
X145650000Y-52837500D03*
X145150000Y-52837500D03*
%TD*%
D12*
%TO.C,C19*%
X137125000Y-95225000D03*
X137125000Y-96775000D03*
%TD*%
D26*
%TO.C,S1*%
X139975000Y-105825000D03*
X132775000Y-105825000D03*
X139975000Y-108825000D03*
X132775000Y-108825000D03*
%TD*%
D14*
%TO.C,R46*%
X144050000Y-117150000D03*
X142400000Y-117150000D03*
%TD*%
D10*
%TO.C,D7*%
X150000000Y-127500000D03*
X146500000Y-127500000D03*
%TD*%
D19*
%TO.C,R15*%
X124065000Y-53850000D03*
X125715000Y-53850000D03*
%TD*%
D12*
%TO.C,C27*%
X138600000Y-95225000D03*
X138600000Y-96775000D03*
%TD*%
D22*
%TO.C,C22*%
X143975000Y-75700000D03*
X142425000Y-75700000D03*
%TD*%
D20*
%TO.C,D4*%
X146512500Y-102725000D03*
X148087500Y-102725000D03*
%TD*%
D16*
%TO.C,C33*%
X136850000Y-75675000D03*
X136850000Y-74125000D03*
%TD*%
%TO.C,C13*%
X152470000Y-53095000D03*
X152470000Y-51545000D03*
%TD*%
D19*
%TO.C,R37*%
X146475000Y-101225000D03*
X148125000Y-101225000D03*
%TD*%
D11*
%TO.C,R7*%
X125870000Y-50135000D03*
X125870000Y-51785000D03*
%TD*%
D15*
%TO.C,C37*%
X146500000Y-68050000D03*
X148050000Y-68050000D03*
%TD*%
D22*
%TO.C,C8*%
X165175000Y-50200000D03*
X163625000Y-50200000D03*
%TD*%
D11*
%TO.C,R32*%
X150700000Y-48340000D03*
X150700000Y-49990000D03*
%TD*%
D16*
%TO.C,C5*%
X135350000Y-118200000D03*
X135350000Y-116650000D03*
%TD*%
%TO.C,C28*%
X158825000Y-81800000D03*
X158825000Y-80250000D03*
%TD*%
D11*
%TO.C,R36*%
X143450000Y-104125000D03*
X143450000Y-105775000D03*
%TD*%
D30*
%TO.C,U8*%
X128200000Y-44600000D03*
X129900000Y-44600000D03*
X128200000Y-47700000D03*
X129900000Y-47700000D03*
%TD*%
D19*
%TO.C,R30*%
X164825000Y-85400000D03*
X166475000Y-85400000D03*
%TD*%
D11*
%TO.C,R8*%
X141200000Y-47575000D03*
X141200000Y-49225000D03*
%TD*%
%TO.C,R4*%
X155625000Y-77025000D03*
X155625000Y-78675000D03*
%TD*%
D19*
%TO.C,R16*%
X124065000Y-58600000D03*
X125715000Y-58600000D03*
%TD*%
D13*
%TO.C,D1*%
X158400000Y-47012500D03*
X158400000Y-48587500D03*
%TD*%
D19*
%TO.C,R17*%
X124035000Y-61020000D03*
X125685000Y-61020000D03*
%TD*%
D12*
%TO.C,C4*%
X139100000Y-130425000D03*
X139100000Y-131975000D03*
%TD*%
D16*
%TO.C,C31*%
X140650000Y-73975000D03*
X140650000Y-72425000D03*
%TD*%
D22*
%TO.C,C36*%
X151050000Y-68050000D03*
X149500000Y-68050000D03*
%TD*%
D31*
%TO.C,D8*%
X152800000Y-131912500D03*
X152800000Y-130337500D03*
%TD*%
D13*
%TO.C,D5*%
X149600000Y-104137500D03*
X149600000Y-105712500D03*
%TD*%
D32*
%TO.C,J1*%
X150050000Y-45770000D03*
X149250000Y-45770000D03*
X148450000Y-45770000D03*
X147650000Y-45770000D03*
X146850000Y-45770000D03*
D33*
X152900000Y-45645000D03*
X144000000Y-45645000D03*
X152900000Y-40145000D03*
X144000000Y-40145000D03*
%TD*%
D26*
%TO.C,S2*%
X160900000Y-105825000D03*
X153700000Y-105825000D03*
X160900000Y-108825000D03*
X153700000Y-108825000D03*
%TD*%
D12*
%TO.C,C7*%
X163360000Y-46215000D03*
X163360000Y-47765000D03*
%TD*%
D18*
%TO.C,R24*%
X162450000Y-82300000D03*
X162450000Y-80650000D03*
%TD*%
D16*
%TO.C,C32*%
X135350000Y-75675000D03*
X135350000Y-74125000D03*
%TD*%
D19*
%TO.C,R35*%
X146475000Y-108700000D03*
X148125000Y-108700000D03*
%TD*%
D14*
%TO.C,R22*%
X162925000Y-85400000D03*
X161275000Y-85400000D03*
%TD*%
D11*
%TO.C,R25*%
X131200000Y-87975000D03*
X131200000Y-89625000D03*
%TD*%
D34*
%TO.C,U3*%
X145975000Y-115910000D03*
X145975000Y-117180000D03*
X145975000Y-118450000D03*
X145975000Y-119720000D03*
X145975000Y-120990000D03*
X145975000Y-122260000D03*
X145975000Y-123530000D03*
X145975000Y-124800000D03*
X150925000Y-124800000D03*
X150925000Y-123530000D03*
X150925000Y-122260000D03*
X150925000Y-120990000D03*
X150925000Y-119720000D03*
X150925000Y-118450000D03*
X150925000Y-117180000D03*
X150925000Y-115910000D03*
%TD*%
D11*
%TO.C,R38*%
X151125000Y-104100000D03*
X151125000Y-105750000D03*
%TD*%
D15*
%TO.C,C26*%
X154975000Y-96350000D03*
X156525000Y-96350000D03*
%TD*%
D20*
%TO.C,D2*%
X146512500Y-107200000D03*
X148087500Y-107200000D03*
%TD*%
D11*
%TO.C,R33*%
X149220000Y-48340000D03*
X149220000Y-49990000D03*
%TD*%
D35*
%TO.C,U7*%
X153800000Y-80400000D03*
X153300000Y-80400000D03*
X152800000Y-80400000D03*
X152300000Y-80400000D03*
X151800000Y-80400000D03*
X151300000Y-80400000D03*
X150800000Y-80400000D03*
X150300000Y-80400000D03*
X149800000Y-80400000D03*
X149300000Y-80400000D03*
X148800000Y-80400000D03*
X148300000Y-80400000D03*
X147800000Y-80400000D03*
X147300000Y-80400000D03*
X146800000Y-80400000D03*
X146300000Y-80400000D03*
X145800000Y-80400000D03*
X145300000Y-80400000D03*
X144800000Y-80400000D03*
X144300000Y-80400000D03*
X143800000Y-80400000D03*
X143300000Y-80400000D03*
X142800000Y-80400000D03*
X142300000Y-80400000D03*
X141800000Y-80400000D03*
D36*
X140125000Y-82075000D03*
X140125000Y-82575000D03*
X140125000Y-83075000D03*
X140125000Y-83575000D03*
X140125000Y-84075000D03*
X140125000Y-84575000D03*
X140125000Y-85075000D03*
X140125000Y-85575000D03*
X140125000Y-86075000D03*
X140125000Y-86575000D03*
X140125000Y-87075000D03*
X140125000Y-87575000D03*
X140125000Y-88075000D03*
X140125000Y-88575000D03*
X140125000Y-89075000D03*
X140125000Y-89575000D03*
X140125000Y-90075000D03*
X140125000Y-90575000D03*
X140125000Y-91075000D03*
X140125000Y-91575000D03*
X140125000Y-92075000D03*
X140125000Y-92575000D03*
X140125000Y-93075000D03*
X140125000Y-93575000D03*
X140125000Y-94075000D03*
D35*
X141800000Y-95750000D03*
X142300000Y-95750000D03*
X142800000Y-95750000D03*
X143300000Y-95750000D03*
X143800000Y-95750000D03*
X144300000Y-95750000D03*
X144800000Y-95750000D03*
X145300000Y-95750000D03*
X145800000Y-95750000D03*
X146300000Y-95750000D03*
X146800000Y-95750000D03*
X147300000Y-95750000D03*
X147800000Y-95750000D03*
X148300000Y-95750000D03*
X148800000Y-95750000D03*
X149300000Y-95750000D03*
X149800000Y-95750000D03*
X150300000Y-95750000D03*
X150800000Y-95750000D03*
X151300000Y-95750000D03*
X151800000Y-95750000D03*
X152300000Y-95750000D03*
X152800000Y-95750000D03*
X153300000Y-95750000D03*
X153800000Y-95750000D03*
D36*
X155475000Y-94075000D03*
X155475000Y-93575000D03*
X155475000Y-93075000D03*
X155475000Y-92575000D03*
X155475000Y-92075000D03*
X155475000Y-91575000D03*
X155475000Y-91075000D03*
X155475000Y-90575000D03*
X155475000Y-90075000D03*
X155475000Y-89575000D03*
X155475000Y-89075000D03*
X155475000Y-88575000D03*
X155475000Y-88075000D03*
X155475000Y-87575000D03*
X155475000Y-87075000D03*
X155475000Y-86575000D03*
X155475000Y-86075000D03*
X155475000Y-85575000D03*
X155475000Y-85075000D03*
X155475000Y-84575000D03*
X155475000Y-84075000D03*
X155475000Y-83575000D03*
X155475000Y-83075000D03*
X155475000Y-82575000D03*
X155475000Y-82075000D03*
%TD*%
D18*
%TO.C,R31*%
X158400000Y-51625000D03*
X158400000Y-49975000D03*
%TD*%
D20*
%TO.C,D9*%
X145962500Y-114375000D03*
X147537500Y-114375000D03*
%TD*%
D16*
%TO.C,C9*%
X169760000Y-47815000D03*
X169760000Y-46265000D03*
%TD*%
%TO.C,C29*%
X157125000Y-78625000D03*
X157125000Y-77075000D03*
%TD*%
D11*
%TO.C,R3*%
X147710000Y-48340000D03*
X147710000Y-49990000D03*
%TD*%
D18*
%TO.C,R5*%
X129900000Y-51125000D03*
X129900000Y-49475000D03*
%TD*%
D16*
%TO.C,C34*%
X135350000Y-122500000D03*
X135350000Y-120950000D03*
%TD*%
D12*
%TO.C,C16*%
X132200000Y-59025000D03*
X132200000Y-60575000D03*
%TD*%
D16*
%TO.C,C14*%
X143320000Y-53075000D03*
X143320000Y-51525000D03*
%TD*%
D17*
%TO.C,U5*%
X169810000Y-49230000D03*
X169810000Y-51630000D03*
%TD*%
M02*
