%TF.GenerationSoftware,KiCad,Pcbnew,7.0.1*%
%TF.CreationDate,2023-09-29T14:49:09+07:00*%
%TF.ProjectId,STM32F407xxx,53544d33-3246-4343-9037-7878782e6b69,rev?*%
%TF.SameCoordinates,Original*%
%TF.FileFunction,Legend,Bot*%
%TF.FilePolarity,Positive*%
%FSLAX46Y46*%
G04 Gerber Fmt 4.6, Leading zero omitted, Abs format (unit mm)*
G04 Created by KiCad (PCBNEW 7.0.1) date 2023-09-29 14:49:09*
%MOMM*%
%LPD*%
G01*
G04 APERTURE LIST*
%ADD10C,0.100000*%
%ADD11C,0.125000*%
%ADD12C,0.120000*%
G04 APERTURE END LIST*
D10*
X178192857Y-60815142D02*
X178250000Y-60786571D01*
X178250000Y-60786571D02*
X178335714Y-60786571D01*
X178335714Y-60786571D02*
X178421428Y-60815142D01*
X178421428Y-60815142D02*
X178478571Y-60872285D01*
X178478571Y-60872285D02*
X178507142Y-60929428D01*
X178507142Y-60929428D02*
X178535714Y-61043714D01*
X178535714Y-61043714D02*
X178535714Y-61129428D01*
X178535714Y-61129428D02*
X178507142Y-61243714D01*
X178507142Y-61243714D02*
X178478571Y-61300857D01*
X178478571Y-61300857D02*
X178421428Y-61358000D01*
X178421428Y-61358000D02*
X178335714Y-61386571D01*
X178335714Y-61386571D02*
X178278571Y-61386571D01*
X178278571Y-61386571D02*
X178192857Y-61358000D01*
X178192857Y-61358000D02*
X178164285Y-61329428D01*
X178164285Y-61329428D02*
X178164285Y-61129428D01*
X178164285Y-61129428D02*
X178278571Y-61129428D01*
X177907142Y-61386571D02*
X177907142Y-60786571D01*
X177907142Y-60786571D02*
X177564285Y-61386571D01*
X177564285Y-61386571D02*
X177564285Y-60786571D01*
X177278571Y-61386571D02*
X177278571Y-60786571D01*
X177278571Y-60786571D02*
X177135714Y-60786571D01*
X177135714Y-60786571D02*
X177050000Y-60815142D01*
X177050000Y-60815142D02*
X176992857Y-60872285D01*
X176992857Y-60872285D02*
X176964286Y-60929428D01*
X176964286Y-60929428D02*
X176935714Y-61043714D01*
X176935714Y-61043714D02*
X176935714Y-61129428D01*
X176935714Y-61129428D02*
X176964286Y-61243714D01*
X176964286Y-61243714D02*
X176992857Y-61300857D01*
X176992857Y-61300857D02*
X177050000Y-61358000D01*
X177050000Y-61358000D02*
X177135714Y-61386571D01*
X177135714Y-61386571D02*
X177278571Y-61386571D01*
X177834285Y-55846571D02*
X177462857Y-55846571D01*
X177462857Y-55846571D02*
X177662857Y-56075142D01*
X177662857Y-56075142D02*
X177577142Y-56075142D01*
X177577142Y-56075142D02*
X177520000Y-56103714D01*
X177520000Y-56103714D02*
X177491428Y-56132285D01*
X177491428Y-56132285D02*
X177462857Y-56189428D01*
X177462857Y-56189428D02*
X177462857Y-56332285D01*
X177462857Y-56332285D02*
X177491428Y-56389428D01*
X177491428Y-56389428D02*
X177520000Y-56418000D01*
X177520000Y-56418000D02*
X177577142Y-56446571D01*
X177577142Y-56446571D02*
X177748571Y-56446571D01*
X177748571Y-56446571D02*
X177805714Y-56418000D01*
X177805714Y-56418000D02*
X177834285Y-56389428D01*
X177291428Y-55846571D02*
X177091428Y-56446571D01*
X177091428Y-56446571D02*
X176891428Y-55846571D01*
X179565714Y-63868000D02*
X179480000Y-63896571D01*
X179480000Y-63896571D02*
X179337142Y-63896571D01*
X179337142Y-63896571D02*
X179280000Y-63868000D01*
X179280000Y-63868000D02*
X179251428Y-63839428D01*
X179251428Y-63839428D02*
X179222857Y-63782285D01*
X179222857Y-63782285D02*
X179222857Y-63725142D01*
X179222857Y-63725142D02*
X179251428Y-63668000D01*
X179251428Y-63668000D02*
X179280000Y-63639428D01*
X179280000Y-63639428D02*
X179337142Y-63610857D01*
X179337142Y-63610857D02*
X179451428Y-63582285D01*
X179451428Y-63582285D02*
X179508571Y-63553714D01*
X179508571Y-63553714D02*
X179537142Y-63525142D01*
X179537142Y-63525142D02*
X179565714Y-63468000D01*
X179565714Y-63468000D02*
X179565714Y-63410857D01*
X179565714Y-63410857D02*
X179537142Y-63353714D01*
X179537142Y-63353714D02*
X179508571Y-63325142D01*
X179508571Y-63325142D02*
X179451428Y-63296571D01*
X179451428Y-63296571D02*
X179308571Y-63296571D01*
X179308571Y-63296571D02*
X179222857Y-63325142D01*
X179022856Y-63296571D02*
X178879999Y-63896571D01*
X178879999Y-63896571D02*
X178765713Y-63468000D01*
X178765713Y-63468000D02*
X178651428Y-63896571D01*
X178651428Y-63896571D02*
X178508571Y-63296571D01*
X178279999Y-63896571D02*
X178279999Y-63296571D01*
X178279999Y-63296571D02*
X178137142Y-63296571D01*
X178137142Y-63296571D02*
X178051428Y-63325142D01*
X178051428Y-63325142D02*
X177994285Y-63382285D01*
X177994285Y-63382285D02*
X177965714Y-63439428D01*
X177965714Y-63439428D02*
X177937142Y-63553714D01*
X177937142Y-63553714D02*
X177937142Y-63639428D01*
X177937142Y-63639428D02*
X177965714Y-63753714D01*
X177965714Y-63753714D02*
X177994285Y-63810857D01*
X177994285Y-63810857D02*
X178051428Y-63868000D01*
X178051428Y-63868000D02*
X178137142Y-63896571D01*
X178137142Y-63896571D02*
X178279999Y-63896571D01*
X177679999Y-63896571D02*
X177679999Y-63296571D01*
X177280000Y-63296571D02*
X177165714Y-63296571D01*
X177165714Y-63296571D02*
X177108571Y-63325142D01*
X177108571Y-63325142D02*
X177051428Y-63382285D01*
X177051428Y-63382285D02*
X177022857Y-63496571D01*
X177022857Y-63496571D02*
X177022857Y-63696571D01*
X177022857Y-63696571D02*
X177051428Y-63810857D01*
X177051428Y-63810857D02*
X177108571Y-63868000D01*
X177108571Y-63868000D02*
X177165714Y-63896571D01*
X177165714Y-63896571D02*
X177280000Y-63896571D01*
X177280000Y-63896571D02*
X177337143Y-63868000D01*
X177337143Y-63868000D02*
X177394285Y-63810857D01*
X177394285Y-63810857D02*
X177422857Y-63696571D01*
X177422857Y-63696571D02*
X177422857Y-63496571D01*
X177422857Y-63496571D02*
X177394285Y-63382285D01*
X177394285Y-63382285D02*
X177337143Y-63325142D01*
X177337143Y-63325142D02*
X177280000Y-63296571D01*
X179665714Y-58908000D02*
X179580000Y-58936571D01*
X179580000Y-58936571D02*
X179437142Y-58936571D01*
X179437142Y-58936571D02*
X179380000Y-58908000D01*
X179380000Y-58908000D02*
X179351428Y-58879428D01*
X179351428Y-58879428D02*
X179322857Y-58822285D01*
X179322857Y-58822285D02*
X179322857Y-58765142D01*
X179322857Y-58765142D02*
X179351428Y-58708000D01*
X179351428Y-58708000D02*
X179380000Y-58679428D01*
X179380000Y-58679428D02*
X179437142Y-58650857D01*
X179437142Y-58650857D02*
X179551428Y-58622285D01*
X179551428Y-58622285D02*
X179608571Y-58593714D01*
X179608571Y-58593714D02*
X179637142Y-58565142D01*
X179637142Y-58565142D02*
X179665714Y-58508000D01*
X179665714Y-58508000D02*
X179665714Y-58450857D01*
X179665714Y-58450857D02*
X179637142Y-58393714D01*
X179637142Y-58393714D02*
X179608571Y-58365142D01*
X179608571Y-58365142D02*
X179551428Y-58336571D01*
X179551428Y-58336571D02*
X179408571Y-58336571D01*
X179408571Y-58336571D02*
X179322857Y-58365142D01*
X179122856Y-58336571D02*
X178979999Y-58936571D01*
X178979999Y-58936571D02*
X178865713Y-58508000D01*
X178865713Y-58508000D02*
X178751428Y-58936571D01*
X178751428Y-58936571D02*
X178608571Y-58336571D01*
X178037142Y-58879428D02*
X178065714Y-58908000D01*
X178065714Y-58908000D02*
X178151428Y-58936571D01*
X178151428Y-58936571D02*
X178208571Y-58936571D01*
X178208571Y-58936571D02*
X178294285Y-58908000D01*
X178294285Y-58908000D02*
X178351428Y-58850857D01*
X178351428Y-58850857D02*
X178379999Y-58793714D01*
X178379999Y-58793714D02*
X178408571Y-58679428D01*
X178408571Y-58679428D02*
X178408571Y-58593714D01*
X178408571Y-58593714D02*
X178379999Y-58479428D01*
X178379999Y-58479428D02*
X178351428Y-58422285D01*
X178351428Y-58422285D02*
X178294285Y-58365142D01*
X178294285Y-58365142D02*
X178208571Y-58336571D01*
X178208571Y-58336571D02*
X178151428Y-58336571D01*
X178151428Y-58336571D02*
X178065714Y-58365142D01*
X178065714Y-58365142D02*
X178037142Y-58393714D01*
X177494285Y-58936571D02*
X177779999Y-58936571D01*
X177779999Y-58936571D02*
X177779999Y-58336571D01*
X177294285Y-58936571D02*
X177294285Y-58336571D01*
X176951428Y-58936571D02*
X177208571Y-58593714D01*
X176951428Y-58336571D02*
X177294285Y-58679428D01*
X170500000Y-54762500D02*
X174525000Y-54762500D01*
X174525000Y-64937500D01*
X170500000Y-64937500D01*
X170500000Y-54762500D01*
X163675000Y-54650000D02*
X167700000Y-54650000D01*
X167700000Y-64825000D01*
X163675000Y-64825000D01*
X163675000Y-54650000D01*
D11*
X175957619Y-57058095D02*
X174957619Y-57058095D01*
X174957619Y-57058095D02*
X174957619Y-57296190D01*
X174957619Y-57296190D02*
X175005238Y-57439047D01*
X175005238Y-57439047D02*
X175100476Y-57534285D01*
X175100476Y-57534285D02*
X175195714Y-57581904D01*
X175195714Y-57581904D02*
X175386190Y-57629523D01*
X175386190Y-57629523D02*
X175529047Y-57629523D01*
X175529047Y-57629523D02*
X175719523Y-57581904D01*
X175719523Y-57581904D02*
X175814761Y-57534285D01*
X175814761Y-57534285D02*
X175910000Y-57439047D01*
X175910000Y-57439047D02*
X175957619Y-57296190D01*
X175957619Y-57296190D02*
X175957619Y-57058095D01*
X175433809Y-58058095D02*
X175433809Y-58391428D01*
X175957619Y-58534285D02*
X175957619Y-58058095D01*
X175957619Y-58058095D02*
X174957619Y-58058095D01*
X174957619Y-58058095D02*
X174957619Y-58534285D01*
X175433809Y-59296190D02*
X175433809Y-58962857D01*
X175957619Y-58962857D02*
X174957619Y-58962857D01*
X174957619Y-58962857D02*
X174957619Y-59439047D01*
X175671904Y-59772381D02*
X175671904Y-60248571D01*
X175957619Y-59677143D02*
X174957619Y-60010476D01*
X174957619Y-60010476D02*
X175957619Y-60343809D01*
X174957619Y-60677143D02*
X175767142Y-60677143D01*
X175767142Y-60677143D02*
X175862380Y-60724762D01*
X175862380Y-60724762D02*
X175910000Y-60772381D01*
X175910000Y-60772381D02*
X175957619Y-60867619D01*
X175957619Y-60867619D02*
X175957619Y-61058095D01*
X175957619Y-61058095D02*
X175910000Y-61153333D01*
X175910000Y-61153333D02*
X175862380Y-61200952D01*
X175862380Y-61200952D02*
X175767142Y-61248571D01*
X175767142Y-61248571D02*
X174957619Y-61248571D01*
X175957619Y-62200952D02*
X175957619Y-61724762D01*
X175957619Y-61724762D02*
X174957619Y-61724762D01*
X174957619Y-62391429D02*
X174957619Y-62962857D01*
X175957619Y-62677143D02*
X174957619Y-62677143D01*
X163267619Y-57189523D02*
X162791428Y-56856190D01*
X163267619Y-56618095D02*
X162267619Y-56618095D01*
X162267619Y-56618095D02*
X162267619Y-56999047D01*
X162267619Y-56999047D02*
X162315238Y-57094285D01*
X162315238Y-57094285D02*
X162362857Y-57141904D01*
X162362857Y-57141904D02*
X162458095Y-57189523D01*
X162458095Y-57189523D02*
X162600952Y-57189523D01*
X162600952Y-57189523D02*
X162696190Y-57141904D01*
X162696190Y-57141904D02*
X162743809Y-57094285D01*
X162743809Y-57094285D02*
X162791428Y-56999047D01*
X162791428Y-56999047D02*
X162791428Y-56618095D01*
X162743809Y-57618095D02*
X162743809Y-57951428D01*
X163267619Y-58094285D02*
X163267619Y-57618095D01*
X163267619Y-57618095D02*
X162267619Y-57618095D01*
X162267619Y-57618095D02*
X162267619Y-58094285D01*
X163220000Y-58475238D02*
X163267619Y-58618095D01*
X163267619Y-58618095D02*
X163267619Y-58856190D01*
X163267619Y-58856190D02*
X163220000Y-58951428D01*
X163220000Y-58951428D02*
X163172380Y-58999047D01*
X163172380Y-58999047D02*
X163077142Y-59046666D01*
X163077142Y-59046666D02*
X162981904Y-59046666D01*
X162981904Y-59046666D02*
X162886666Y-58999047D01*
X162886666Y-58999047D02*
X162839047Y-58951428D01*
X162839047Y-58951428D02*
X162791428Y-58856190D01*
X162791428Y-58856190D02*
X162743809Y-58665714D01*
X162743809Y-58665714D02*
X162696190Y-58570476D01*
X162696190Y-58570476D02*
X162648571Y-58522857D01*
X162648571Y-58522857D02*
X162553333Y-58475238D01*
X162553333Y-58475238D02*
X162458095Y-58475238D01*
X162458095Y-58475238D02*
X162362857Y-58522857D01*
X162362857Y-58522857D02*
X162315238Y-58570476D01*
X162315238Y-58570476D02*
X162267619Y-58665714D01*
X162267619Y-58665714D02*
X162267619Y-58903809D01*
X162267619Y-58903809D02*
X162315238Y-59046666D01*
X162743809Y-59475238D02*
X162743809Y-59808571D01*
X163267619Y-59951428D02*
X163267619Y-59475238D01*
X163267619Y-59475238D02*
X162267619Y-59475238D01*
X162267619Y-59475238D02*
X162267619Y-59951428D01*
X163267619Y-60951428D02*
X162791428Y-60618095D01*
X163267619Y-60380000D02*
X162267619Y-60380000D01*
X162267619Y-60380000D02*
X162267619Y-60760952D01*
X162267619Y-60760952D02*
X162315238Y-60856190D01*
X162315238Y-60856190D02*
X162362857Y-60903809D01*
X162362857Y-60903809D02*
X162458095Y-60951428D01*
X162458095Y-60951428D02*
X162600952Y-60951428D01*
X162600952Y-60951428D02*
X162696190Y-60903809D01*
X162696190Y-60903809D02*
X162743809Y-60856190D01*
X162743809Y-60856190D02*
X162791428Y-60760952D01*
X162791428Y-60760952D02*
X162791428Y-60380000D01*
X162267619Y-61237143D02*
X163267619Y-61570476D01*
X163267619Y-61570476D02*
X162267619Y-61903809D01*
X162743809Y-62237143D02*
X162743809Y-62570476D01*
X163267619Y-62713333D02*
X163267619Y-62237143D01*
X163267619Y-62237143D02*
X162267619Y-62237143D01*
X162267619Y-62237143D02*
X162267619Y-62713333D01*
X163267619Y-63141905D02*
X162267619Y-63141905D01*
X162267619Y-63141905D02*
X162267619Y-63380000D01*
X162267619Y-63380000D02*
X162315238Y-63522857D01*
X162315238Y-63522857D02*
X162410476Y-63618095D01*
X162410476Y-63618095D02*
X162505714Y-63665714D01*
X162505714Y-63665714D02*
X162696190Y-63713333D01*
X162696190Y-63713333D02*
X162839047Y-63713333D01*
X162839047Y-63713333D02*
X163029523Y-63665714D01*
X163029523Y-63665714D02*
X163124761Y-63618095D01*
X163124761Y-63618095D02*
X163220000Y-63522857D01*
X163220000Y-63522857D02*
X163267619Y-63380000D01*
X163267619Y-63380000D02*
X163267619Y-63141905D01*
D10*
%TO.C,SB7*%
X171274000Y-60594048D02*
X171302571Y-60665476D01*
X171302571Y-60665476D02*
X171302571Y-60784524D01*
X171302571Y-60784524D02*
X171274000Y-60832143D01*
X171274000Y-60832143D02*
X171245428Y-60855952D01*
X171245428Y-60855952D02*
X171188285Y-60879762D01*
X171188285Y-60879762D02*
X171131142Y-60879762D01*
X171131142Y-60879762D02*
X171074000Y-60855952D01*
X171074000Y-60855952D02*
X171045428Y-60832143D01*
X171045428Y-60832143D02*
X171016857Y-60784524D01*
X171016857Y-60784524D02*
X170988285Y-60689286D01*
X170988285Y-60689286D02*
X170959714Y-60641667D01*
X170959714Y-60641667D02*
X170931142Y-60617857D01*
X170931142Y-60617857D02*
X170874000Y-60594048D01*
X170874000Y-60594048D02*
X170816857Y-60594048D01*
X170816857Y-60594048D02*
X170759714Y-60617857D01*
X170759714Y-60617857D02*
X170731142Y-60641667D01*
X170731142Y-60641667D02*
X170702571Y-60689286D01*
X170702571Y-60689286D02*
X170702571Y-60808333D01*
X170702571Y-60808333D02*
X170731142Y-60879762D01*
X170988285Y-61260714D02*
X171016857Y-61332142D01*
X171016857Y-61332142D02*
X171045428Y-61355952D01*
X171045428Y-61355952D02*
X171102571Y-61379761D01*
X171102571Y-61379761D02*
X171188285Y-61379761D01*
X171188285Y-61379761D02*
X171245428Y-61355952D01*
X171245428Y-61355952D02*
X171274000Y-61332142D01*
X171274000Y-61332142D02*
X171302571Y-61284523D01*
X171302571Y-61284523D02*
X171302571Y-61094047D01*
X171302571Y-61094047D02*
X170702571Y-61094047D01*
X170702571Y-61094047D02*
X170702571Y-61260714D01*
X170702571Y-61260714D02*
X170731142Y-61308333D01*
X170731142Y-61308333D02*
X170759714Y-61332142D01*
X170759714Y-61332142D02*
X170816857Y-61355952D01*
X170816857Y-61355952D02*
X170874000Y-61355952D01*
X170874000Y-61355952D02*
X170931142Y-61332142D01*
X170931142Y-61332142D02*
X170959714Y-61308333D01*
X170959714Y-61308333D02*
X170988285Y-61260714D01*
X170988285Y-61260714D02*
X170988285Y-61094047D01*
X170702571Y-61546428D02*
X170702571Y-61879761D01*
X170702571Y-61879761D02*
X171302571Y-61665476D01*
%TO.C,SB20*%
X128399000Y-102800953D02*
X128427571Y-102872381D01*
X128427571Y-102872381D02*
X128427571Y-102991429D01*
X128427571Y-102991429D02*
X128399000Y-103039048D01*
X128399000Y-103039048D02*
X128370428Y-103062857D01*
X128370428Y-103062857D02*
X128313285Y-103086667D01*
X128313285Y-103086667D02*
X128256142Y-103086667D01*
X128256142Y-103086667D02*
X128199000Y-103062857D01*
X128199000Y-103062857D02*
X128170428Y-103039048D01*
X128170428Y-103039048D02*
X128141857Y-102991429D01*
X128141857Y-102991429D02*
X128113285Y-102896191D01*
X128113285Y-102896191D02*
X128084714Y-102848572D01*
X128084714Y-102848572D02*
X128056142Y-102824762D01*
X128056142Y-102824762D02*
X127999000Y-102800953D01*
X127999000Y-102800953D02*
X127941857Y-102800953D01*
X127941857Y-102800953D02*
X127884714Y-102824762D01*
X127884714Y-102824762D02*
X127856142Y-102848572D01*
X127856142Y-102848572D02*
X127827571Y-102896191D01*
X127827571Y-102896191D02*
X127827571Y-103015238D01*
X127827571Y-103015238D02*
X127856142Y-103086667D01*
X128113285Y-103467619D02*
X128141857Y-103539047D01*
X128141857Y-103539047D02*
X128170428Y-103562857D01*
X128170428Y-103562857D02*
X128227571Y-103586666D01*
X128227571Y-103586666D02*
X128313285Y-103586666D01*
X128313285Y-103586666D02*
X128370428Y-103562857D01*
X128370428Y-103562857D02*
X128399000Y-103539047D01*
X128399000Y-103539047D02*
X128427571Y-103491428D01*
X128427571Y-103491428D02*
X128427571Y-103300952D01*
X128427571Y-103300952D02*
X127827571Y-103300952D01*
X127827571Y-103300952D02*
X127827571Y-103467619D01*
X127827571Y-103467619D02*
X127856142Y-103515238D01*
X127856142Y-103515238D02*
X127884714Y-103539047D01*
X127884714Y-103539047D02*
X127941857Y-103562857D01*
X127941857Y-103562857D02*
X127999000Y-103562857D01*
X127999000Y-103562857D02*
X128056142Y-103539047D01*
X128056142Y-103539047D02*
X128084714Y-103515238D01*
X128084714Y-103515238D02*
X128113285Y-103467619D01*
X128113285Y-103467619D02*
X128113285Y-103300952D01*
X127884714Y-103777143D02*
X127856142Y-103800952D01*
X127856142Y-103800952D02*
X127827571Y-103848571D01*
X127827571Y-103848571D02*
X127827571Y-103967619D01*
X127827571Y-103967619D02*
X127856142Y-104015238D01*
X127856142Y-104015238D02*
X127884714Y-104039047D01*
X127884714Y-104039047D02*
X127941857Y-104062857D01*
X127941857Y-104062857D02*
X127999000Y-104062857D01*
X127999000Y-104062857D02*
X128084714Y-104039047D01*
X128084714Y-104039047D02*
X128427571Y-103753333D01*
X128427571Y-103753333D02*
X128427571Y-104062857D01*
X127827571Y-104372380D02*
X127827571Y-104419999D01*
X127827571Y-104419999D02*
X127856142Y-104467618D01*
X127856142Y-104467618D02*
X127884714Y-104491428D01*
X127884714Y-104491428D02*
X127941857Y-104515237D01*
X127941857Y-104515237D02*
X128056142Y-104539047D01*
X128056142Y-104539047D02*
X128199000Y-104539047D01*
X128199000Y-104539047D02*
X128313285Y-104515237D01*
X128313285Y-104515237D02*
X128370428Y-104491428D01*
X128370428Y-104491428D02*
X128399000Y-104467618D01*
X128399000Y-104467618D02*
X128427571Y-104419999D01*
X128427571Y-104419999D02*
X128427571Y-104372380D01*
X128427571Y-104372380D02*
X128399000Y-104324761D01*
X128399000Y-104324761D02*
X128370428Y-104300952D01*
X128370428Y-104300952D02*
X128313285Y-104277142D01*
X128313285Y-104277142D02*
X128199000Y-104253333D01*
X128199000Y-104253333D02*
X128056142Y-104253333D01*
X128056142Y-104253333D02*
X127941857Y-104277142D01*
X127941857Y-104277142D02*
X127884714Y-104300952D01*
X127884714Y-104300952D02*
X127856142Y-104324761D01*
X127856142Y-104324761D02*
X127827571Y-104372380D01*
%TO.C,C17*%
X158470428Y-61003571D02*
X158499000Y-60979762D01*
X158499000Y-60979762D02*
X158527571Y-60908333D01*
X158527571Y-60908333D02*
X158527571Y-60860714D01*
X158527571Y-60860714D02*
X158499000Y-60789286D01*
X158499000Y-60789286D02*
X158441857Y-60741667D01*
X158441857Y-60741667D02*
X158384714Y-60717857D01*
X158384714Y-60717857D02*
X158270428Y-60694048D01*
X158270428Y-60694048D02*
X158184714Y-60694048D01*
X158184714Y-60694048D02*
X158070428Y-60717857D01*
X158070428Y-60717857D02*
X158013285Y-60741667D01*
X158013285Y-60741667D02*
X157956142Y-60789286D01*
X157956142Y-60789286D02*
X157927571Y-60860714D01*
X157927571Y-60860714D02*
X157927571Y-60908333D01*
X157927571Y-60908333D02*
X157956142Y-60979762D01*
X157956142Y-60979762D02*
X157984714Y-61003571D01*
X158527571Y-61479762D02*
X158527571Y-61194048D01*
X158527571Y-61336905D02*
X157927571Y-61336905D01*
X157927571Y-61336905D02*
X158013285Y-61289286D01*
X158013285Y-61289286D02*
X158070428Y-61241667D01*
X158070428Y-61241667D02*
X158099000Y-61194048D01*
X157927571Y-61646428D02*
X157927571Y-61979761D01*
X157927571Y-61979761D02*
X158527571Y-61765476D01*
%TO.C,SB9*%
X171249000Y-63044048D02*
X171277571Y-63115476D01*
X171277571Y-63115476D02*
X171277571Y-63234524D01*
X171277571Y-63234524D02*
X171249000Y-63282143D01*
X171249000Y-63282143D02*
X171220428Y-63305952D01*
X171220428Y-63305952D02*
X171163285Y-63329762D01*
X171163285Y-63329762D02*
X171106142Y-63329762D01*
X171106142Y-63329762D02*
X171049000Y-63305952D01*
X171049000Y-63305952D02*
X171020428Y-63282143D01*
X171020428Y-63282143D02*
X170991857Y-63234524D01*
X170991857Y-63234524D02*
X170963285Y-63139286D01*
X170963285Y-63139286D02*
X170934714Y-63091667D01*
X170934714Y-63091667D02*
X170906142Y-63067857D01*
X170906142Y-63067857D02*
X170849000Y-63044048D01*
X170849000Y-63044048D02*
X170791857Y-63044048D01*
X170791857Y-63044048D02*
X170734714Y-63067857D01*
X170734714Y-63067857D02*
X170706142Y-63091667D01*
X170706142Y-63091667D02*
X170677571Y-63139286D01*
X170677571Y-63139286D02*
X170677571Y-63258333D01*
X170677571Y-63258333D02*
X170706142Y-63329762D01*
X170963285Y-63710714D02*
X170991857Y-63782142D01*
X170991857Y-63782142D02*
X171020428Y-63805952D01*
X171020428Y-63805952D02*
X171077571Y-63829761D01*
X171077571Y-63829761D02*
X171163285Y-63829761D01*
X171163285Y-63829761D02*
X171220428Y-63805952D01*
X171220428Y-63805952D02*
X171249000Y-63782142D01*
X171249000Y-63782142D02*
X171277571Y-63734523D01*
X171277571Y-63734523D02*
X171277571Y-63544047D01*
X171277571Y-63544047D02*
X170677571Y-63544047D01*
X170677571Y-63544047D02*
X170677571Y-63710714D01*
X170677571Y-63710714D02*
X170706142Y-63758333D01*
X170706142Y-63758333D02*
X170734714Y-63782142D01*
X170734714Y-63782142D02*
X170791857Y-63805952D01*
X170791857Y-63805952D02*
X170849000Y-63805952D01*
X170849000Y-63805952D02*
X170906142Y-63782142D01*
X170906142Y-63782142D02*
X170934714Y-63758333D01*
X170934714Y-63758333D02*
X170963285Y-63710714D01*
X170963285Y-63710714D02*
X170963285Y-63544047D01*
X171277571Y-64067857D02*
X171277571Y-64163095D01*
X171277571Y-64163095D02*
X171249000Y-64210714D01*
X171249000Y-64210714D02*
X171220428Y-64234523D01*
X171220428Y-64234523D02*
X171134714Y-64282142D01*
X171134714Y-64282142D02*
X171020428Y-64305952D01*
X171020428Y-64305952D02*
X170791857Y-64305952D01*
X170791857Y-64305952D02*
X170734714Y-64282142D01*
X170734714Y-64282142D02*
X170706142Y-64258333D01*
X170706142Y-64258333D02*
X170677571Y-64210714D01*
X170677571Y-64210714D02*
X170677571Y-64115476D01*
X170677571Y-64115476D02*
X170706142Y-64067857D01*
X170706142Y-64067857D02*
X170734714Y-64044047D01*
X170734714Y-64044047D02*
X170791857Y-64020238D01*
X170791857Y-64020238D02*
X170934714Y-64020238D01*
X170934714Y-64020238D02*
X170991857Y-64044047D01*
X170991857Y-64044047D02*
X171020428Y-64067857D01*
X171020428Y-64067857D02*
X171049000Y-64115476D01*
X171049000Y-64115476D02*
X171049000Y-64210714D01*
X171049000Y-64210714D02*
X171020428Y-64258333D01*
X171020428Y-64258333D02*
X170991857Y-64282142D01*
X170991857Y-64282142D02*
X170934714Y-64305952D01*
%TO.C,SB11*%
X155309000Y-65950953D02*
X155337571Y-66022381D01*
X155337571Y-66022381D02*
X155337571Y-66141429D01*
X155337571Y-66141429D02*
X155309000Y-66189048D01*
X155309000Y-66189048D02*
X155280428Y-66212857D01*
X155280428Y-66212857D02*
X155223285Y-66236667D01*
X155223285Y-66236667D02*
X155166142Y-66236667D01*
X155166142Y-66236667D02*
X155109000Y-66212857D01*
X155109000Y-66212857D02*
X155080428Y-66189048D01*
X155080428Y-66189048D02*
X155051857Y-66141429D01*
X155051857Y-66141429D02*
X155023285Y-66046191D01*
X155023285Y-66046191D02*
X154994714Y-65998572D01*
X154994714Y-65998572D02*
X154966142Y-65974762D01*
X154966142Y-65974762D02*
X154909000Y-65950953D01*
X154909000Y-65950953D02*
X154851857Y-65950953D01*
X154851857Y-65950953D02*
X154794714Y-65974762D01*
X154794714Y-65974762D02*
X154766142Y-65998572D01*
X154766142Y-65998572D02*
X154737571Y-66046191D01*
X154737571Y-66046191D02*
X154737571Y-66165238D01*
X154737571Y-66165238D02*
X154766142Y-66236667D01*
X155023285Y-66617619D02*
X155051857Y-66689047D01*
X155051857Y-66689047D02*
X155080428Y-66712857D01*
X155080428Y-66712857D02*
X155137571Y-66736666D01*
X155137571Y-66736666D02*
X155223285Y-66736666D01*
X155223285Y-66736666D02*
X155280428Y-66712857D01*
X155280428Y-66712857D02*
X155309000Y-66689047D01*
X155309000Y-66689047D02*
X155337571Y-66641428D01*
X155337571Y-66641428D02*
X155337571Y-66450952D01*
X155337571Y-66450952D02*
X154737571Y-66450952D01*
X154737571Y-66450952D02*
X154737571Y-66617619D01*
X154737571Y-66617619D02*
X154766142Y-66665238D01*
X154766142Y-66665238D02*
X154794714Y-66689047D01*
X154794714Y-66689047D02*
X154851857Y-66712857D01*
X154851857Y-66712857D02*
X154909000Y-66712857D01*
X154909000Y-66712857D02*
X154966142Y-66689047D01*
X154966142Y-66689047D02*
X154994714Y-66665238D01*
X154994714Y-66665238D02*
X155023285Y-66617619D01*
X155023285Y-66617619D02*
X155023285Y-66450952D01*
X155337571Y-67212857D02*
X155337571Y-66927143D01*
X155337571Y-67070000D02*
X154737571Y-67070000D01*
X154737571Y-67070000D02*
X154823285Y-67022381D01*
X154823285Y-67022381D02*
X154880428Y-66974762D01*
X154880428Y-66974762D02*
X154909000Y-66927143D01*
X155337571Y-67689047D02*
X155337571Y-67403333D01*
X155337571Y-67546190D02*
X154737571Y-67546190D01*
X154737571Y-67546190D02*
X154823285Y-67498571D01*
X154823285Y-67498571D02*
X154880428Y-67450952D01*
X154880428Y-67450952D02*
X154909000Y-67403333D01*
%TO.C,R10*%
X156457571Y-58028571D02*
X156171857Y-57861905D01*
X156457571Y-57742857D02*
X155857571Y-57742857D01*
X155857571Y-57742857D02*
X155857571Y-57933333D01*
X155857571Y-57933333D02*
X155886142Y-57980952D01*
X155886142Y-57980952D02*
X155914714Y-58004762D01*
X155914714Y-58004762D02*
X155971857Y-58028571D01*
X155971857Y-58028571D02*
X156057571Y-58028571D01*
X156057571Y-58028571D02*
X156114714Y-58004762D01*
X156114714Y-58004762D02*
X156143285Y-57980952D01*
X156143285Y-57980952D02*
X156171857Y-57933333D01*
X156171857Y-57933333D02*
X156171857Y-57742857D01*
X156457571Y-58504762D02*
X156457571Y-58219048D01*
X156457571Y-58361905D02*
X155857571Y-58361905D01*
X155857571Y-58361905D02*
X155943285Y-58314286D01*
X155943285Y-58314286D02*
X156000428Y-58266667D01*
X156000428Y-58266667D02*
X156029000Y-58219048D01*
X155857571Y-58814285D02*
X155857571Y-58861904D01*
X155857571Y-58861904D02*
X155886142Y-58909523D01*
X155886142Y-58909523D02*
X155914714Y-58933333D01*
X155914714Y-58933333D02*
X155971857Y-58957142D01*
X155971857Y-58957142D02*
X156086142Y-58980952D01*
X156086142Y-58980952D02*
X156229000Y-58980952D01*
X156229000Y-58980952D02*
X156343285Y-58957142D01*
X156343285Y-58957142D02*
X156400428Y-58933333D01*
X156400428Y-58933333D02*
X156429000Y-58909523D01*
X156429000Y-58909523D02*
X156457571Y-58861904D01*
X156457571Y-58861904D02*
X156457571Y-58814285D01*
X156457571Y-58814285D02*
X156429000Y-58766666D01*
X156429000Y-58766666D02*
X156400428Y-58742857D01*
X156400428Y-58742857D02*
X156343285Y-58719047D01*
X156343285Y-58719047D02*
X156229000Y-58695238D01*
X156229000Y-58695238D02*
X156086142Y-58695238D01*
X156086142Y-58695238D02*
X155971857Y-58719047D01*
X155971857Y-58719047D02*
X155914714Y-58742857D01*
X155914714Y-58742857D02*
X155886142Y-58766666D01*
X155886142Y-58766666D02*
X155857571Y-58814285D01*
%TO.C,SB8*%
X167799000Y-62919048D02*
X167827571Y-62990476D01*
X167827571Y-62990476D02*
X167827571Y-63109524D01*
X167827571Y-63109524D02*
X167799000Y-63157143D01*
X167799000Y-63157143D02*
X167770428Y-63180952D01*
X167770428Y-63180952D02*
X167713285Y-63204762D01*
X167713285Y-63204762D02*
X167656142Y-63204762D01*
X167656142Y-63204762D02*
X167599000Y-63180952D01*
X167599000Y-63180952D02*
X167570428Y-63157143D01*
X167570428Y-63157143D02*
X167541857Y-63109524D01*
X167541857Y-63109524D02*
X167513285Y-63014286D01*
X167513285Y-63014286D02*
X167484714Y-62966667D01*
X167484714Y-62966667D02*
X167456142Y-62942857D01*
X167456142Y-62942857D02*
X167399000Y-62919048D01*
X167399000Y-62919048D02*
X167341857Y-62919048D01*
X167341857Y-62919048D02*
X167284714Y-62942857D01*
X167284714Y-62942857D02*
X167256142Y-62966667D01*
X167256142Y-62966667D02*
X167227571Y-63014286D01*
X167227571Y-63014286D02*
X167227571Y-63133333D01*
X167227571Y-63133333D02*
X167256142Y-63204762D01*
X167513285Y-63585714D02*
X167541857Y-63657142D01*
X167541857Y-63657142D02*
X167570428Y-63680952D01*
X167570428Y-63680952D02*
X167627571Y-63704761D01*
X167627571Y-63704761D02*
X167713285Y-63704761D01*
X167713285Y-63704761D02*
X167770428Y-63680952D01*
X167770428Y-63680952D02*
X167799000Y-63657142D01*
X167799000Y-63657142D02*
X167827571Y-63609523D01*
X167827571Y-63609523D02*
X167827571Y-63419047D01*
X167827571Y-63419047D02*
X167227571Y-63419047D01*
X167227571Y-63419047D02*
X167227571Y-63585714D01*
X167227571Y-63585714D02*
X167256142Y-63633333D01*
X167256142Y-63633333D02*
X167284714Y-63657142D01*
X167284714Y-63657142D02*
X167341857Y-63680952D01*
X167341857Y-63680952D02*
X167399000Y-63680952D01*
X167399000Y-63680952D02*
X167456142Y-63657142D01*
X167456142Y-63657142D02*
X167484714Y-63633333D01*
X167484714Y-63633333D02*
X167513285Y-63585714D01*
X167513285Y-63585714D02*
X167513285Y-63419047D01*
X167484714Y-63990476D02*
X167456142Y-63942857D01*
X167456142Y-63942857D02*
X167427571Y-63919047D01*
X167427571Y-63919047D02*
X167370428Y-63895238D01*
X167370428Y-63895238D02*
X167341857Y-63895238D01*
X167341857Y-63895238D02*
X167284714Y-63919047D01*
X167284714Y-63919047D02*
X167256142Y-63942857D01*
X167256142Y-63942857D02*
X167227571Y-63990476D01*
X167227571Y-63990476D02*
X167227571Y-64085714D01*
X167227571Y-64085714D02*
X167256142Y-64133333D01*
X167256142Y-64133333D02*
X167284714Y-64157142D01*
X167284714Y-64157142D02*
X167341857Y-64180952D01*
X167341857Y-64180952D02*
X167370428Y-64180952D01*
X167370428Y-64180952D02*
X167427571Y-64157142D01*
X167427571Y-64157142D02*
X167456142Y-64133333D01*
X167456142Y-64133333D02*
X167484714Y-64085714D01*
X167484714Y-64085714D02*
X167484714Y-63990476D01*
X167484714Y-63990476D02*
X167513285Y-63942857D01*
X167513285Y-63942857D02*
X167541857Y-63919047D01*
X167541857Y-63919047D02*
X167599000Y-63895238D01*
X167599000Y-63895238D02*
X167713285Y-63895238D01*
X167713285Y-63895238D02*
X167770428Y-63919047D01*
X167770428Y-63919047D02*
X167799000Y-63942857D01*
X167799000Y-63942857D02*
X167827571Y-63990476D01*
X167827571Y-63990476D02*
X167827571Y-64085714D01*
X167827571Y-64085714D02*
X167799000Y-64133333D01*
X167799000Y-64133333D02*
X167770428Y-64157142D01*
X167770428Y-64157142D02*
X167713285Y-64180952D01*
X167713285Y-64180952D02*
X167599000Y-64180952D01*
X167599000Y-64180952D02*
X167541857Y-64157142D01*
X167541857Y-64157142D02*
X167513285Y-64133333D01*
X167513285Y-64133333D02*
X167484714Y-64085714D01*
%TO.C,SB10*%
X132799000Y-61930953D02*
X132827571Y-62002381D01*
X132827571Y-62002381D02*
X132827571Y-62121429D01*
X132827571Y-62121429D02*
X132799000Y-62169048D01*
X132799000Y-62169048D02*
X132770428Y-62192857D01*
X132770428Y-62192857D02*
X132713285Y-62216667D01*
X132713285Y-62216667D02*
X132656142Y-62216667D01*
X132656142Y-62216667D02*
X132599000Y-62192857D01*
X132599000Y-62192857D02*
X132570428Y-62169048D01*
X132570428Y-62169048D02*
X132541857Y-62121429D01*
X132541857Y-62121429D02*
X132513285Y-62026191D01*
X132513285Y-62026191D02*
X132484714Y-61978572D01*
X132484714Y-61978572D02*
X132456142Y-61954762D01*
X132456142Y-61954762D02*
X132399000Y-61930953D01*
X132399000Y-61930953D02*
X132341857Y-61930953D01*
X132341857Y-61930953D02*
X132284714Y-61954762D01*
X132284714Y-61954762D02*
X132256142Y-61978572D01*
X132256142Y-61978572D02*
X132227571Y-62026191D01*
X132227571Y-62026191D02*
X132227571Y-62145238D01*
X132227571Y-62145238D02*
X132256142Y-62216667D01*
X132513285Y-62597619D02*
X132541857Y-62669047D01*
X132541857Y-62669047D02*
X132570428Y-62692857D01*
X132570428Y-62692857D02*
X132627571Y-62716666D01*
X132627571Y-62716666D02*
X132713285Y-62716666D01*
X132713285Y-62716666D02*
X132770428Y-62692857D01*
X132770428Y-62692857D02*
X132799000Y-62669047D01*
X132799000Y-62669047D02*
X132827571Y-62621428D01*
X132827571Y-62621428D02*
X132827571Y-62430952D01*
X132827571Y-62430952D02*
X132227571Y-62430952D01*
X132227571Y-62430952D02*
X132227571Y-62597619D01*
X132227571Y-62597619D02*
X132256142Y-62645238D01*
X132256142Y-62645238D02*
X132284714Y-62669047D01*
X132284714Y-62669047D02*
X132341857Y-62692857D01*
X132341857Y-62692857D02*
X132399000Y-62692857D01*
X132399000Y-62692857D02*
X132456142Y-62669047D01*
X132456142Y-62669047D02*
X132484714Y-62645238D01*
X132484714Y-62645238D02*
X132513285Y-62597619D01*
X132513285Y-62597619D02*
X132513285Y-62430952D01*
X132827571Y-63192857D02*
X132827571Y-62907143D01*
X132827571Y-63050000D02*
X132227571Y-63050000D01*
X132227571Y-63050000D02*
X132313285Y-63002381D01*
X132313285Y-63002381D02*
X132370428Y-62954762D01*
X132370428Y-62954762D02*
X132399000Y-62907143D01*
X132227571Y-63502380D02*
X132227571Y-63549999D01*
X132227571Y-63549999D02*
X132256142Y-63597618D01*
X132256142Y-63597618D02*
X132284714Y-63621428D01*
X132284714Y-63621428D02*
X132341857Y-63645237D01*
X132341857Y-63645237D02*
X132456142Y-63669047D01*
X132456142Y-63669047D02*
X132599000Y-63669047D01*
X132599000Y-63669047D02*
X132713285Y-63645237D01*
X132713285Y-63645237D02*
X132770428Y-63621428D01*
X132770428Y-63621428D02*
X132799000Y-63597618D01*
X132799000Y-63597618D02*
X132827571Y-63549999D01*
X132827571Y-63549999D02*
X132827571Y-63502380D01*
X132827571Y-63502380D02*
X132799000Y-63454761D01*
X132799000Y-63454761D02*
X132770428Y-63430952D01*
X132770428Y-63430952D02*
X132713285Y-63407142D01*
X132713285Y-63407142D02*
X132599000Y-63383333D01*
X132599000Y-63383333D02*
X132456142Y-63383333D01*
X132456142Y-63383333D02*
X132341857Y-63407142D01*
X132341857Y-63407142D02*
X132284714Y-63430952D01*
X132284714Y-63430952D02*
X132256142Y-63454761D01*
X132256142Y-63454761D02*
X132227571Y-63502380D01*
%TO.C,SB16*%
X160789000Y-64250953D02*
X160817571Y-64322381D01*
X160817571Y-64322381D02*
X160817571Y-64441429D01*
X160817571Y-64441429D02*
X160789000Y-64489048D01*
X160789000Y-64489048D02*
X160760428Y-64512857D01*
X160760428Y-64512857D02*
X160703285Y-64536667D01*
X160703285Y-64536667D02*
X160646142Y-64536667D01*
X160646142Y-64536667D02*
X160589000Y-64512857D01*
X160589000Y-64512857D02*
X160560428Y-64489048D01*
X160560428Y-64489048D02*
X160531857Y-64441429D01*
X160531857Y-64441429D02*
X160503285Y-64346191D01*
X160503285Y-64346191D02*
X160474714Y-64298572D01*
X160474714Y-64298572D02*
X160446142Y-64274762D01*
X160446142Y-64274762D02*
X160389000Y-64250953D01*
X160389000Y-64250953D02*
X160331857Y-64250953D01*
X160331857Y-64250953D02*
X160274714Y-64274762D01*
X160274714Y-64274762D02*
X160246142Y-64298572D01*
X160246142Y-64298572D02*
X160217571Y-64346191D01*
X160217571Y-64346191D02*
X160217571Y-64465238D01*
X160217571Y-64465238D02*
X160246142Y-64536667D01*
X160503285Y-64917619D02*
X160531857Y-64989047D01*
X160531857Y-64989047D02*
X160560428Y-65012857D01*
X160560428Y-65012857D02*
X160617571Y-65036666D01*
X160617571Y-65036666D02*
X160703285Y-65036666D01*
X160703285Y-65036666D02*
X160760428Y-65012857D01*
X160760428Y-65012857D02*
X160789000Y-64989047D01*
X160789000Y-64989047D02*
X160817571Y-64941428D01*
X160817571Y-64941428D02*
X160817571Y-64750952D01*
X160817571Y-64750952D02*
X160217571Y-64750952D01*
X160217571Y-64750952D02*
X160217571Y-64917619D01*
X160217571Y-64917619D02*
X160246142Y-64965238D01*
X160246142Y-64965238D02*
X160274714Y-64989047D01*
X160274714Y-64989047D02*
X160331857Y-65012857D01*
X160331857Y-65012857D02*
X160389000Y-65012857D01*
X160389000Y-65012857D02*
X160446142Y-64989047D01*
X160446142Y-64989047D02*
X160474714Y-64965238D01*
X160474714Y-64965238D02*
X160503285Y-64917619D01*
X160503285Y-64917619D02*
X160503285Y-64750952D01*
X160817571Y-65512857D02*
X160817571Y-65227143D01*
X160817571Y-65370000D02*
X160217571Y-65370000D01*
X160217571Y-65370000D02*
X160303285Y-65322381D01*
X160303285Y-65322381D02*
X160360428Y-65274762D01*
X160360428Y-65274762D02*
X160389000Y-65227143D01*
X160217571Y-65941428D02*
X160217571Y-65846190D01*
X160217571Y-65846190D02*
X160246142Y-65798571D01*
X160246142Y-65798571D02*
X160274714Y-65774761D01*
X160274714Y-65774761D02*
X160360428Y-65727142D01*
X160360428Y-65727142D02*
X160474714Y-65703333D01*
X160474714Y-65703333D02*
X160703285Y-65703333D01*
X160703285Y-65703333D02*
X160760428Y-65727142D01*
X160760428Y-65727142D02*
X160789000Y-65750952D01*
X160789000Y-65750952D02*
X160817571Y-65798571D01*
X160817571Y-65798571D02*
X160817571Y-65893809D01*
X160817571Y-65893809D02*
X160789000Y-65941428D01*
X160789000Y-65941428D02*
X160760428Y-65965237D01*
X160760428Y-65965237D02*
X160703285Y-65989047D01*
X160703285Y-65989047D02*
X160560428Y-65989047D01*
X160560428Y-65989047D02*
X160503285Y-65965237D01*
X160503285Y-65965237D02*
X160474714Y-65941428D01*
X160474714Y-65941428D02*
X160446142Y-65893809D01*
X160446142Y-65893809D02*
X160446142Y-65798571D01*
X160446142Y-65798571D02*
X160474714Y-65750952D01*
X160474714Y-65750952D02*
X160503285Y-65727142D01*
X160503285Y-65727142D02*
X160560428Y-65703333D01*
%TO.C,SB17*%
X135759000Y-79400953D02*
X135787571Y-79472381D01*
X135787571Y-79472381D02*
X135787571Y-79591429D01*
X135787571Y-79591429D02*
X135759000Y-79639048D01*
X135759000Y-79639048D02*
X135730428Y-79662857D01*
X135730428Y-79662857D02*
X135673285Y-79686667D01*
X135673285Y-79686667D02*
X135616142Y-79686667D01*
X135616142Y-79686667D02*
X135559000Y-79662857D01*
X135559000Y-79662857D02*
X135530428Y-79639048D01*
X135530428Y-79639048D02*
X135501857Y-79591429D01*
X135501857Y-79591429D02*
X135473285Y-79496191D01*
X135473285Y-79496191D02*
X135444714Y-79448572D01*
X135444714Y-79448572D02*
X135416142Y-79424762D01*
X135416142Y-79424762D02*
X135359000Y-79400953D01*
X135359000Y-79400953D02*
X135301857Y-79400953D01*
X135301857Y-79400953D02*
X135244714Y-79424762D01*
X135244714Y-79424762D02*
X135216142Y-79448572D01*
X135216142Y-79448572D02*
X135187571Y-79496191D01*
X135187571Y-79496191D02*
X135187571Y-79615238D01*
X135187571Y-79615238D02*
X135216142Y-79686667D01*
X135473285Y-80067619D02*
X135501857Y-80139047D01*
X135501857Y-80139047D02*
X135530428Y-80162857D01*
X135530428Y-80162857D02*
X135587571Y-80186666D01*
X135587571Y-80186666D02*
X135673285Y-80186666D01*
X135673285Y-80186666D02*
X135730428Y-80162857D01*
X135730428Y-80162857D02*
X135759000Y-80139047D01*
X135759000Y-80139047D02*
X135787571Y-80091428D01*
X135787571Y-80091428D02*
X135787571Y-79900952D01*
X135787571Y-79900952D02*
X135187571Y-79900952D01*
X135187571Y-79900952D02*
X135187571Y-80067619D01*
X135187571Y-80067619D02*
X135216142Y-80115238D01*
X135216142Y-80115238D02*
X135244714Y-80139047D01*
X135244714Y-80139047D02*
X135301857Y-80162857D01*
X135301857Y-80162857D02*
X135359000Y-80162857D01*
X135359000Y-80162857D02*
X135416142Y-80139047D01*
X135416142Y-80139047D02*
X135444714Y-80115238D01*
X135444714Y-80115238D02*
X135473285Y-80067619D01*
X135473285Y-80067619D02*
X135473285Y-79900952D01*
X135787571Y-80662857D02*
X135787571Y-80377143D01*
X135787571Y-80520000D02*
X135187571Y-80520000D01*
X135187571Y-80520000D02*
X135273285Y-80472381D01*
X135273285Y-80472381D02*
X135330428Y-80424762D01*
X135330428Y-80424762D02*
X135359000Y-80377143D01*
X135187571Y-80829523D02*
X135187571Y-81162856D01*
X135187571Y-81162856D02*
X135787571Y-80948571D01*
%TO.C,SB18*%
X162769046Y-87269000D02*
X162697618Y-87297571D01*
X162697618Y-87297571D02*
X162578570Y-87297571D01*
X162578570Y-87297571D02*
X162530951Y-87269000D01*
X162530951Y-87269000D02*
X162507142Y-87240428D01*
X162507142Y-87240428D02*
X162483332Y-87183285D01*
X162483332Y-87183285D02*
X162483332Y-87126142D01*
X162483332Y-87126142D02*
X162507142Y-87069000D01*
X162507142Y-87069000D02*
X162530951Y-87040428D01*
X162530951Y-87040428D02*
X162578570Y-87011857D01*
X162578570Y-87011857D02*
X162673808Y-86983285D01*
X162673808Y-86983285D02*
X162721427Y-86954714D01*
X162721427Y-86954714D02*
X162745237Y-86926142D01*
X162745237Y-86926142D02*
X162769046Y-86869000D01*
X162769046Y-86869000D02*
X162769046Y-86811857D01*
X162769046Y-86811857D02*
X162745237Y-86754714D01*
X162745237Y-86754714D02*
X162721427Y-86726142D01*
X162721427Y-86726142D02*
X162673808Y-86697571D01*
X162673808Y-86697571D02*
X162554761Y-86697571D01*
X162554761Y-86697571D02*
X162483332Y-86726142D01*
X162102380Y-86983285D02*
X162030952Y-87011857D01*
X162030952Y-87011857D02*
X162007142Y-87040428D01*
X162007142Y-87040428D02*
X161983333Y-87097571D01*
X161983333Y-87097571D02*
X161983333Y-87183285D01*
X161983333Y-87183285D02*
X162007142Y-87240428D01*
X162007142Y-87240428D02*
X162030952Y-87269000D01*
X162030952Y-87269000D02*
X162078571Y-87297571D01*
X162078571Y-87297571D02*
X162269047Y-87297571D01*
X162269047Y-87297571D02*
X162269047Y-86697571D01*
X162269047Y-86697571D02*
X162102380Y-86697571D01*
X162102380Y-86697571D02*
X162054761Y-86726142D01*
X162054761Y-86726142D02*
X162030952Y-86754714D01*
X162030952Y-86754714D02*
X162007142Y-86811857D01*
X162007142Y-86811857D02*
X162007142Y-86869000D01*
X162007142Y-86869000D02*
X162030952Y-86926142D01*
X162030952Y-86926142D02*
X162054761Y-86954714D01*
X162054761Y-86954714D02*
X162102380Y-86983285D01*
X162102380Y-86983285D02*
X162269047Y-86983285D01*
X161507142Y-87297571D02*
X161792856Y-87297571D01*
X161649999Y-87297571D02*
X161649999Y-86697571D01*
X161649999Y-86697571D02*
X161697618Y-86783285D01*
X161697618Y-86783285D02*
X161745237Y-86840428D01*
X161745237Y-86840428D02*
X161792856Y-86869000D01*
X161221428Y-86954714D02*
X161269047Y-86926142D01*
X161269047Y-86926142D02*
X161292857Y-86897571D01*
X161292857Y-86897571D02*
X161316666Y-86840428D01*
X161316666Y-86840428D02*
X161316666Y-86811857D01*
X161316666Y-86811857D02*
X161292857Y-86754714D01*
X161292857Y-86754714D02*
X161269047Y-86726142D01*
X161269047Y-86726142D02*
X161221428Y-86697571D01*
X161221428Y-86697571D02*
X161126190Y-86697571D01*
X161126190Y-86697571D02*
X161078571Y-86726142D01*
X161078571Y-86726142D02*
X161054762Y-86754714D01*
X161054762Y-86754714D02*
X161030952Y-86811857D01*
X161030952Y-86811857D02*
X161030952Y-86840428D01*
X161030952Y-86840428D02*
X161054762Y-86897571D01*
X161054762Y-86897571D02*
X161078571Y-86926142D01*
X161078571Y-86926142D02*
X161126190Y-86954714D01*
X161126190Y-86954714D02*
X161221428Y-86954714D01*
X161221428Y-86954714D02*
X161269047Y-86983285D01*
X161269047Y-86983285D02*
X161292857Y-87011857D01*
X161292857Y-87011857D02*
X161316666Y-87069000D01*
X161316666Y-87069000D02*
X161316666Y-87183285D01*
X161316666Y-87183285D02*
X161292857Y-87240428D01*
X161292857Y-87240428D02*
X161269047Y-87269000D01*
X161269047Y-87269000D02*
X161221428Y-87297571D01*
X161221428Y-87297571D02*
X161126190Y-87297571D01*
X161126190Y-87297571D02*
X161078571Y-87269000D01*
X161078571Y-87269000D02*
X161054762Y-87240428D01*
X161054762Y-87240428D02*
X161030952Y-87183285D01*
X161030952Y-87183285D02*
X161030952Y-87069000D01*
X161030952Y-87069000D02*
X161054762Y-87011857D01*
X161054762Y-87011857D02*
X161078571Y-86983285D01*
X161078571Y-86983285D02*
X161126190Y-86954714D01*
%TO.C,SB14*%
X163294046Y-67189000D02*
X163222618Y-67217571D01*
X163222618Y-67217571D02*
X163103570Y-67217571D01*
X163103570Y-67217571D02*
X163055951Y-67189000D01*
X163055951Y-67189000D02*
X163032142Y-67160428D01*
X163032142Y-67160428D02*
X163008332Y-67103285D01*
X163008332Y-67103285D02*
X163008332Y-67046142D01*
X163008332Y-67046142D02*
X163032142Y-66989000D01*
X163032142Y-66989000D02*
X163055951Y-66960428D01*
X163055951Y-66960428D02*
X163103570Y-66931857D01*
X163103570Y-66931857D02*
X163198808Y-66903285D01*
X163198808Y-66903285D02*
X163246427Y-66874714D01*
X163246427Y-66874714D02*
X163270237Y-66846142D01*
X163270237Y-66846142D02*
X163294046Y-66789000D01*
X163294046Y-66789000D02*
X163294046Y-66731857D01*
X163294046Y-66731857D02*
X163270237Y-66674714D01*
X163270237Y-66674714D02*
X163246427Y-66646142D01*
X163246427Y-66646142D02*
X163198808Y-66617571D01*
X163198808Y-66617571D02*
X163079761Y-66617571D01*
X163079761Y-66617571D02*
X163008332Y-66646142D01*
X162627380Y-66903285D02*
X162555952Y-66931857D01*
X162555952Y-66931857D02*
X162532142Y-66960428D01*
X162532142Y-66960428D02*
X162508333Y-67017571D01*
X162508333Y-67017571D02*
X162508333Y-67103285D01*
X162508333Y-67103285D02*
X162532142Y-67160428D01*
X162532142Y-67160428D02*
X162555952Y-67189000D01*
X162555952Y-67189000D02*
X162603571Y-67217571D01*
X162603571Y-67217571D02*
X162794047Y-67217571D01*
X162794047Y-67217571D02*
X162794047Y-66617571D01*
X162794047Y-66617571D02*
X162627380Y-66617571D01*
X162627380Y-66617571D02*
X162579761Y-66646142D01*
X162579761Y-66646142D02*
X162555952Y-66674714D01*
X162555952Y-66674714D02*
X162532142Y-66731857D01*
X162532142Y-66731857D02*
X162532142Y-66789000D01*
X162532142Y-66789000D02*
X162555952Y-66846142D01*
X162555952Y-66846142D02*
X162579761Y-66874714D01*
X162579761Y-66874714D02*
X162627380Y-66903285D01*
X162627380Y-66903285D02*
X162794047Y-66903285D01*
X162032142Y-67217571D02*
X162317856Y-67217571D01*
X162174999Y-67217571D02*
X162174999Y-66617571D01*
X162174999Y-66617571D02*
X162222618Y-66703285D01*
X162222618Y-66703285D02*
X162270237Y-66760428D01*
X162270237Y-66760428D02*
X162317856Y-66789000D01*
X161603571Y-66817571D02*
X161603571Y-67217571D01*
X161722619Y-66589000D02*
X161841666Y-67017571D01*
X161841666Y-67017571D02*
X161532143Y-67017571D01*
%TO.C,R14*%
X160771428Y-57077571D02*
X160938094Y-56791857D01*
X161057142Y-57077571D02*
X161057142Y-56477571D01*
X161057142Y-56477571D02*
X160866666Y-56477571D01*
X160866666Y-56477571D02*
X160819047Y-56506142D01*
X160819047Y-56506142D02*
X160795237Y-56534714D01*
X160795237Y-56534714D02*
X160771428Y-56591857D01*
X160771428Y-56591857D02*
X160771428Y-56677571D01*
X160771428Y-56677571D02*
X160795237Y-56734714D01*
X160795237Y-56734714D02*
X160819047Y-56763285D01*
X160819047Y-56763285D02*
X160866666Y-56791857D01*
X160866666Y-56791857D02*
X161057142Y-56791857D01*
X160295237Y-57077571D02*
X160580951Y-57077571D01*
X160438094Y-57077571D02*
X160438094Y-56477571D01*
X160438094Y-56477571D02*
X160485713Y-56563285D01*
X160485713Y-56563285D02*
X160533332Y-56620428D01*
X160533332Y-56620428D02*
X160580951Y-56649000D01*
X159866666Y-56677571D02*
X159866666Y-57077571D01*
X159985714Y-56449000D02*
X160104761Y-56877571D01*
X160104761Y-56877571D02*
X159795238Y-56877571D01*
%TO.C,SB5*%
X171249000Y-58069048D02*
X171277571Y-58140476D01*
X171277571Y-58140476D02*
X171277571Y-58259524D01*
X171277571Y-58259524D02*
X171249000Y-58307143D01*
X171249000Y-58307143D02*
X171220428Y-58330952D01*
X171220428Y-58330952D02*
X171163285Y-58354762D01*
X171163285Y-58354762D02*
X171106142Y-58354762D01*
X171106142Y-58354762D02*
X171049000Y-58330952D01*
X171049000Y-58330952D02*
X171020428Y-58307143D01*
X171020428Y-58307143D02*
X170991857Y-58259524D01*
X170991857Y-58259524D02*
X170963285Y-58164286D01*
X170963285Y-58164286D02*
X170934714Y-58116667D01*
X170934714Y-58116667D02*
X170906142Y-58092857D01*
X170906142Y-58092857D02*
X170849000Y-58069048D01*
X170849000Y-58069048D02*
X170791857Y-58069048D01*
X170791857Y-58069048D02*
X170734714Y-58092857D01*
X170734714Y-58092857D02*
X170706142Y-58116667D01*
X170706142Y-58116667D02*
X170677571Y-58164286D01*
X170677571Y-58164286D02*
X170677571Y-58283333D01*
X170677571Y-58283333D02*
X170706142Y-58354762D01*
X170963285Y-58735714D02*
X170991857Y-58807142D01*
X170991857Y-58807142D02*
X171020428Y-58830952D01*
X171020428Y-58830952D02*
X171077571Y-58854761D01*
X171077571Y-58854761D02*
X171163285Y-58854761D01*
X171163285Y-58854761D02*
X171220428Y-58830952D01*
X171220428Y-58830952D02*
X171249000Y-58807142D01*
X171249000Y-58807142D02*
X171277571Y-58759523D01*
X171277571Y-58759523D02*
X171277571Y-58569047D01*
X171277571Y-58569047D02*
X170677571Y-58569047D01*
X170677571Y-58569047D02*
X170677571Y-58735714D01*
X170677571Y-58735714D02*
X170706142Y-58783333D01*
X170706142Y-58783333D02*
X170734714Y-58807142D01*
X170734714Y-58807142D02*
X170791857Y-58830952D01*
X170791857Y-58830952D02*
X170849000Y-58830952D01*
X170849000Y-58830952D02*
X170906142Y-58807142D01*
X170906142Y-58807142D02*
X170934714Y-58783333D01*
X170934714Y-58783333D02*
X170963285Y-58735714D01*
X170963285Y-58735714D02*
X170963285Y-58569047D01*
X170677571Y-59307142D02*
X170677571Y-59069047D01*
X170677571Y-59069047D02*
X170963285Y-59045238D01*
X170963285Y-59045238D02*
X170934714Y-59069047D01*
X170934714Y-59069047D02*
X170906142Y-59116666D01*
X170906142Y-59116666D02*
X170906142Y-59235714D01*
X170906142Y-59235714D02*
X170934714Y-59283333D01*
X170934714Y-59283333D02*
X170963285Y-59307142D01*
X170963285Y-59307142D02*
X171020428Y-59330952D01*
X171020428Y-59330952D02*
X171163285Y-59330952D01*
X171163285Y-59330952D02*
X171220428Y-59307142D01*
X171220428Y-59307142D02*
X171249000Y-59283333D01*
X171249000Y-59283333D02*
X171277571Y-59235714D01*
X171277571Y-59235714D02*
X171277571Y-59116666D01*
X171277571Y-59116666D02*
X171249000Y-59069047D01*
X171249000Y-59069047D02*
X171220428Y-59045238D01*
%TO.C,SB6*%
X167619000Y-60319048D02*
X167647571Y-60390476D01*
X167647571Y-60390476D02*
X167647571Y-60509524D01*
X167647571Y-60509524D02*
X167619000Y-60557143D01*
X167619000Y-60557143D02*
X167590428Y-60580952D01*
X167590428Y-60580952D02*
X167533285Y-60604762D01*
X167533285Y-60604762D02*
X167476142Y-60604762D01*
X167476142Y-60604762D02*
X167419000Y-60580952D01*
X167419000Y-60580952D02*
X167390428Y-60557143D01*
X167390428Y-60557143D02*
X167361857Y-60509524D01*
X167361857Y-60509524D02*
X167333285Y-60414286D01*
X167333285Y-60414286D02*
X167304714Y-60366667D01*
X167304714Y-60366667D02*
X167276142Y-60342857D01*
X167276142Y-60342857D02*
X167219000Y-60319048D01*
X167219000Y-60319048D02*
X167161857Y-60319048D01*
X167161857Y-60319048D02*
X167104714Y-60342857D01*
X167104714Y-60342857D02*
X167076142Y-60366667D01*
X167076142Y-60366667D02*
X167047571Y-60414286D01*
X167047571Y-60414286D02*
X167047571Y-60533333D01*
X167047571Y-60533333D02*
X167076142Y-60604762D01*
X167333285Y-60985714D02*
X167361857Y-61057142D01*
X167361857Y-61057142D02*
X167390428Y-61080952D01*
X167390428Y-61080952D02*
X167447571Y-61104761D01*
X167447571Y-61104761D02*
X167533285Y-61104761D01*
X167533285Y-61104761D02*
X167590428Y-61080952D01*
X167590428Y-61080952D02*
X167619000Y-61057142D01*
X167619000Y-61057142D02*
X167647571Y-61009523D01*
X167647571Y-61009523D02*
X167647571Y-60819047D01*
X167647571Y-60819047D02*
X167047571Y-60819047D01*
X167047571Y-60819047D02*
X167047571Y-60985714D01*
X167047571Y-60985714D02*
X167076142Y-61033333D01*
X167076142Y-61033333D02*
X167104714Y-61057142D01*
X167104714Y-61057142D02*
X167161857Y-61080952D01*
X167161857Y-61080952D02*
X167219000Y-61080952D01*
X167219000Y-61080952D02*
X167276142Y-61057142D01*
X167276142Y-61057142D02*
X167304714Y-61033333D01*
X167304714Y-61033333D02*
X167333285Y-60985714D01*
X167333285Y-60985714D02*
X167333285Y-60819047D01*
X167047571Y-61533333D02*
X167047571Y-61438095D01*
X167047571Y-61438095D02*
X167076142Y-61390476D01*
X167076142Y-61390476D02*
X167104714Y-61366666D01*
X167104714Y-61366666D02*
X167190428Y-61319047D01*
X167190428Y-61319047D02*
X167304714Y-61295238D01*
X167304714Y-61295238D02*
X167533285Y-61295238D01*
X167533285Y-61295238D02*
X167590428Y-61319047D01*
X167590428Y-61319047D02*
X167619000Y-61342857D01*
X167619000Y-61342857D02*
X167647571Y-61390476D01*
X167647571Y-61390476D02*
X167647571Y-61485714D01*
X167647571Y-61485714D02*
X167619000Y-61533333D01*
X167619000Y-61533333D02*
X167590428Y-61557142D01*
X167590428Y-61557142D02*
X167533285Y-61580952D01*
X167533285Y-61580952D02*
X167390428Y-61580952D01*
X167390428Y-61580952D02*
X167333285Y-61557142D01*
X167333285Y-61557142D02*
X167304714Y-61533333D01*
X167304714Y-61533333D02*
X167276142Y-61485714D01*
X167276142Y-61485714D02*
X167276142Y-61390476D01*
X167276142Y-61390476D02*
X167304714Y-61342857D01*
X167304714Y-61342857D02*
X167333285Y-61319047D01*
X167333285Y-61319047D02*
X167390428Y-61295238D01*
%TO.C,SB19*%
X130744000Y-89875953D02*
X130772571Y-89947381D01*
X130772571Y-89947381D02*
X130772571Y-90066429D01*
X130772571Y-90066429D02*
X130744000Y-90114048D01*
X130744000Y-90114048D02*
X130715428Y-90137857D01*
X130715428Y-90137857D02*
X130658285Y-90161667D01*
X130658285Y-90161667D02*
X130601142Y-90161667D01*
X130601142Y-90161667D02*
X130544000Y-90137857D01*
X130544000Y-90137857D02*
X130515428Y-90114048D01*
X130515428Y-90114048D02*
X130486857Y-90066429D01*
X130486857Y-90066429D02*
X130458285Y-89971191D01*
X130458285Y-89971191D02*
X130429714Y-89923572D01*
X130429714Y-89923572D02*
X130401142Y-89899762D01*
X130401142Y-89899762D02*
X130344000Y-89875953D01*
X130344000Y-89875953D02*
X130286857Y-89875953D01*
X130286857Y-89875953D02*
X130229714Y-89899762D01*
X130229714Y-89899762D02*
X130201142Y-89923572D01*
X130201142Y-89923572D02*
X130172571Y-89971191D01*
X130172571Y-89971191D02*
X130172571Y-90090238D01*
X130172571Y-90090238D02*
X130201142Y-90161667D01*
X130458285Y-90542619D02*
X130486857Y-90614047D01*
X130486857Y-90614047D02*
X130515428Y-90637857D01*
X130515428Y-90637857D02*
X130572571Y-90661666D01*
X130572571Y-90661666D02*
X130658285Y-90661666D01*
X130658285Y-90661666D02*
X130715428Y-90637857D01*
X130715428Y-90637857D02*
X130744000Y-90614047D01*
X130744000Y-90614047D02*
X130772571Y-90566428D01*
X130772571Y-90566428D02*
X130772571Y-90375952D01*
X130772571Y-90375952D02*
X130172571Y-90375952D01*
X130172571Y-90375952D02*
X130172571Y-90542619D01*
X130172571Y-90542619D02*
X130201142Y-90590238D01*
X130201142Y-90590238D02*
X130229714Y-90614047D01*
X130229714Y-90614047D02*
X130286857Y-90637857D01*
X130286857Y-90637857D02*
X130344000Y-90637857D01*
X130344000Y-90637857D02*
X130401142Y-90614047D01*
X130401142Y-90614047D02*
X130429714Y-90590238D01*
X130429714Y-90590238D02*
X130458285Y-90542619D01*
X130458285Y-90542619D02*
X130458285Y-90375952D01*
X130772571Y-91137857D02*
X130772571Y-90852143D01*
X130772571Y-90995000D02*
X130172571Y-90995000D01*
X130172571Y-90995000D02*
X130258285Y-90947381D01*
X130258285Y-90947381D02*
X130315428Y-90899762D01*
X130315428Y-90899762D02*
X130344000Y-90852143D01*
X130772571Y-91375952D02*
X130772571Y-91471190D01*
X130772571Y-91471190D02*
X130744000Y-91518809D01*
X130744000Y-91518809D02*
X130715428Y-91542618D01*
X130715428Y-91542618D02*
X130629714Y-91590237D01*
X130629714Y-91590237D02*
X130515428Y-91614047D01*
X130515428Y-91614047D02*
X130286857Y-91614047D01*
X130286857Y-91614047D02*
X130229714Y-91590237D01*
X130229714Y-91590237D02*
X130201142Y-91566428D01*
X130201142Y-91566428D02*
X130172571Y-91518809D01*
X130172571Y-91518809D02*
X130172571Y-91423571D01*
X130172571Y-91423571D02*
X130201142Y-91375952D01*
X130201142Y-91375952D02*
X130229714Y-91352142D01*
X130229714Y-91352142D02*
X130286857Y-91328333D01*
X130286857Y-91328333D02*
X130429714Y-91328333D01*
X130429714Y-91328333D02*
X130486857Y-91352142D01*
X130486857Y-91352142D02*
X130515428Y-91375952D01*
X130515428Y-91375952D02*
X130544000Y-91423571D01*
X130544000Y-91423571D02*
X130544000Y-91518809D01*
X130544000Y-91518809D02*
X130515428Y-91566428D01*
X130515428Y-91566428D02*
X130486857Y-91590237D01*
X130486857Y-91590237D02*
X130429714Y-91614047D01*
%TO.C,SB13*%
X163344046Y-73069000D02*
X163272618Y-73097571D01*
X163272618Y-73097571D02*
X163153570Y-73097571D01*
X163153570Y-73097571D02*
X163105951Y-73069000D01*
X163105951Y-73069000D02*
X163082142Y-73040428D01*
X163082142Y-73040428D02*
X163058332Y-72983285D01*
X163058332Y-72983285D02*
X163058332Y-72926142D01*
X163058332Y-72926142D02*
X163082142Y-72869000D01*
X163082142Y-72869000D02*
X163105951Y-72840428D01*
X163105951Y-72840428D02*
X163153570Y-72811857D01*
X163153570Y-72811857D02*
X163248808Y-72783285D01*
X163248808Y-72783285D02*
X163296427Y-72754714D01*
X163296427Y-72754714D02*
X163320237Y-72726142D01*
X163320237Y-72726142D02*
X163344046Y-72669000D01*
X163344046Y-72669000D02*
X163344046Y-72611857D01*
X163344046Y-72611857D02*
X163320237Y-72554714D01*
X163320237Y-72554714D02*
X163296427Y-72526142D01*
X163296427Y-72526142D02*
X163248808Y-72497571D01*
X163248808Y-72497571D02*
X163129761Y-72497571D01*
X163129761Y-72497571D02*
X163058332Y-72526142D01*
X162677380Y-72783285D02*
X162605952Y-72811857D01*
X162605952Y-72811857D02*
X162582142Y-72840428D01*
X162582142Y-72840428D02*
X162558333Y-72897571D01*
X162558333Y-72897571D02*
X162558333Y-72983285D01*
X162558333Y-72983285D02*
X162582142Y-73040428D01*
X162582142Y-73040428D02*
X162605952Y-73069000D01*
X162605952Y-73069000D02*
X162653571Y-73097571D01*
X162653571Y-73097571D02*
X162844047Y-73097571D01*
X162844047Y-73097571D02*
X162844047Y-72497571D01*
X162844047Y-72497571D02*
X162677380Y-72497571D01*
X162677380Y-72497571D02*
X162629761Y-72526142D01*
X162629761Y-72526142D02*
X162605952Y-72554714D01*
X162605952Y-72554714D02*
X162582142Y-72611857D01*
X162582142Y-72611857D02*
X162582142Y-72669000D01*
X162582142Y-72669000D02*
X162605952Y-72726142D01*
X162605952Y-72726142D02*
X162629761Y-72754714D01*
X162629761Y-72754714D02*
X162677380Y-72783285D01*
X162677380Y-72783285D02*
X162844047Y-72783285D01*
X162082142Y-73097571D02*
X162367856Y-73097571D01*
X162224999Y-73097571D02*
X162224999Y-72497571D01*
X162224999Y-72497571D02*
X162272618Y-72583285D01*
X162272618Y-72583285D02*
X162320237Y-72640428D01*
X162320237Y-72640428D02*
X162367856Y-72669000D01*
X161915476Y-72497571D02*
X161605952Y-72497571D01*
X161605952Y-72497571D02*
X161772619Y-72726142D01*
X161772619Y-72726142D02*
X161701190Y-72726142D01*
X161701190Y-72726142D02*
X161653571Y-72754714D01*
X161653571Y-72754714D02*
X161629762Y-72783285D01*
X161629762Y-72783285D02*
X161605952Y-72840428D01*
X161605952Y-72840428D02*
X161605952Y-72983285D01*
X161605952Y-72983285D02*
X161629762Y-73040428D01*
X161629762Y-73040428D02*
X161653571Y-73069000D01*
X161653571Y-73069000D02*
X161701190Y-73097571D01*
X161701190Y-73097571D02*
X161844047Y-73097571D01*
X161844047Y-73097571D02*
X161891666Y-73069000D01*
X161891666Y-73069000D02*
X161915476Y-73040428D01*
%TO.C,SB1*%
X156960951Y-106509000D02*
X156889523Y-106537571D01*
X156889523Y-106537571D02*
X156770475Y-106537571D01*
X156770475Y-106537571D02*
X156722856Y-106509000D01*
X156722856Y-106509000D02*
X156699047Y-106480428D01*
X156699047Y-106480428D02*
X156675237Y-106423285D01*
X156675237Y-106423285D02*
X156675237Y-106366142D01*
X156675237Y-106366142D02*
X156699047Y-106309000D01*
X156699047Y-106309000D02*
X156722856Y-106280428D01*
X156722856Y-106280428D02*
X156770475Y-106251857D01*
X156770475Y-106251857D02*
X156865713Y-106223285D01*
X156865713Y-106223285D02*
X156913332Y-106194714D01*
X156913332Y-106194714D02*
X156937142Y-106166142D01*
X156937142Y-106166142D02*
X156960951Y-106109000D01*
X156960951Y-106109000D02*
X156960951Y-106051857D01*
X156960951Y-106051857D02*
X156937142Y-105994714D01*
X156937142Y-105994714D02*
X156913332Y-105966142D01*
X156913332Y-105966142D02*
X156865713Y-105937571D01*
X156865713Y-105937571D02*
X156746666Y-105937571D01*
X156746666Y-105937571D02*
X156675237Y-105966142D01*
X156294285Y-106223285D02*
X156222857Y-106251857D01*
X156222857Y-106251857D02*
X156199047Y-106280428D01*
X156199047Y-106280428D02*
X156175238Y-106337571D01*
X156175238Y-106337571D02*
X156175238Y-106423285D01*
X156175238Y-106423285D02*
X156199047Y-106480428D01*
X156199047Y-106480428D02*
X156222857Y-106509000D01*
X156222857Y-106509000D02*
X156270476Y-106537571D01*
X156270476Y-106537571D02*
X156460952Y-106537571D01*
X156460952Y-106537571D02*
X156460952Y-105937571D01*
X156460952Y-105937571D02*
X156294285Y-105937571D01*
X156294285Y-105937571D02*
X156246666Y-105966142D01*
X156246666Y-105966142D02*
X156222857Y-105994714D01*
X156222857Y-105994714D02*
X156199047Y-106051857D01*
X156199047Y-106051857D02*
X156199047Y-106109000D01*
X156199047Y-106109000D02*
X156222857Y-106166142D01*
X156222857Y-106166142D02*
X156246666Y-106194714D01*
X156246666Y-106194714D02*
X156294285Y-106223285D01*
X156294285Y-106223285D02*
X156460952Y-106223285D01*
X155699047Y-106537571D02*
X155984761Y-106537571D01*
X155841904Y-106537571D02*
X155841904Y-105937571D01*
X155841904Y-105937571D02*
X155889523Y-106023285D01*
X155889523Y-106023285D02*
X155937142Y-106080428D01*
X155937142Y-106080428D02*
X155984761Y-106109000D01*
%TO.C,SB4*%
X167629000Y-57794048D02*
X167657571Y-57865476D01*
X167657571Y-57865476D02*
X167657571Y-57984524D01*
X167657571Y-57984524D02*
X167629000Y-58032143D01*
X167629000Y-58032143D02*
X167600428Y-58055952D01*
X167600428Y-58055952D02*
X167543285Y-58079762D01*
X167543285Y-58079762D02*
X167486142Y-58079762D01*
X167486142Y-58079762D02*
X167429000Y-58055952D01*
X167429000Y-58055952D02*
X167400428Y-58032143D01*
X167400428Y-58032143D02*
X167371857Y-57984524D01*
X167371857Y-57984524D02*
X167343285Y-57889286D01*
X167343285Y-57889286D02*
X167314714Y-57841667D01*
X167314714Y-57841667D02*
X167286142Y-57817857D01*
X167286142Y-57817857D02*
X167229000Y-57794048D01*
X167229000Y-57794048D02*
X167171857Y-57794048D01*
X167171857Y-57794048D02*
X167114714Y-57817857D01*
X167114714Y-57817857D02*
X167086142Y-57841667D01*
X167086142Y-57841667D02*
X167057571Y-57889286D01*
X167057571Y-57889286D02*
X167057571Y-58008333D01*
X167057571Y-58008333D02*
X167086142Y-58079762D01*
X167343285Y-58460714D02*
X167371857Y-58532142D01*
X167371857Y-58532142D02*
X167400428Y-58555952D01*
X167400428Y-58555952D02*
X167457571Y-58579761D01*
X167457571Y-58579761D02*
X167543285Y-58579761D01*
X167543285Y-58579761D02*
X167600428Y-58555952D01*
X167600428Y-58555952D02*
X167629000Y-58532142D01*
X167629000Y-58532142D02*
X167657571Y-58484523D01*
X167657571Y-58484523D02*
X167657571Y-58294047D01*
X167657571Y-58294047D02*
X167057571Y-58294047D01*
X167057571Y-58294047D02*
X167057571Y-58460714D01*
X167057571Y-58460714D02*
X167086142Y-58508333D01*
X167086142Y-58508333D02*
X167114714Y-58532142D01*
X167114714Y-58532142D02*
X167171857Y-58555952D01*
X167171857Y-58555952D02*
X167229000Y-58555952D01*
X167229000Y-58555952D02*
X167286142Y-58532142D01*
X167286142Y-58532142D02*
X167314714Y-58508333D01*
X167314714Y-58508333D02*
X167343285Y-58460714D01*
X167343285Y-58460714D02*
X167343285Y-58294047D01*
X167257571Y-59008333D02*
X167657571Y-59008333D01*
X167029000Y-58889285D02*
X167457571Y-58770238D01*
X167457571Y-58770238D02*
X167457571Y-59079761D01*
%TO.C,SB3*%
X171299000Y-55544048D02*
X171327571Y-55615476D01*
X171327571Y-55615476D02*
X171327571Y-55734524D01*
X171327571Y-55734524D02*
X171299000Y-55782143D01*
X171299000Y-55782143D02*
X171270428Y-55805952D01*
X171270428Y-55805952D02*
X171213285Y-55829762D01*
X171213285Y-55829762D02*
X171156142Y-55829762D01*
X171156142Y-55829762D02*
X171099000Y-55805952D01*
X171099000Y-55805952D02*
X171070428Y-55782143D01*
X171070428Y-55782143D02*
X171041857Y-55734524D01*
X171041857Y-55734524D02*
X171013285Y-55639286D01*
X171013285Y-55639286D02*
X170984714Y-55591667D01*
X170984714Y-55591667D02*
X170956142Y-55567857D01*
X170956142Y-55567857D02*
X170899000Y-55544048D01*
X170899000Y-55544048D02*
X170841857Y-55544048D01*
X170841857Y-55544048D02*
X170784714Y-55567857D01*
X170784714Y-55567857D02*
X170756142Y-55591667D01*
X170756142Y-55591667D02*
X170727571Y-55639286D01*
X170727571Y-55639286D02*
X170727571Y-55758333D01*
X170727571Y-55758333D02*
X170756142Y-55829762D01*
X171013285Y-56210714D02*
X171041857Y-56282142D01*
X171041857Y-56282142D02*
X171070428Y-56305952D01*
X171070428Y-56305952D02*
X171127571Y-56329761D01*
X171127571Y-56329761D02*
X171213285Y-56329761D01*
X171213285Y-56329761D02*
X171270428Y-56305952D01*
X171270428Y-56305952D02*
X171299000Y-56282142D01*
X171299000Y-56282142D02*
X171327571Y-56234523D01*
X171327571Y-56234523D02*
X171327571Y-56044047D01*
X171327571Y-56044047D02*
X170727571Y-56044047D01*
X170727571Y-56044047D02*
X170727571Y-56210714D01*
X170727571Y-56210714D02*
X170756142Y-56258333D01*
X170756142Y-56258333D02*
X170784714Y-56282142D01*
X170784714Y-56282142D02*
X170841857Y-56305952D01*
X170841857Y-56305952D02*
X170899000Y-56305952D01*
X170899000Y-56305952D02*
X170956142Y-56282142D01*
X170956142Y-56282142D02*
X170984714Y-56258333D01*
X170984714Y-56258333D02*
X171013285Y-56210714D01*
X171013285Y-56210714D02*
X171013285Y-56044047D01*
X170727571Y-56496428D02*
X170727571Y-56805952D01*
X170727571Y-56805952D02*
X170956142Y-56639285D01*
X170956142Y-56639285D02*
X170956142Y-56710714D01*
X170956142Y-56710714D02*
X170984714Y-56758333D01*
X170984714Y-56758333D02*
X171013285Y-56782142D01*
X171013285Y-56782142D02*
X171070428Y-56805952D01*
X171070428Y-56805952D02*
X171213285Y-56805952D01*
X171213285Y-56805952D02*
X171270428Y-56782142D01*
X171270428Y-56782142D02*
X171299000Y-56758333D01*
X171299000Y-56758333D02*
X171327571Y-56710714D01*
X171327571Y-56710714D02*
X171327571Y-56567857D01*
X171327571Y-56567857D02*
X171299000Y-56520238D01*
X171299000Y-56520238D02*
X171270428Y-56496428D01*
%TO.C,SB2*%
X167619000Y-55329048D02*
X167647571Y-55400476D01*
X167647571Y-55400476D02*
X167647571Y-55519524D01*
X167647571Y-55519524D02*
X167619000Y-55567143D01*
X167619000Y-55567143D02*
X167590428Y-55590952D01*
X167590428Y-55590952D02*
X167533285Y-55614762D01*
X167533285Y-55614762D02*
X167476142Y-55614762D01*
X167476142Y-55614762D02*
X167419000Y-55590952D01*
X167419000Y-55590952D02*
X167390428Y-55567143D01*
X167390428Y-55567143D02*
X167361857Y-55519524D01*
X167361857Y-55519524D02*
X167333285Y-55424286D01*
X167333285Y-55424286D02*
X167304714Y-55376667D01*
X167304714Y-55376667D02*
X167276142Y-55352857D01*
X167276142Y-55352857D02*
X167219000Y-55329048D01*
X167219000Y-55329048D02*
X167161857Y-55329048D01*
X167161857Y-55329048D02*
X167104714Y-55352857D01*
X167104714Y-55352857D02*
X167076142Y-55376667D01*
X167076142Y-55376667D02*
X167047571Y-55424286D01*
X167047571Y-55424286D02*
X167047571Y-55543333D01*
X167047571Y-55543333D02*
X167076142Y-55614762D01*
X167333285Y-55995714D02*
X167361857Y-56067142D01*
X167361857Y-56067142D02*
X167390428Y-56090952D01*
X167390428Y-56090952D02*
X167447571Y-56114761D01*
X167447571Y-56114761D02*
X167533285Y-56114761D01*
X167533285Y-56114761D02*
X167590428Y-56090952D01*
X167590428Y-56090952D02*
X167619000Y-56067142D01*
X167619000Y-56067142D02*
X167647571Y-56019523D01*
X167647571Y-56019523D02*
X167647571Y-55829047D01*
X167647571Y-55829047D02*
X167047571Y-55829047D01*
X167047571Y-55829047D02*
X167047571Y-55995714D01*
X167047571Y-55995714D02*
X167076142Y-56043333D01*
X167076142Y-56043333D02*
X167104714Y-56067142D01*
X167104714Y-56067142D02*
X167161857Y-56090952D01*
X167161857Y-56090952D02*
X167219000Y-56090952D01*
X167219000Y-56090952D02*
X167276142Y-56067142D01*
X167276142Y-56067142D02*
X167304714Y-56043333D01*
X167304714Y-56043333D02*
X167333285Y-55995714D01*
X167333285Y-55995714D02*
X167333285Y-55829047D01*
X167104714Y-56305238D02*
X167076142Y-56329047D01*
X167076142Y-56329047D02*
X167047571Y-56376666D01*
X167047571Y-56376666D02*
X167047571Y-56495714D01*
X167047571Y-56495714D02*
X167076142Y-56543333D01*
X167076142Y-56543333D02*
X167104714Y-56567142D01*
X167104714Y-56567142D02*
X167161857Y-56590952D01*
X167161857Y-56590952D02*
X167219000Y-56590952D01*
X167219000Y-56590952D02*
X167304714Y-56567142D01*
X167304714Y-56567142D02*
X167647571Y-56281428D01*
X167647571Y-56281428D02*
X167647571Y-56590952D01*
%TO.C,SB12*%
X155299000Y-63300953D02*
X155327571Y-63372381D01*
X155327571Y-63372381D02*
X155327571Y-63491429D01*
X155327571Y-63491429D02*
X155299000Y-63539048D01*
X155299000Y-63539048D02*
X155270428Y-63562857D01*
X155270428Y-63562857D02*
X155213285Y-63586667D01*
X155213285Y-63586667D02*
X155156142Y-63586667D01*
X155156142Y-63586667D02*
X155099000Y-63562857D01*
X155099000Y-63562857D02*
X155070428Y-63539048D01*
X155070428Y-63539048D02*
X155041857Y-63491429D01*
X155041857Y-63491429D02*
X155013285Y-63396191D01*
X155013285Y-63396191D02*
X154984714Y-63348572D01*
X154984714Y-63348572D02*
X154956142Y-63324762D01*
X154956142Y-63324762D02*
X154899000Y-63300953D01*
X154899000Y-63300953D02*
X154841857Y-63300953D01*
X154841857Y-63300953D02*
X154784714Y-63324762D01*
X154784714Y-63324762D02*
X154756142Y-63348572D01*
X154756142Y-63348572D02*
X154727571Y-63396191D01*
X154727571Y-63396191D02*
X154727571Y-63515238D01*
X154727571Y-63515238D02*
X154756142Y-63586667D01*
X155013285Y-63967619D02*
X155041857Y-64039047D01*
X155041857Y-64039047D02*
X155070428Y-64062857D01*
X155070428Y-64062857D02*
X155127571Y-64086666D01*
X155127571Y-64086666D02*
X155213285Y-64086666D01*
X155213285Y-64086666D02*
X155270428Y-64062857D01*
X155270428Y-64062857D02*
X155299000Y-64039047D01*
X155299000Y-64039047D02*
X155327571Y-63991428D01*
X155327571Y-63991428D02*
X155327571Y-63800952D01*
X155327571Y-63800952D02*
X154727571Y-63800952D01*
X154727571Y-63800952D02*
X154727571Y-63967619D01*
X154727571Y-63967619D02*
X154756142Y-64015238D01*
X154756142Y-64015238D02*
X154784714Y-64039047D01*
X154784714Y-64039047D02*
X154841857Y-64062857D01*
X154841857Y-64062857D02*
X154899000Y-64062857D01*
X154899000Y-64062857D02*
X154956142Y-64039047D01*
X154956142Y-64039047D02*
X154984714Y-64015238D01*
X154984714Y-64015238D02*
X155013285Y-63967619D01*
X155013285Y-63967619D02*
X155013285Y-63800952D01*
X155327571Y-64562857D02*
X155327571Y-64277143D01*
X155327571Y-64420000D02*
X154727571Y-64420000D01*
X154727571Y-64420000D02*
X154813285Y-64372381D01*
X154813285Y-64372381D02*
X154870428Y-64324762D01*
X154870428Y-64324762D02*
X154899000Y-64277143D01*
X154784714Y-64753333D02*
X154756142Y-64777142D01*
X154756142Y-64777142D02*
X154727571Y-64824761D01*
X154727571Y-64824761D02*
X154727571Y-64943809D01*
X154727571Y-64943809D02*
X154756142Y-64991428D01*
X154756142Y-64991428D02*
X154784714Y-65015237D01*
X154784714Y-65015237D02*
X154841857Y-65039047D01*
X154841857Y-65039047D02*
X154899000Y-65039047D01*
X154899000Y-65039047D02*
X154984714Y-65015237D01*
X154984714Y-65015237D02*
X155327571Y-64729523D01*
X155327571Y-64729523D02*
X155327571Y-65039047D01*
%TO.C,SB15*%
X160649000Y-66670953D02*
X160677571Y-66742381D01*
X160677571Y-66742381D02*
X160677571Y-66861429D01*
X160677571Y-66861429D02*
X160649000Y-66909048D01*
X160649000Y-66909048D02*
X160620428Y-66932857D01*
X160620428Y-66932857D02*
X160563285Y-66956667D01*
X160563285Y-66956667D02*
X160506142Y-66956667D01*
X160506142Y-66956667D02*
X160449000Y-66932857D01*
X160449000Y-66932857D02*
X160420428Y-66909048D01*
X160420428Y-66909048D02*
X160391857Y-66861429D01*
X160391857Y-66861429D02*
X160363285Y-66766191D01*
X160363285Y-66766191D02*
X160334714Y-66718572D01*
X160334714Y-66718572D02*
X160306142Y-66694762D01*
X160306142Y-66694762D02*
X160249000Y-66670953D01*
X160249000Y-66670953D02*
X160191857Y-66670953D01*
X160191857Y-66670953D02*
X160134714Y-66694762D01*
X160134714Y-66694762D02*
X160106142Y-66718572D01*
X160106142Y-66718572D02*
X160077571Y-66766191D01*
X160077571Y-66766191D02*
X160077571Y-66885238D01*
X160077571Y-66885238D02*
X160106142Y-66956667D01*
X160363285Y-67337619D02*
X160391857Y-67409047D01*
X160391857Y-67409047D02*
X160420428Y-67432857D01*
X160420428Y-67432857D02*
X160477571Y-67456666D01*
X160477571Y-67456666D02*
X160563285Y-67456666D01*
X160563285Y-67456666D02*
X160620428Y-67432857D01*
X160620428Y-67432857D02*
X160649000Y-67409047D01*
X160649000Y-67409047D02*
X160677571Y-67361428D01*
X160677571Y-67361428D02*
X160677571Y-67170952D01*
X160677571Y-67170952D02*
X160077571Y-67170952D01*
X160077571Y-67170952D02*
X160077571Y-67337619D01*
X160077571Y-67337619D02*
X160106142Y-67385238D01*
X160106142Y-67385238D02*
X160134714Y-67409047D01*
X160134714Y-67409047D02*
X160191857Y-67432857D01*
X160191857Y-67432857D02*
X160249000Y-67432857D01*
X160249000Y-67432857D02*
X160306142Y-67409047D01*
X160306142Y-67409047D02*
X160334714Y-67385238D01*
X160334714Y-67385238D02*
X160363285Y-67337619D01*
X160363285Y-67337619D02*
X160363285Y-67170952D01*
X160677571Y-67932857D02*
X160677571Y-67647143D01*
X160677571Y-67790000D02*
X160077571Y-67790000D01*
X160077571Y-67790000D02*
X160163285Y-67742381D01*
X160163285Y-67742381D02*
X160220428Y-67694762D01*
X160220428Y-67694762D02*
X160249000Y-67647143D01*
X160077571Y-68385237D02*
X160077571Y-68147142D01*
X160077571Y-68147142D02*
X160363285Y-68123333D01*
X160363285Y-68123333D02*
X160334714Y-68147142D01*
X160334714Y-68147142D02*
X160306142Y-68194761D01*
X160306142Y-68194761D02*
X160306142Y-68313809D01*
X160306142Y-68313809D02*
X160334714Y-68361428D01*
X160334714Y-68361428D02*
X160363285Y-68385237D01*
X160363285Y-68385237D02*
X160420428Y-68409047D01*
X160420428Y-68409047D02*
X160563285Y-68409047D01*
X160563285Y-68409047D02*
X160620428Y-68385237D01*
X160620428Y-68385237D02*
X160649000Y-68361428D01*
X160649000Y-68361428D02*
X160677571Y-68313809D01*
X160677571Y-68313809D02*
X160677571Y-68194761D01*
X160677571Y-68194761D02*
X160649000Y-68147142D01*
X160649000Y-68147142D02*
X160620428Y-68123333D01*
D12*
%TO.C,J7*%
X176590000Y-41845000D02*
X175260000Y-41845000D01*
X176590000Y-43175000D02*
X176590000Y-41845000D01*
X176590000Y-44445000D02*
X176590000Y-47045000D01*
X176590000Y-44445000D02*
X173930000Y-44445000D01*
X176590000Y-47045000D02*
X173930000Y-47045000D01*
X173930000Y-44445000D02*
X173930000Y-47045000D01*
%TO.C,J6*%
X119870000Y-41725000D02*
X118540000Y-41725000D01*
X119870000Y-43055000D02*
X119870000Y-41725000D01*
X119870000Y-44325000D02*
X119870000Y-46925000D01*
X119870000Y-44325000D02*
X117210000Y-44325000D01*
X119870000Y-46925000D02*
X117210000Y-46925000D01*
X117210000Y-44325000D02*
X117210000Y-46925000D01*
%TO.C,SB7*%
X174225000Y-62225000D02*
X174225000Y-60225000D01*
X174225000Y-60225000D02*
X171425000Y-60225000D01*
X171425000Y-62225000D02*
X174225000Y-62225000D01*
X171425000Y-60225000D02*
X171425000Y-62225000D01*
%TO.C,SB20*%
X130775000Y-102275000D02*
X128775000Y-102275000D01*
X128775000Y-102275000D02*
X128775000Y-105075000D01*
X130775000Y-105075000D02*
X130775000Y-102275000D01*
X128775000Y-105075000D02*
X130775000Y-105075000D01*
%TO.C,C17*%
X156690000Y-61490580D02*
X156690000Y-61209420D01*
X157710000Y-61490580D02*
X157710000Y-61209420D01*
%TO.C,SB9*%
X174225000Y-64750000D02*
X174225000Y-62750000D01*
X174225000Y-62750000D02*
X171425000Y-62750000D01*
X171425000Y-64750000D02*
X174225000Y-64750000D01*
X171425000Y-62750000D02*
X171425000Y-64750000D01*
%TO.C,SB11*%
X151600000Y-65800000D02*
X151600000Y-67800000D01*
X151600000Y-67800000D02*
X154400000Y-67800000D01*
X154400000Y-65800000D02*
X151600000Y-65800000D01*
X154400000Y-67800000D02*
X154400000Y-65800000D01*
%TO.C,R10*%
X157722500Y-58037742D02*
X157722500Y-58512258D01*
X156677500Y-58037742D02*
X156677500Y-58512258D01*
%TO.C,SB8*%
X166900000Y-64600000D02*
X166900000Y-62600000D01*
X166900000Y-62600000D02*
X164100000Y-62600000D01*
X164100000Y-64600000D02*
X166900000Y-64600000D01*
X164100000Y-62600000D02*
X164100000Y-64600000D01*
%TO.C,SB10*%
X133290000Y-64150000D02*
X135290000Y-64150000D01*
X135290000Y-64150000D02*
X135290000Y-61350000D01*
X133290000Y-61350000D02*
X133290000Y-64150000D01*
X135290000Y-61350000D02*
X133290000Y-61350000D01*
%TO.C,SB16*%
X157050000Y-66600000D02*
X157050000Y-68600000D01*
X157050000Y-68600000D02*
X159850000Y-68600000D01*
X159850000Y-66600000D02*
X157050000Y-66600000D01*
X159850000Y-68600000D02*
X159850000Y-66600000D01*
%TO.C,SB17*%
X134800000Y-78800000D02*
X132800000Y-78800000D01*
X132800000Y-78800000D02*
X132800000Y-81600000D01*
X134800000Y-81600000D02*
X134800000Y-78800000D01*
X132800000Y-81600000D02*
X134800000Y-81600000D01*
%TO.C,SB18*%
X163225000Y-86325000D02*
X163225000Y-84325000D01*
X163225000Y-84325000D02*
X160425000Y-84325000D01*
X160425000Y-86325000D02*
X163225000Y-86325000D01*
X160425000Y-84325000D02*
X160425000Y-86325000D01*
%TO.C,SB14*%
X163800000Y-69600000D02*
X163800000Y-67600000D01*
X163800000Y-67600000D02*
X161000000Y-67600000D01*
X161000000Y-69600000D02*
X163800000Y-69600000D01*
X161000000Y-67600000D02*
X161000000Y-69600000D01*
%TO.C,R14*%
X159877500Y-58837258D02*
X159877500Y-58362742D01*
X160922500Y-58837258D02*
X160922500Y-58362742D01*
%TO.C,SB5*%
X174225000Y-59675000D02*
X174225000Y-57675000D01*
X174225000Y-57675000D02*
X171425000Y-57675000D01*
X171425000Y-59675000D02*
X174225000Y-59675000D01*
X171425000Y-57675000D02*
X171425000Y-59675000D01*
%TO.C,SB6*%
X166900000Y-62050000D02*
X166900000Y-60050000D01*
X166900000Y-60050000D02*
X164100000Y-60050000D01*
X164100000Y-62050000D02*
X166900000Y-62050000D01*
X164100000Y-60050000D02*
X164100000Y-62050000D01*
%TO.C,SB19*%
X131270000Y-91845000D02*
X133270000Y-91845000D01*
X133270000Y-91845000D02*
X133270000Y-89045000D01*
X131270000Y-89045000D02*
X131270000Y-91845000D01*
X133270000Y-89045000D02*
X131270000Y-89045000D01*
%TO.C,SB13*%
X163800000Y-72150000D02*
X163800000Y-70150000D01*
X163800000Y-70150000D02*
X161000000Y-70150000D01*
X161000000Y-72150000D02*
X163800000Y-72150000D01*
X161000000Y-70150000D02*
X161000000Y-72150000D01*
%TO.C,SB1*%
X155025000Y-103575000D02*
X155025000Y-105575000D01*
X155025000Y-105575000D02*
X157825000Y-105575000D01*
X157825000Y-103575000D02*
X155025000Y-103575000D01*
X157825000Y-105575000D02*
X157825000Y-103575000D01*
%TO.C,SB4*%
X166900000Y-59525000D02*
X166900000Y-57525000D01*
X166900000Y-57525000D02*
X164100000Y-57525000D01*
X164100000Y-59525000D02*
X166900000Y-59525000D01*
X164100000Y-57525000D02*
X164100000Y-59525000D01*
%TO.C,SB3*%
X174225000Y-57125000D02*
X174225000Y-55125000D01*
X174225000Y-55125000D02*
X171425000Y-55125000D01*
X171425000Y-57125000D02*
X174225000Y-57125000D01*
X171425000Y-55125000D02*
X171425000Y-57125000D01*
%TO.C,SB2*%
X166900000Y-56975000D02*
X166900000Y-54975000D01*
X166900000Y-54975000D02*
X164100000Y-54975000D01*
X164100000Y-56975000D02*
X166900000Y-56975000D01*
X164100000Y-54975000D02*
X164100000Y-56975000D01*
%TO.C,SB12*%
X151600000Y-63200000D02*
X151600000Y-65200000D01*
X151600000Y-65200000D02*
X154400000Y-65200000D01*
X154400000Y-63200000D02*
X151600000Y-63200000D01*
X154400000Y-65200000D02*
X154400000Y-63200000D01*
%TO.C,SB15*%
X157075000Y-64100000D02*
X157075000Y-66100000D01*
X157075000Y-66100000D02*
X159875000Y-66100000D01*
X159875000Y-64100000D02*
X157075000Y-64100000D01*
X159875000Y-66100000D02*
X159875000Y-64100000D01*
%TD*%
M02*
